<?xml version="1.0" standalone='no'?><!-- IBoard SVG File --><svg xmlns="http://www.w3.org/2000/svg" xmlns:xlink="http://www.w3.org/1999/xlink" viewBox="206.34 73.22 329.12 198.28" height="191.28" width="336.12" version="1.1"><!-- SVG File --><polygon points="399.721313,152.312897 425.252014,167.053238 424.662415,167.393631 424.072815,167.734024 399.131836,153.334183 399.131836,152.653366 " style="fill:rgb(0,0,0);fill-opacity:1.000000"/><polygon points="245.357788,240.753723 245.357819,211.273270 245.947418,211.613693 246.537018,211.954117 246.536987,240.753555 245.947388,241.093979 " style="fill:rgb(0,0,0);fill-opacity:1.000000"/><polygon points="322.539459,256.515045 297.008789,241.774841 297.008789,241.094025 297.598389,240.753601 322.539459,255.153427 322.539459,255.834244 " style="fill:rgb(0,0,0);fill-opacity:1.000000"/><polygon points="322.244659,252.259949 300.251617,239.562195 300.546417,239.051575 300.841217,238.540955 322.834259,251.238708 322.539459,251.749329 " style="fill:rgb(0,0,0);fill-opacity:1.000000"/><polygon points="373.758942,197.463333 348.659851,211.954239 348.070251,211.613815 348.070251,210.932999 373.011353,196.533310 373.600952,196.873734 " style="fill:rgb(0,0,0);fill-opacity:1.000000"/><polygon points="271.478149,196.192734 297.598450,211.273300 297.008850,211.613724 296.419250,211.954147 271.478149,197.554367 271.478149,196.873550 " style="fill:rgb(0,0,0);fill-opacity:1.000000"/><polygon points="297.008789,241.774841 271.478088,256.514984 271.478088,255.834183 271.478088,255.153366 296.419189,240.753601 297.008789,241.094025 " style="fill:rgb(0,0,0);fill-opacity:1.000000"/><polygon points="296.419189,240.753601 296.419250,211.954147 297.008850,211.613724 297.598450,211.273300 297.598389,240.753601 297.008789,241.094025 " style="fill:rgb(0,0,0);fill-opacity:1.000000"/><polygon points="321.949982,197.214035 321.950012,167.052872 322.539612,167.393295 323.129211,167.733719 323.129181,196.533188 322.539581,196.873611 " style="fill:rgb(0,0,0);fill-opacity:1.000000"/><polygon points="321.950012,167.052872 348.070374,151.972366 348.070374,152.653183 348.070374,153.334000 323.129211,167.733719 322.539612,167.393295 " style="fill:rgb(0,0,0);fill-opacity:1.000000"/><polygon points="348.070374,151.972366 373.011200,166.372055 373.601013,167.393417 373.011414,167.733841 348.070374,153.334000 348.070374,152.653183 " style="fill:rgb(0,0,0);fill-opacity:1.000000"/><polygon points="348.659790,241.434570 322.539459,256.515045 322.539459,255.834244 322.539459,255.153427 347.480591,240.753723 348.070190,241.094147 " style="fill:rgb(0,0,0);fill-opacity:1.000000"/><text xml:space="preserve" x="206.342484" y="260.958374" textLength="18.773333" lengthAdjust="spacingAndGlyphs"><tspan font-family="Times New Roman" font-weight="normal" baseline-shift="0" font-size="13" fill="#000000">H</tspan><tspan font-family="Times New Roman" font-weight="normal" baseline-shift="0" font-size="13" fill="#000000">O</tspan></text><polygon points="347.480652,211.954239 321.949982,197.214035 322.539581,196.873611 323.129181,196.533188 348.070251,210.932999 348.070251,211.613815 " style="fill:rgb(0,0,0);fill-opacity:1.000000"/><polygon points="374.190399,166.372314 398.542114,152.313019 399.131836,152.653366 399.131836,153.334183 374.190613,167.733841 373.601013,167.393417 " style="fill:rgb(0,0,0);fill-opacity:1.000000"/><polygon points="425.252014,167.053238 425.251892,197.463547 424.662292,196.873947 424.072693,196.284348 424.072815,167.734024 424.662415,167.393631 " style="fill:rgb(0,0,0);fill-opacity:1.000000"/><polygon points="373.011353,196.533310 373.011414,167.733826 373.601013,167.393417 374.190613,167.733841 374.190552,196.284134 373.600952,196.873734 " style="fill:rgb(0,0,0);fill-opacity:1.000000"/><polygon points="245.947510,241.774872 226.590027,252.961090 226.295029,252.450592 226.000031,251.940094 245.357788,240.753723 245.947388,241.093979 " style="fill:rgb(0,0,0);fill-opacity:1.000000"/><polygon points="245.357819,211.273270 271.478149,196.192734 271.478149,196.873550 271.478149,197.554367 246.537018,211.954117 245.947418,211.613693 " style="fill:rgb(0,0,0);fill-opacity:1.000000"/><polygon points="271.478088,256.514984 245.947510,241.774872 245.947388,241.093979 246.536987,240.753555 271.478088,255.153366 271.478088,255.834183 " style="fill:rgb(0,0,0);fill-opacity:1.000000"/><polygon points="398.542114,152.313019 398.530823,123.513718 399.120300,123.173058 399.710022,123.513084 399.721313,152.312897 399.131836,152.653366 " style="fill:rgb(0,0,0);fill-opacity:1.000000"/><polygon points="373.011200,166.372070 373.005676,137.913223 373.595276,137.913101 374.184875,137.912979 374.190399,166.372314 373.601013,167.393417 " style="fill:rgb(0,0,0);fill-opacity:1.000000"/><polygon points="398.530823,123.513710 373.289246,108.953598 373.583862,108.442871 373.878479,107.932144 399.119904,122.492157 399.120300,123.173058 " style="fill:rgb(0,0,0);fill-opacity:1.000000"/><polygon points="399.119904,122.492157 424.638885,107.732002 424.639404,108.412827 424.639923,109.093651 399.710022,123.513084 399.120300,123.173058 " style="fill:rgb(0,0,0);fill-opacity:1.000000"/><polygon points="450.181122,122.452080 475.110748,108.032822 475.700745,108.372696 475.701263,109.053513 450.182159,123.813728 450.181641,123.132904 " style="fill:rgb(0,0,0);fill-opacity:1.000000"/><polygon points="476.289948,108.031738 501.242523,122.411987 501.243042,123.092804 501.243561,123.773621 475.701263,109.053513 475.700745,108.372696 " style="fill:rgb(0,0,0);fill-opacity:1.000000"/><polygon points="501.242523,122.411987 526.466919,107.822227 526.762146,108.332611 527.057373,108.842995 502.422455,123.091759 501.243042,123.092804 " style="fill:rgb(0,0,0);fill-opacity:1.000000"/><polygon points="502.422455,123.091759 527.082520,137.296936 526.788208,137.807846 526.493896,138.318756 500.063629,123.093857 501.243042,123.092804 " style="fill:rgb(0,0,0);fill-opacity:1.000000"/><polygon points="374.190552,196.284134 424.072693,196.284348 424.662292,196.873947 425.251892,197.463547 373.758942,197.463333 373.600952,196.873734 " style="fill:rgb(0,0,0);fill-opacity:1.000000"/><polygon points="294.650208,210.592484 294.644623,182.133865 295.234222,182.133743 295.823822,182.133621 295.829407,210.592239 295.239807,210.592361 " style="fill:rgb(0,0,0);fill-opacity:1.000000"/><polygon points="298.188080,211.613495 298.182281,182.133163 298.771881,182.133041 299.361481,182.132919 299.367279,211.613251 298.777679,211.613373 " style="fill:rgb(0,0,0);fill-opacity:1.000000"/><polygon points="348.659851,211.954239 348.659790,241.434570 348.070190,241.094147 347.480591,240.753723 347.480652,211.954239 348.070251,211.613815 " style="fill:rgb(0,0,0);fill-opacity:1.000000"/><polygon points="345.122223,213.656265 345.122162,239.051697 344.532562,239.051697 343.942963,239.051697 343.943024,213.656265 344.532623,213.656265 " style="fill:rgb(0,0,0);fill-opacity:1.000000"/><polygon points="424.638885,107.732010 450.181122,122.452087 450.181641,123.132904 450.182159,123.813721 424.639923,109.093643 424.639404,108.412827 " style="fill:rgb(0,0,0);fill-opacity:1.000000"/><polygon points="424.937012,111.986893 448.709625,125.687126 448.415222,126.197975 448.120819,126.708824 424.348206,113.008591 424.642609,112.497742 " style="fill:rgb(0,0,0);fill-opacity:1.000000"/><polygon points="475.110748,108.032829 475.076355,78.893097 475.665955,78.892403 476.255554,78.891708 476.289948,108.031738 475.700745,108.372696 " style="fill:rgb(0,0,0);fill-opacity:1.000000"/></svg>