<?xml version="1.0" standalone='no'?><!-- IBoard SVG File --><svg xmlns="http://www.w3.org/2000/svg" xmlns:xlink="http://www.w3.org/1999/xlink" viewBox="72.05 152.24 99.34 95.17" height="88.17" width="106.34" version="1.1"><!-- SVG File --><text xml:space="preserve" x="98.554276" y="161.861984" textLength="22.673334" lengthAdjust="spacingAndGlyphs"><tspan font-family="Times New Roman" font-weight="normal" baseline-shift="0" font-size="13" fill="#000000">N</tspan><tspan font-family="Times New Roman" font-weight="normal" baseline-shift="0" font-size="13" fill="#000000">H</tspan><tspan font-family="Times New Roman" font-weight="normal" baseline-shift="-2" font-size="8" fill="#000000">2</tspan></text><polygon points="103.837219,164.888763 103.837219,187.577209 103.247612,187.917618 102.658005,187.577209 102.658005,164.888763 103.247612,164.888763 " style="fill:rgb(0,0,0);fill-opacity:1.000000"/><polygon points="103.837219,187.577209 128.778320,201.976974 128.778320,202.657791 128.778320,203.338608 103.247612,188.598434 103.247612,187.917618 " style="fill:rgb(0,0,0);fill-opacity:1.000000"/><polygon points="131.136734,201.636566 131.136734,225.686630 130.547134,225.686630 129.957535,225.686630 129.957535,201.636566 130.547134,201.636566 " style="fill:rgb(0,0,0);fill-opacity:1.000000"/><polygon points="127.599106,201.636566 127.599106,225.686630 127.009499,225.686630 126.419891,225.686630 126.419891,201.636566 127.009499,201.636566 " style="fill:rgb(0,0,0);fill-opacity:1.000000"/><text xml:space="preserve" x="124.084991" y="237.252289" textLength="9.386666" lengthAdjust="spacingAndGlyphs"><tspan font-family="Times New Roman" font-weight="normal" baseline-shift="0" font-size="13" fill="#000000">O</tspan></text><polygon points="128.778320,201.976974 148.141632,190.797516 148.436432,191.308136 148.731232,191.818756 128.778320,203.338608 128.778320,202.657791 " style="fill:rgb(0,0,0);fill-opacity:1.000000"/><text xml:space="preserve" x="149.615646" y="193.031815" textLength="18.773333" lengthAdjust="spacingAndGlyphs"><tspan font-family="Times New Roman" font-weight="normal" baseline-shift="0" font-size="13" fill="#000000">O</tspan><tspan font-family="Times New Roman" font-weight="normal" baseline-shift="0" font-size="13" fill="#000000">H</tspan></text><polygon points="103.247620,188.598434 78.011711,203.168411 77.716911,202.657791 77.422112,202.147171 102.658005,187.577209 103.247612,187.917618 " style="fill:rgb(0,255,255);fill-opacity:1.000000"/></svg>