<?xml version="1.0" standalone='no'?><!-- IBoard SVG File --><svg xmlns="http://www.w3.org/2000/svg" xmlns:xlink="http://www.w3.org/1999/xlink" viewBox="277.71 237.76 239.31 95.17" height="88.17" width="246.31" version="1.1"><!-- SVG File --><text xml:space="preserve" x="444.181458" y="247.382751" textLength="22.673334" lengthAdjust="spacingAndGlyphs"><tspan font-family="Times New Roman" font-weight="normal" baseline-shift="0" font-size="13" fill="#000000">N</tspan><tspan font-family="Times New Roman" font-weight="normal" baseline-shift="0" font-size="13" fill="#000000">H</tspan><tspan font-family="Times New Roman" font-weight="normal" baseline-shift="-2" font-size="8" fill="#000000">2</tspan></text><polygon points="448.874786,274.119232 423.344055,288.859375 423.344055,288.178558 423.344055,287.497742 448.285187,273.097992 448.874786,273.438416 " style="fill:rgb(0,255,255);fill-opacity:1.000000"/><polygon points="423.344055,288.859375 397.813385,274.119232 397.813385,273.438416 397.813385,272.757599 423.344055,287.497742 423.344055,288.178558 " style="fill:rgb(0,255,255);fill-opacity:1.000000"/><polygon points="397.813385,274.119232 372.282654,288.859344 372.282654,288.178528 372.282654,287.497711 397.813385,272.757599 397.813385,273.438416 " style="fill:rgb(0,255,255);fill-opacity:1.000000"/><polygon points="372.282654,288.859344 352.329712,277.339508 352.624512,276.828888 352.919312,276.318268 372.282654,287.497711 372.282654,288.178528 " style="fill:rgb(0,255,255);fill-opacity:1.000000"/><text xml:space="preserve" x="342.058655" y="268.008087" textLength="9.386666" lengthAdjust="spacingAndGlyphs"><tspan font-family="Times New Roman" font-weight="normal" baseline-shift="0" font-size="13" fill="#00FFFF">H</tspan></text><text xml:space="preserve"/><text xml:space="preserve" x="342.058655" y="279.710632" textLength="9.386666" lengthAdjust="spacingAndGlyphs"><tspan font-family="Times New Roman" font-weight="normal" baseline-shift="0" font-size="13" fill="#00FFFF">N</tspan></text><polygon points="341.174255,277.339508 321.221252,288.859314 321.221252,288.178497 321.221252,287.497681 340.584656,276.318268 340.879456,276.828888 " style="fill:rgb(0,255,255);fill-opacity:1.000000"/><polygon points="318.862854,311.207458 318.862823,287.157257 319.452423,287.157257 320.042023,287.157257 320.042053,311.207458 319.452454,311.207458 " style="fill:rgb(0,255,255);fill-opacity:1.000000"/><polygon points="322.400513,311.207458 322.400482,287.157257 322.990082,287.157257 323.579681,287.157257 323.579712,311.207458 322.990112,311.207458 " style="fill:rgb(0,255,255);fill-opacity:1.000000"/><text xml:space="preserve" x="316.527954" y="322.773102" textLength="18.773333" lengthAdjust="spacingAndGlyphs"><tspan font-family="Times New Roman" font-weight="normal" baseline-shift="0" font-size="13" fill="#00FFFF">N</tspan><tspan font-family="Times New Roman" font-weight="normal" baseline-shift="0" font-size="13" fill="#00FFFF">H</tspan></text><polygon points="321.221252,288.859314 301.268311,277.339539 301.563110,276.828918 301.857910,276.318298 321.221252,287.497681 321.221252,288.178497 " style="fill:rgb(0,255,255);fill-opacity:1.000000"/><text xml:space="preserve" x="277.710571" y="276.863129" textLength="22.673334" lengthAdjust="spacingAndGlyphs"><tspan font-family="Times New Roman" font-weight="normal" baseline-shift="0" font-size="13" fill="#00FFFF">H</tspan><tspan font-family="Times New Roman" font-weight="normal" baseline-shift="-2" font-size="8" fill="#00FFFF">2</tspan><tspan font-family="Times New Roman" font-weight="normal" baseline-shift="0" font-size="13" fill="#00FFFF">N</tspan></text><polygon points="449.464386,273.097992 474.405518,287.497711 474.405518,288.178528 474.405518,288.859344 448.874786,274.119232 448.874786,273.438416 " style="fill:rgb(0,0,0);fill-opacity:1.000000"/><polygon points="472.047028,311.207428 472.047089,287.157288 472.636688,287.157288 473.226288,287.157288 473.226227,311.207428 472.636627,311.207428 " style="fill:rgb(0,0,0);fill-opacity:1.000000"/><polygon points="475.584686,311.207428 475.584747,287.157288 476.174347,287.157288 476.763947,287.157288 476.763885,311.207428 476.174286,311.207428 " style="fill:rgb(0,0,0);fill-opacity:1.000000"/><text xml:space="preserve" x="469.712128" y="322.773071" textLength="9.386666" lengthAdjust="spacingAndGlyphs"><tspan font-family="Times New Roman" font-weight="normal" baseline-shift="0" font-size="13" fill="#000000">O</tspan></text><polygon points="474.405518,287.497711 493.768829,276.318329 494.063629,276.828949 494.358429,277.339569 474.405518,288.859344 474.405518,288.178528 " style="fill:rgb(0,0,0);fill-opacity:1.000000"/><text xml:space="preserve" x="495.242828" y="278.552643" textLength="18.773333" lengthAdjust="spacingAndGlyphs"><tspan font-family="Times New Roman" font-weight="normal" baseline-shift="0" font-size="13" fill="#000000">O</tspan><tspan font-family="Times New Roman" font-weight="normal" baseline-shift="0" font-size="13" fill="#000000">H</tspan></text><polygon points="448.285187,273.097992 448.285187,250.409531 448.874786,250.409531 449.464386,250.409531 449.464386,273.097992 448.874786,273.438416 " style="fill:rgb(0,0,0);fill-opacity:1.000000"/></svg>