<?xml version="1.0" standalone='no'?><!-- IBoard SVG File --><svg xmlns="http://www.w3.org/2000/svg" xmlns:xlink="http://www.w3.org/1999/xlink" viewBox="514.38 264.96 162.71 95.17" height="88.17" width="169.71" version="1.1"><!-- SVG File --><text xml:space="preserve" x="604.258606" y="274.582764" textLength="22.673334" lengthAdjust="spacingAndGlyphs"><tspan font-family="Times New Roman" font-weight="normal" baseline-shift="0" font-size="13" fill="#000000">N</tspan><tspan font-family="Times New Roman" font-weight="normal" baseline-shift="0" font-size="13" fill="#000000">H</tspan><tspan font-family="Times New Roman" font-weight="normal" baseline-shift="-2" font-size="8" fill="#000000">2</tspan></text><polygon points="608.951965,301.319214 583.421326,316.059387 583.421326,315.378571 583.421326,314.697754 608.362366,300.297974 608.951965,300.638397 " style="fill:rgb(0,255,255);fill-opacity:1.000000"/><polygon points="583.421326,316.059387 557.890625,301.319214 557.890625,300.638397 557.890625,299.957581 583.421326,314.697754 583.421326,315.378571 " style="fill:rgb(0,255,255);fill-opacity:1.000000"/><polygon points="555.532227,301.659607 555.532227,277.609528 556.121826,277.609528 556.711426,277.609528 556.711426,301.659607 556.121826,301.659607 " style="fill:rgb(0,255,255);fill-opacity:1.000000"/><polygon points="559.069824,301.659607 559.069824,277.609528 559.659424,277.609528 560.249023,277.609528 560.249023,301.659607 559.659424,301.659607 " style="fill:rgb(0,255,255);fill-opacity:1.000000"/><text xml:space="preserve" x="553.197327" y="276.272278" textLength="9.386666" lengthAdjust="spacingAndGlyphs"><tspan font-family="Times New Roman" font-weight="normal" baseline-shift="0" font-size="13" fill="#00FFFF">O</tspan></text><polygon points="557.890625,301.319214 538.527283,312.498657 538.232483,311.988037 537.937683,311.477417 557.890625,299.957581 557.890625,300.638397 " style="fill:rgb(0,255,255);fill-opacity:1.000000"/><text xml:space="preserve" x="514.379944" y="318.803253" textLength="22.673334" lengthAdjust="spacingAndGlyphs"><tspan font-family="Times New Roman" font-weight="normal" baseline-shift="0" font-size="13" fill="#00FFFF">H</tspan><tspan font-family="Times New Roman" font-weight="normal" baseline-shift="-2" font-size="8" fill="#00FFFF">2</tspan><tspan font-family="Times New Roman" font-weight="normal" baseline-shift="0" font-size="13" fill="#00FFFF">N</tspan></text><polygon points="609.541565,300.297974 634.482727,314.697754 634.482727,315.378571 634.482727,316.059387 608.951965,301.319214 608.951965,300.638397 " style="fill:rgb(0,0,0);fill-opacity:1.000000"/><polygon points="636.841125,314.357361 636.841125,338.407410 636.251526,338.407410 635.661926,338.407410 635.661926,314.357361 636.251526,314.357361 " style="fill:rgb(0,0,0);fill-opacity:1.000000"/><polygon points="633.303528,314.357361 633.303528,338.407410 632.713928,338.407410 632.124329,338.407410 632.124329,314.357361 632.713928,314.357361 " style="fill:rgb(0,0,0);fill-opacity:1.000000"/><text xml:space="preserve" x="629.789429" y="349.973053" textLength="9.386666" lengthAdjust="spacingAndGlyphs"><tspan font-family="Times New Roman" font-weight="normal" baseline-shift="0" font-size="13" fill="#000000">O</tspan></text><polygon points="634.482727,314.697754 653.846069,303.518311 654.140869,304.028931 654.435669,304.539551 634.482727,316.059387 634.482727,315.378571 " style="fill:rgb(0,0,0);fill-opacity:1.000000"/><text xml:space="preserve" x="655.320068" y="305.752594" textLength="18.773333" lengthAdjust="spacingAndGlyphs"><tspan font-family="Times New Roman" font-weight="normal" baseline-shift="0" font-size="13" fill="#000000">O</tspan><tspan font-family="Times New Roman" font-weight="normal" baseline-shift="0" font-size="13" fill="#000000">H</tspan></text><polygon points="608.362366,300.297974 608.362366,277.609528 608.951965,277.609528 609.541565,277.609528 609.541565,300.297974 608.951965,300.638397 " style="fill:rgb(0,0,0);fill-opacity:1.000000"/></svg>