<?xml version="1.0" standalone='no'?><!-- IBoard SVG File --><svg xmlns="http://www.w3.org/2000/svg" xmlns:xlink="http://www.w3.org/1999/xlink" viewBox="412.29 256.16 158.81 95.17" height="88.17" width="165.81" version="1.1"><!-- SVG File --><text xml:space="preserve" x="498.272064" y="265.782776" textLength="22.673334" lengthAdjust="spacingAndGlyphs"><tspan font-family="Times New Roman" font-weight="normal" baseline-shift="0" font-size="13" fill="#000000">N</tspan><tspan font-family="Times New Roman" font-weight="normal" baseline-shift="0" font-size="13" fill="#000000">H</tspan><tspan font-family="Times New Roman" font-weight="normal" baseline-shift="-2" font-size="8" fill="#000000">2</tspan></text><polygon points="502.965393,292.519226 477.434692,307.259369 477.434692,306.578552 477.434692,305.897736 502.375793,291.497986 502.965393,291.838409 " style="fill:rgb(0,255,255);fill-opacity:1.000000"/><polygon points="477.434692,307.259369 451.903992,292.519226 451.903992,291.838409 451.903992,291.157593 477.434692,305.897736 477.434692,306.578552 " style="fill:rgb(0,255,255);fill-opacity:1.000000"/><polygon points="449.545563,292.859650 449.545563,268.809540 450.135162,268.809540 450.724762,268.809540 450.724762,292.859650 450.135162,292.859650 " style="fill:rgb(0,255,255);fill-opacity:1.000000"/><polygon points="453.083221,292.859650 453.083221,268.809540 453.672821,268.809540 454.262421,268.809540 454.262421,292.859650 453.672821,292.859650 " style="fill:rgb(0,255,255);fill-opacity:1.000000"/><text xml:space="preserve" x="447.210663" y="267.472290" textLength="9.386666" lengthAdjust="spacingAndGlyphs"><tspan font-family="Times New Roman" font-weight="normal" baseline-shift="0" font-size="13" fill="#00FFFF">O</tspan></text><polygon points="451.903992,292.519226 432.540588,303.698669 432.245789,303.188049 431.950989,302.677429 451.903992,291.157593 451.903992,291.838409 " style="fill:rgb(0,255,255);fill-opacity:1.000000"/><text xml:space="preserve" x="412.293243" y="311.692749" textLength="18.773333" lengthAdjust="spacingAndGlyphs"><tspan font-family="Times New Roman" font-weight="normal" baseline-shift="0" font-size="13" fill="#00FFFF">H</tspan><tspan font-family="Times New Roman" font-weight="normal" baseline-shift="0" font-size="13" fill="#00FFFF">O</tspan></text><polygon points="503.554993,291.497986 528.496094,305.897736 528.496094,306.578552 528.496094,307.259369 502.965393,292.519226 502.965393,291.838409 " style="fill:rgb(0,0,0);fill-opacity:1.000000"/><polygon points="530.854492,305.557343 530.854492,329.607422 530.264893,329.607422 529.675293,329.607422 529.675293,305.557343 530.264893,305.557343 " style="fill:rgb(0,0,0);fill-opacity:1.000000"/><polygon points="527.316895,305.557343 527.316895,329.607422 526.727295,329.607422 526.137695,329.607422 526.137695,305.557343 526.727295,305.557343 " style="fill:rgb(0,0,0);fill-opacity:1.000000"/><text xml:space="preserve" x="523.802795" y="341.173065" textLength="9.386666" lengthAdjust="spacingAndGlyphs"><tspan font-family="Times New Roman" font-weight="normal" baseline-shift="0" font-size="13" fill="#000000">O</tspan></text><polygon points="528.496094,305.897736 547.859436,294.718323 548.154236,295.228943 548.449036,295.739563 528.496094,307.259369 528.496094,306.578552 " style="fill:rgb(0,0,0);fill-opacity:1.000000"/><text xml:space="preserve" x="549.333435" y="296.952606" textLength="18.773333" lengthAdjust="spacingAndGlyphs"><tspan font-family="Times New Roman" font-weight="normal" baseline-shift="0" font-size="13" fill="#000000">O</tspan><tspan font-family="Times New Roman" font-weight="normal" baseline-shift="0" font-size="13" fill="#000000">H</tspan></text><polygon points="502.375793,291.497986 502.375793,268.809540 502.965393,268.809540 503.554993,268.809540 503.554993,291.497986 502.965393,291.838409 " style="fill:rgb(0,0,0);fill-opacity:1.000000"/></svg>