<?xml version="1.0" standalone='no'?><!-- IBoard SVG File --><svg xmlns="http://www.w3.org/2000/svg" xmlns:xlink="http://www.w3.org/1999/xlink" viewBox="538.58 260.76 132.20 95.17" height="88.17" width="139.20" version="1.1"><!-- SVG File --><text xml:space="preserve" x="597.945801" y="270.382782" textLength="22.673334" lengthAdjust="spacingAndGlyphs"><tspan font-family="Times New Roman" font-weight="normal" baseline-shift="0" font-size="13" fill="#000000">N</tspan><tspan font-family="Times New Roman" font-weight="normal" baseline-shift="0" font-size="13" fill="#000000">H</tspan><tspan font-family="Times New Roman" font-weight="normal" baseline-shift="-2" font-size="8" fill="#000000">2</tspan></text><polygon points="602.639160,297.119232 577.108459,311.859375 577.108459,311.178558 577.108459,310.497742 602.049561,296.097992 602.639160,296.438416 " style="fill:rgb(0,255,255);fill-opacity:1.000000"/><polygon points="577.108459,311.859375 556.077148,299.716949 556.371948,299.206329 556.666748,298.695709 577.108459,310.497742 577.108459,311.178558 " style="fill:rgb(0,255,255);fill-opacity:1.000000"/><text xml:space="preserve" x="538.576111" y="301.552612" textLength="16.616667" lengthAdjust="spacingAndGlyphs"><tspan font-family="Times New Roman" font-weight="normal" baseline-shift="0" font-size="13" fill="#00FFFF">H</tspan><tspan font-family="Times New Roman" font-weight="normal" baseline-shift="0" font-size="13" fill="#00FFFF">S</tspan></text><polygon points="603.228760,296.097992 628.169861,310.497742 628.169861,311.178558 628.169861,311.859375 602.639160,297.119232 602.639160,296.438416 " style="fill:rgb(0,0,0);fill-opacity:1.000000"/><polygon points="630.528259,310.157349 630.528259,334.207428 629.938660,334.207428 629.349060,334.207428 629.349060,310.157349 629.938660,310.157349 " style="fill:rgb(0,0,0);fill-opacity:1.000000"/><polygon points="626.990662,310.157349 626.990662,334.207428 626.401062,334.207428 625.811462,334.207428 625.811462,310.157349 626.401062,310.157349 " style="fill:rgb(0,0,0);fill-opacity:1.000000"/><text xml:space="preserve" x="623.476563" y="345.773071" textLength="9.386666" lengthAdjust="spacingAndGlyphs"><tspan font-family="Times New Roman" font-weight="normal" baseline-shift="0" font-size="13" fill="#000000">O</tspan></text><polygon points="628.169861,310.497742 647.533203,299.318329 647.828003,299.828949 648.122803,300.339569 628.169861,311.859375 628.169861,311.178558 " style="fill:rgb(0,0,0);fill-opacity:1.000000"/><text xml:space="preserve" x="649.007202" y="301.552612" textLength="18.773333" lengthAdjust="spacingAndGlyphs"><tspan font-family="Times New Roman" font-weight="normal" baseline-shift="0" font-size="13" fill="#000000">O</tspan><tspan font-family="Times New Roman" font-weight="normal" baseline-shift="0" font-size="13" fill="#000000">H</tspan></text><polygon points="602.049561,296.097992 602.049561,273.409546 602.639160,273.409546 603.228760,273.409546 603.228760,296.097992 602.639160,296.438416 " style="fill:rgb(0,0,0);fill-opacity:1.000000"/></svg>