<?xml version="1.0" standalone='no'?><!-- IBoard SVG File --><svg xmlns="http://www.w3.org/2000/svg" xmlns:xlink="http://www.w3.org/1999/xlink" viewBox="409.64 295.36 188.24 95.17" height="88.17" width="195.24" version="1.1"><!-- SVG File --><text xml:space="preserve" x="525.050659" y="304.982788" textLength="22.673334" lengthAdjust="spacingAndGlyphs"><tspan font-family="Times New Roman" font-weight="normal" baseline-shift="0" font-size="13" fill="#000000">N</tspan><tspan font-family="Times New Roman" font-weight="normal" baseline-shift="0" font-size="13" fill="#000000">H</tspan><tspan font-family="Times New Roman" font-weight="normal" baseline-shift="-2" font-size="8" fill="#000000">2</tspan></text><polygon points="529.744019,331.719238 504.213348,346.459381 504.213348,345.778564 504.213348,345.097748 529.154419,330.697998 529.744019,331.038422 " style="fill:rgb(0,255,255);fill-opacity:1.000000"/><polygon points="504.213348,346.459381 478.682617,331.719238 478.682617,331.038422 478.682617,330.357605 504.213348,345.097748 504.213348,345.778564 " style="fill:rgb(0,255,255);fill-opacity:1.000000"/><polygon points="478.682617,331.719238 453.151917,346.459381 453.151917,345.778564 453.151917,345.097748 478.682617,330.357605 478.682617,331.038422 " style="fill:rgb(0,255,255);fill-opacity:1.000000"/><polygon points="450.793488,368.807434 450.793488,344.757324 451.383087,344.757324 451.972687,344.757324 451.972687,368.807434 451.383087,368.807434 " style="fill:rgb(0,255,255);fill-opacity:1.000000"/><polygon points="454.331146,368.807434 454.331146,344.757324 454.920746,344.757324 455.510345,344.757324 455.510345,368.807434 454.920746,368.807434 " style="fill:rgb(0,255,255);fill-opacity:1.000000"/><text xml:space="preserve" x="448.458588" y="380.373077" textLength="9.386666" lengthAdjust="spacingAndGlyphs"><tspan font-family="Times New Roman" font-weight="normal" baseline-shift="0" font-size="13" fill="#00FFFF">O</tspan></text><polygon points="453.151917,346.459381 433.199005,334.939545 433.493805,334.428925 433.788605,333.918304 453.151917,345.097748 453.151917,345.778564 " style="fill:rgb(0,255,255);fill-opacity:1.000000"/><text xml:space="preserve" x="409.641266" y="334.463104" textLength="22.673334" lengthAdjust="spacingAndGlyphs"><tspan font-family="Times New Roman" font-weight="normal" baseline-shift="0" font-size="13" fill="#00FFFF">H</tspan><tspan font-family="Times New Roman" font-weight="normal" baseline-shift="-2" font-size="8" fill="#00FFFF">2</tspan><tspan font-family="Times New Roman" font-weight="normal" baseline-shift="0" font-size="13" fill="#00FFFF">N</tspan></text><polygon points="530.333618,330.697998 555.274780,345.097778 555.274780,345.778595 555.274780,346.459412 529.744019,331.719238 529.744019,331.038422 " style="fill:rgb(0,0,0);fill-opacity:1.000000"/><polygon points="552.916321,368.807434 552.916382,344.757385 553.505981,344.757385 554.095581,344.757385 554.095520,368.807434 553.505920,368.807434 " style="fill:rgb(0,0,0);fill-opacity:1.000000"/><polygon points="556.453918,368.807434 556.453979,344.757355 557.043579,344.757355 557.633179,344.757355 557.633118,368.807434 557.043518,368.807434 " style="fill:rgb(0,0,0);fill-opacity:1.000000"/><text xml:space="preserve" x="550.581421" y="380.373077" textLength="9.386666" lengthAdjust="spacingAndGlyphs"><tspan font-family="Times New Roman" font-weight="normal" baseline-shift="0" font-size="13" fill="#000000">O</tspan></text><polygon points="555.274780,345.097778 574.638062,333.918304 574.932861,334.428925 575.227661,334.939545 555.274780,346.459412 555.274780,345.778595 " style="fill:rgb(0,0,0);fill-opacity:1.000000"/><text xml:space="preserve" x="576.112061" y="336.152588" textLength="18.773333" lengthAdjust="spacingAndGlyphs"><tspan font-family="Times New Roman" font-weight="normal" baseline-shift="0" font-size="13" fill="#000000">O</tspan><tspan font-family="Times New Roman" font-weight="normal" baseline-shift="0" font-size="13" fill="#000000">H</tspan></text><polygon points="529.154419,330.697998 529.154419,308.009552 529.744019,308.009552 530.333618,308.009552 530.333618,330.697998 529.744019,331.038422 " style="fill:rgb(0,0,0);fill-opacity:1.000000"/></svg>