<?xml version="1.0" standalone='no'?><!-- IBoard SVG File --><svg xmlns="http://www.w3.org/2000/svg" xmlns:xlink="http://www.w3.org/1999/xlink" viewBox="329.13 260.96 184.34 95.17" height="88.17" width="191.34" version="1.1"><!-- SVG File --><text xml:space="preserve" x="440.637329" y="270.582764" textLength="22.673334" lengthAdjust="spacingAndGlyphs"><tspan font-family="Times New Roman" font-weight="normal" baseline-shift="0" font-size="13" fill="#000000">N</tspan><tspan font-family="Times New Roman" font-weight="normal" baseline-shift="0" font-size="13" fill="#000000">H</tspan><tspan font-family="Times New Roman" font-weight="normal" baseline-shift="-2" font-size="8" fill="#000000">2</tspan></text><polygon points="445.330658,297.319214 419.800018,312.059357 419.800018,311.378540 419.800018,310.697723 444.741058,296.297974 445.330658,296.638397 " style="fill:rgb(0,255,255);fill-opacity:1.000000"/><polygon points="419.800018,312.059357 394.269287,297.319214 394.269287,296.638397 394.269287,295.957581 419.800018,310.697723 419.800018,311.378540 " style="fill:rgb(0,255,255);fill-opacity:1.000000"/><polygon points="394.269287,297.319214 368.738617,312.059387 368.738617,311.378571 368.738617,310.697754 394.269287,295.957581 394.269287,296.638397 " style="fill:rgb(0,255,255);fill-opacity:1.000000"/><polygon points="366.380157,334.407440 366.380188,310.357330 366.969788,310.357330 367.559387,310.357330 367.559357,334.407440 366.969757,334.407440 " style="fill:rgb(0,255,255);fill-opacity:1.000000"/><polygon points="369.917816,334.407440 369.917847,310.357330 370.507446,310.357330 371.097046,310.357330 371.097015,334.407440 370.507416,334.407440 " style="fill:rgb(0,255,255);fill-opacity:1.000000"/><text xml:space="preserve" x="364.045258" y="345.973083" textLength="9.386666" lengthAdjust="spacingAndGlyphs"><tspan font-family="Times New Roman" font-weight="normal" baseline-shift="0" font-size="13" fill="#00FFFF">O</tspan></text><polygon points="368.738617,312.059387 348.785614,300.539520 349.080414,300.028900 349.375214,299.518280 368.738617,310.697754 368.738617,311.378571 " style="fill:rgb(0,255,255);fill-opacity:1.000000"/><text xml:space="preserve" x="329.127869" y="301.752594" textLength="18.773333" lengthAdjust="spacingAndGlyphs"><tspan font-family="Times New Roman" font-weight="normal" baseline-shift="0" font-size="13" fill="#00FFFF">H</tspan><tspan font-family="Times New Roman" font-weight="normal" baseline-shift="0" font-size="13" fill="#00FFFF">O</tspan></text><polygon points="445.920258,296.297974 470.861389,310.697723 470.861389,311.378540 470.861389,312.059357 445.330658,297.319214 445.330658,296.638397 " style="fill:rgb(0,0,0);fill-opacity:1.000000"/><polygon points="468.502960,334.407440 468.502960,310.357300 469.092560,310.357300 469.682159,310.357300 469.682159,334.407440 469.092560,334.407440 " style="fill:rgb(0,0,0);fill-opacity:1.000000"/><polygon points="472.040619,334.407440 472.040619,310.357300 472.630219,310.357300 473.219818,310.357300 473.219818,334.407440 472.630219,334.407440 " style="fill:rgb(0,0,0);fill-opacity:1.000000"/><text xml:space="preserve" x="466.168060" y="345.973083" textLength="9.386666" lengthAdjust="spacingAndGlyphs"><tspan font-family="Times New Roman" font-weight="normal" baseline-shift="0" font-size="13" fill="#000000">O</tspan></text><polygon points="470.861389,310.697723 490.224762,299.518280 490.519562,300.028900 490.814362,300.539520 470.861389,312.059357 470.861389,311.378540 " style="fill:rgb(0,0,0);fill-opacity:1.000000"/><text xml:space="preserve" x="491.698761" y="301.752594" textLength="18.773333" lengthAdjust="spacingAndGlyphs"><tspan font-family="Times New Roman" font-weight="normal" baseline-shift="0" font-size="13" fill="#000000">O</tspan><tspan font-family="Times New Roman" font-weight="normal" baseline-shift="0" font-size="13" fill="#000000">H</tspan></text><polygon points="444.741058,296.297974 444.741058,273.609528 445.330658,273.609528 445.920258,273.609528 445.920258,296.297974 445.330658,296.638397 " style="fill:rgb(0,0,0);fill-opacity:1.000000"/></svg>