<?xml version="1.0" standalone='no'?><!-- IBoard SVG File --><svg xmlns="http://www.w3.org/2000/svg" xmlns:xlink="http://www.w3.org/1999/xlink" viewBox="530.64 160.58 111.65 65.16" height="58.16" width="118.65" version="1.1"><!-- SVG File --><text xml:space="preserve" x="530.637512" y="198.760025" textLength="22.673334" lengthAdjust="spacingAndGlyphs"><tspan font-family="Times New Roman" font-weight="normal" baseline-shift="0" font-size="13" fill="#000000">H</tspan><tspan font-family="Times New Roman" font-weight="normal" baseline-shift="-2" font-size="8" fill="#000000">2</tspan><tspan font-family="Times New Roman" font-weight="normal" baseline-shift="0" font-size="13" fill="#000000">N</tspan></text><polygon points="554.784851,198.215256 574.148193,209.394699 574.148193,210.075516 574.148193,210.756332 554.195251,199.236496 554.490051,198.725876 " style="fill:rgb(0,0,0);fill-opacity:1.000000"/><polygon points="574.148193,209.394699 599.678894,194.654526 599.678894,195.335342 599.678894,196.016159 574.148193,210.756332 574.148193,210.075516 " style="fill:rgb(0,0,0);fill-opacity:1.000000"/><polygon points="597.320496,196.356567 597.320496,172.306503 597.910095,172.306503 598.499695,172.306503 598.499695,196.356567 597.910095,196.356567 " style="fill:rgb(0,0,0);fill-opacity:1.000000"/><polygon points="600.858093,196.356552 600.858093,172.306503 601.447693,172.306503 602.037292,172.306503 602.037292,196.356552 601.447693,196.356552 " style="fill:rgb(0,0,0);fill-opacity:1.000000"/><text xml:space="preserve" x="594.985596" y="170.969238" textLength="9.386666" lengthAdjust="spacingAndGlyphs"><tspan font-family="Times New Roman" font-weight="normal" baseline-shift="0" font-size="13" fill="#000000">O</tspan></text><polygon points="599.678894,194.654526 619.631836,206.174362 619.337036,206.684982 619.042236,207.195602 599.678894,196.016159 599.678894,195.335342 " style="fill:rgb(0,0,0);fill-opacity:1.000000"/><text xml:space="preserve" x="620.516235" y="215.189713" textLength="18.773333" lengthAdjust="spacingAndGlyphs"><tspan font-family="Times New Roman" font-weight="normal" baseline-shift="0" font-size="13" fill="#000000">O</tspan><tspan font-family="Times New Roman" font-weight="normal" baseline-shift="0" font-size="13" fill="#000000">H</tspan></text></svg>