<?xml version="1.0" standalone='no'?><!-- IBoard SVG File --><svg xmlns="http://www.w3.org/2000/svg" xmlns:xlink="http://www.w3.org/1999/xlink" viewBox="401.84 171.39 164.97 98.28" height="91.28" width="171.97" version="1.1"><!-- SVG File --><text xml:space="preserve" x="472.780945" y="255.397766" textLength="22.673334" lengthAdjust="spacingAndGlyphs"><tspan font-family="Times New Roman" font-weight="normal" baseline-shift="0" font-size="13" fill="#000000">H</tspan><tspan font-family="Times New Roman" font-weight="normal" baseline-shift="-2" font-size="8" fill="#000000">2</tspan><tspan font-family="Times New Roman" font-weight="normal" baseline-shift="0" font-size="13" fill="#000000">N</tspan></text><polygon points="504.820282,226.442398 490.420532,201.501266 490.760956,200.911667 491.101379,200.322067 505.841522,225.852798 505.501099,226.442398 " style="fill:rgb(0,255,255);fill-opacity:1.000000"/><polygon points="490.420532,201.501266 461.581055,201.501266 461.280640,200.911667 461.581055,200.322067 491.101379,200.322067 490.760956,200.911667 " style="fill:rgb(0,255,255);fill-opacity:1.000000"/><polygon points="456.430878,201.258224 442.124268,181.566895 442.601257,181.220337 443.078247,180.873779 457.384857,200.565109 456.907867,200.911667 " style="fill:rgb(0,255,255);fill-opacity:1.000000"/><polygon points="460.551849,200.911652 443.727325,177.754715 443.952515,177.061600 444.177704,176.368484 461.581055,200.322067 461.280640,200.911667 " style="fill:rgb(0,255,255);fill-opacity:1.000000"/><polygon points="443.727325,177.754715 421.969788,184.824158 421.787598,184.263412 421.605408,183.702667 444.177704,176.368484 443.952515,177.061600 " style="fill:rgb(0,255,255);fill-opacity:1.000000"/><text xml:space="preserve" x="401.835052" y="191.285706" textLength="18.773333" lengthAdjust="spacingAndGlyphs"><tspan font-family="Times New Roman" font-weight="normal" baseline-shift="0" font-size="13" fill="#00FFFF">H</tspan><tspan font-family="Times New Roman" font-weight="normal" baseline-shift="0" font-size="13" fill="#00FFFF">N</tspan></text><polygon points="416.504669,192.622971 416.504669,215.223450 415.915070,215.651825 415.325470,216.080200 415.325470,192.622971 415.915070,192.622971 " style="fill:rgb(0,255,255);fill-opacity:1.000000"/><polygon points="419.634888,212.520844 439.355377,218.928406 439.173187,219.489151 438.990997,220.049896 419.270508,213.642334 419.452698,213.081589 " style="fill:rgb(0,255,255);fill-opacity:1.000000"/><polygon points="416.504669,215.223450 438.262177,222.292892 438.079987,222.853638 437.897797,223.414383 415.325470,216.080200 415.915070,215.651825 " style="fill:rgb(0,255,255);fill-opacity:1.000000"/><text xml:space="preserve" x="439.259186" y="229.875931" textLength="9.386666" lengthAdjust="spacingAndGlyphs"><tspan font-family="Times New Roman" font-weight="normal" baseline-shift="0" font-size="13" fill="#00FFFF">N</tspan></text><polygon points="448.162811,217.963715 460.551849,200.911667 461.280640,200.911667 461.581055,201.501266 449.116791,218.656830 448.639801,218.310272 " style="fill:rgb(0,255,255);fill-opacity:1.000000"/><polygon points="505.841522,225.852798 535.321838,225.852798 534.981445,226.442398 534.641052,227.031998 505.841522,227.031998 505.501099,226.442398 " style="fill:rgb(0,0,0);fill-opacity:1.000000"/><polygon points="532.428345,226.147598 543.954346,206.183929 544.464966,206.478729 544.975586,206.773529 533.449585,226.737198 532.938965,226.442398 " style="fill:rgb(0,0,0);fill-opacity:1.000000"/><polygon points="535.492065,227.916443 547.018066,207.952728 547.528687,208.247528 548.039307,208.542328 536.513306,228.506042 536.002686,228.211243 " style="fill:rgb(0,0,0);fill-opacity:1.000000"/><text xml:space="preserve" x="545.028259" y="206.025864" textLength="9.386666" lengthAdjust="spacingAndGlyphs"><tspan font-family="Times New Roman" font-weight="normal" baseline-shift="0" font-size="13" fill="#000000">O</tspan></text><polygon points="535.321838,225.852798 546.507446,245.226807 545.996826,245.521606 545.486206,245.816406 534.641052,227.031998 534.981445,226.442398 " style="fill:rgb(0,0,0);fill-opacity:1.000000"/><text xml:space="preserve" x="545.028198" y="257.087280" textLength="18.773333" lengthAdjust="spacingAndGlyphs"><tspan font-family="Times New Roman" font-weight="normal" baseline-shift="0" font-size="13" fill="#000000">O</tspan><tspan font-family="Times New Roman" font-weight="normal" baseline-shift="0" font-size="13" fill="#000000">H</tspan></text><polygon points="505.841522,227.031998 494.996338,245.816422 494.485718,245.521622 493.975098,245.226822 504.820282,226.442398 505.501099,226.442398 " style="fill:rgb(0,0,0);fill-opacity:1.000000"/></svg>