<?xml version="1.0" standalone='no'?><!-- IBoard SVG File --><svg xmlns="http://www.w3.org/2000/svg" xmlns:xlink="http://www.w3.org/1999/xlink" viewBox="537.40 276.32 102.27 109.38" height="102.38" width="109.27" version="1.1"><!-- SVG File --><text xml:space="preserve" x="537.403992" y="314.502106" textLength="22.673334" lengthAdjust="spacingAndGlyphs"><tspan font-family="Times New Roman" font-weight="normal" baseline-shift="0" font-size="13" fill="#000000">H</tspan><tspan font-family="Times New Roman" font-weight="normal" baseline-shift="-2" font-size="8" fill="#000000">2</tspan><tspan font-family="Times New Roman" font-weight="normal" baseline-shift="0" font-size="13" fill="#000000">N</tspan></text><polygon points="581.504272,326.158020 581.504272,354.957520 580.914673,355.297943 580.325073,354.957520 580.325073,326.158020 580.914673,325.817596 " style="fill:rgb(0,255,255);fill-opacity:1.000000"/><polygon points="580.914673,355.978760 555.678772,370.548676 555.383972,370.038055 555.089172,369.527435 580.325073,354.957520 580.914673,355.297943 " style="fill:rgb(0,255,255);fill-opacity:1.000000"/><polygon points="581.504272,354.957520 606.740173,369.527435 606.445374,370.038055 606.150574,370.548676 580.914673,355.978760 580.914673,355.297943 " style="fill:rgb(0,255,255);fill-opacity:1.000000"/><polygon points="580.914673,325.136780 605.855774,310.737000 606.445374,311.077423 607.034973,311.417847 581.504272,326.158020 580.914673,325.817596 " style="fill:rgb(0,0,0);fill-opacity:1.000000"/><polygon points="606.740173,308.524384 627.282776,320.384644 626.987976,320.895264 626.693176,321.405884 606.150574,309.545624 606.445374,309.035004 " style="fill:rgb(0,0,0);fill-opacity:1.000000"/><polygon points="604.971375,311.588043 625.513977,323.448303 625.219177,323.958923 624.924377,324.469543 604.381775,312.609283 604.676575,312.098663 " style="fill:rgb(0,0,0);fill-opacity:1.000000"/><text xml:space="preserve" x="627.282776" y="330.931793" textLength="9.386666" lengthAdjust="spacingAndGlyphs"><tspan font-family="Times New Roman" font-weight="normal" baseline-shift="0" font-size="13" fill="#000000">O</tspan></text><polygon points="605.855774,310.737000 605.855774,288.048553 606.445374,288.048553 607.034973,288.048553 607.034973,311.417847 606.445374,311.077423 " style="fill:rgb(0,0,0);fill-opacity:1.000000"/><text xml:space="preserve" x="601.752014" y="286.711304" textLength="18.773333" lengthAdjust="spacingAndGlyphs"><tspan font-family="Times New Roman" font-weight="normal" baseline-shift="0" font-size="13" fill="#000000">O</tspan><tspan font-family="Times New Roman" font-weight="normal" baseline-shift="0" font-size="13" fill="#000000">H</tspan></text><polygon points="580.325073,326.158020 560.961731,314.978577 561.256531,314.467957 561.551331,313.957336 580.914673,325.136780 580.914673,325.817596 " style="fill:rgb(0,0,0);fill-opacity:1.000000"/></svg>