<?xml version="1.0" standalone='no'?><!-- IBoard SVG File --><svg xmlns="http://www.w3.org/2000/svg" xmlns:xlink="http://www.w3.org/1999/xlink" viewBox="740.25 43.35 125.79 100.20" height="93.20" width="132.79" version="1.1"><!-- SVG File --><text xml:space="preserve" x="772.024475" y="129.271164" textLength="22.673334" lengthAdjust="spacingAndGlyphs"><tspan font-family="Times New Roman" font-weight="normal" baseline-shift="0" font-size="13" fill="#000000">H</tspan><tspan font-family="Times New Roman" font-weight="normal" baseline-shift="-2" font-size="8" fill="#000000">2</tspan><tspan font-family="Times New Roman" font-weight="normal" baseline-shift="0" font-size="13" fill="#000000">N</tspan></text><polygon points="804.200623,100.391762 789.935486,75.373520 790.279053,74.785751 790.622620,74.197983 805.224976,99.807655 804.881409,100.395424 " style="fill:rgb(0,255,255);fill-opacity:1.000000"/><polygon points="789.935486,75.373520 761.135620,75.218559 760.798401,74.627129 761.141968,74.039360 790.622620,74.197983 790.279053,74.785751 " style="fill:rgb(0,255,255);fill-opacity:1.000000"/><polygon points="760.117554,74.623466 745.683838,49.309769 746.196045,49.017719 746.708252,48.725670 761.141968,74.039360 760.798401,74.627129 " style="fill:rgb(0,255,255);fill-opacity:1.000000"/><polygon points="761.135620,75.218559 746.430176,100.375664 745.921143,100.078117 745.412109,99.780571 760.117554,74.623489 760.798401,74.627129 " style="fill:rgb(0,255,255);fill-opacity:1.000000"/><polygon points="805.224976,99.807655 834.704895,99.966362 834.361328,100.554131 834.017761,101.141899 805.218628,100.986855 804.881409,100.395424 " style="fill:rgb(0,0,0);fill-opacity:1.000000"/><polygon points="831.809937,100.245590 843.431641,80.364113 843.940674,80.661659 844.449707,80.959206 832.828003,100.840683 832.318970,100.543137 " style="fill:rgb(0,0,0);fill-opacity:1.000000"/><polygon points="834.863953,102.030876 846.485718,82.149406 846.994751,82.446953 847.503784,82.744499 835.882019,102.625969 835.372986,102.328423 " style="fill:rgb(0,0,0);fill-opacity:1.000000"/><text xml:space="preserve" x="844.545654" y="80.217041" textLength="9.386666" lengthAdjust="spacingAndGlyphs"><tspan font-family="Times New Roman" font-weight="normal" baseline-shift="0" font-size="13" fill="#000000">O</tspan></text><polygon points="834.704895,99.966362 845.797241,119.420013 845.285034,119.712059 844.772827,120.004105 834.017761,101.141899 834.361328,100.554131 " style="fill:rgb(0,0,0);fill-opacity:1.000000"/><text xml:space="preserve" x="844.270264" y="131.277710" textLength="18.773333" lengthAdjust="spacingAndGlyphs"><tspan font-family="Times New Roman" font-weight="normal" baseline-shift="0" font-size="13" fill="#000000">O</tspan><tspan font-family="Times New Roman" font-weight="normal" baseline-shift="0" font-size="13" fill="#000000">H</tspan></text><polygon points="805.218628,100.986855 794.284546,119.692558 793.775513,119.395020 793.266479,119.097481 804.200623,100.391739 804.881409,100.395424 " style="fill:rgb(0,0,0);fill-opacity:1.000000"/></svg>