<?xml version="1.0" standalone='no'?><!-- IBoard SVG File --><svg xmlns="http://www.w3.org/2000/svg" xmlns:xlink="http://www.w3.org/1999/xlink" viewBox="200.08 254.56 213.77 95.17" height="88.17" width="220.77" version="1.1"><!-- SVG File --><text xml:space="preserve" x="341.016052" y="264.182770" textLength="22.673334" lengthAdjust="spacingAndGlyphs"><tspan font-family="Times New Roman" font-weight="normal" baseline-shift="0" font-size="13" fill="#000000">N</tspan><tspan font-family="Times New Roman" font-weight="normal" baseline-shift="0" font-size="13" fill="#000000">H</tspan><tspan font-family="Times New Roman" font-weight="normal" baseline-shift="-2" font-size="8" fill="#000000">2</tspan></text><polygon points="345.119781,289.897980 345.119781,267.209534 345.709381,267.209534 346.298981,267.209534 346.298981,289.897980 345.709381,290.238403 " style="fill:rgb(0,0,0);fill-opacity:1.000000"/><polygon points="345.709381,290.919220 320.178711,305.659393 320.178711,304.978577 320.178711,304.297760 345.119781,289.897980 345.709381,290.238403 " style="fill:rgb(0,0,0);fill-opacity:1.000000"/><polygon points="320.178711,305.659393 294.647980,290.919220 294.647980,290.238403 294.647980,289.557587 320.178711,304.297760 320.178711,304.978577 " style="fill:rgb(0,0,0);fill-opacity:1.000000"/><polygon points="294.647980,290.919220 269.117249,305.659393 269.117249,304.978577 269.117249,304.297760 294.647980,289.557587 294.647980,290.238403 " style="fill:rgb(0,0,0);fill-opacity:1.000000"/><polygon points="269.117249,305.659393 243.586594,290.919189 243.586594,290.238373 243.586594,289.557556 269.117249,304.297760 269.117249,304.978577 " style="fill:rgb(0,0,0);fill-opacity:1.000000"/><polygon points="243.586594,290.919189 224.223236,302.098663 223.928436,301.588043 223.633636,301.077423 243.586594,289.557556 243.586594,290.238373 " style="fill:rgb(0,0,0);fill-opacity:1.000000"/><text xml:space="preserve" x="200.075882" y="308.403259" textLength="22.673334" lengthAdjust="spacingAndGlyphs"><tspan font-family="Times New Roman" font-weight="normal" baseline-shift="0" font-size="13" fill="#000000">H</tspan><tspan font-family="Times New Roman" font-weight="normal" baseline-shift="-2" font-size="8" fill="#000000">2</tspan><tspan font-family="Times New Roman" font-weight="normal" baseline-shift="0" font-size="13" fill="#000000">N</tspan></text><polygon points="346.298981,289.897980 371.240112,304.297760 371.240112,304.978577 371.240112,305.659393 345.709381,290.919220 345.709381,290.238403 " style="fill:rgb(0,0,0);fill-opacity:1.000000"/><polygon points="368.881653,328.007385 368.881683,303.957336 369.471283,303.957336 370.060883,303.957336 370.060852,328.007385 369.471252,328.007385 " style="fill:rgb(0,0,0);fill-opacity:1.000000"/><polygon points="372.419312,328.007385 372.419342,303.957336 373.008942,303.957336 373.598541,303.957336 373.598511,328.007385 373.008911,328.007385 " style="fill:rgb(0,0,0);fill-opacity:1.000000"/><text xml:space="preserve" x="366.546753" y="339.573029" textLength="9.386666" lengthAdjust="spacingAndGlyphs"><tspan font-family="Times New Roman" font-weight="normal" baseline-shift="0" font-size="13" fill="#000000">O</tspan></text><polygon points="371.240112,304.297760 390.603455,293.118286 390.898254,293.628906 391.193054,294.139526 371.240112,305.659393 371.240112,304.978577 " style="fill:rgb(0,0,0);fill-opacity:1.000000"/><text xml:space="preserve" x="392.077454" y="295.352570" textLength="18.773333" lengthAdjust="spacingAndGlyphs"><tspan font-family="Times New Roman" font-weight="normal" baseline-shift="0" font-size="13" fill="#000000">O</tspan><tspan font-family="Times New Roman" font-weight="normal" baseline-shift="0" font-size="13" fill="#000000">H</tspan></text></svg>