<?xml version="1.0" standalone='no'?><!-- IBoard SVG File --><svg xmlns="http://www.w3.org/2000/svg" xmlns:xlink="http://www.w3.org/1999/xlink" viewBox="500.35 90.65 175.93 96.68" height="89.68" width="182.93" version="1.1"><!-- SVG File --><text xml:space="preserve" x="603.450317" y="173.046646" textLength="22.673334" lengthAdjust="spacingAndGlyphs"><tspan font-family="Times New Roman" font-weight="normal" baseline-shift="0" font-size="13" fill="#000000">N</tspan><tspan font-family="Times New Roman" font-weight="normal" baseline-shift="0" font-size="13" fill="#000000">H</tspan><tspan font-family="Times New Roman" font-weight="normal" baseline-shift="-2" font-size="8" fill="#000000">2</tspan></text><polygon points="608.733276,140.482071 608.733276,163.170502 608.143677,163.170502 607.554077,163.170502 607.554077,140.482071 608.143677,140.141647 " style="fill:rgb(0,0,0);fill-opacity:1.000000"/><polygon points="607.554077,140.482071 582.612976,126.082298 582.612976,125.401482 582.612976,124.720665 608.143677,139.460831 608.143677,140.141647 " style="fill:rgb(0,255,255);fill-opacity:1.000000"/><polygon points="582.612976,126.082298 557.082275,140.822464 557.082275,140.141647 557.082275,139.460831 582.612976,124.720665 582.612976,125.401482 " style="fill:rgb(0,255,255);fill-opacity:1.000000"/><polygon points="557.082275,140.822464 536.050964,128.680023 536.345764,128.169403 536.640564,127.658791 557.082275,139.460831 557.082275,140.141647 " style="fill:rgb(0,255,255);fill-opacity:1.000000"/><text xml:space="preserve" x="527.936584" y="130.515686" textLength="7.230000" lengthAdjust="spacingAndGlyphs"><tspan font-family="Times New Roman" font-weight="normal" baseline-shift="0" font-size="13" fill="#00FFFF">S</tspan></text><polygon points="527.052185,128.680023 506.315674,140.652267 506.020874,140.141647 505.726074,139.631027 526.462585,127.658791 526.757385,128.169403 " style="fill:rgb(0,255,255);fill-opacity:1.000000"/><polygon points="608.143677,139.460831 633.674377,124.720665 633.674377,125.401482 633.674377,126.082298 608.733276,140.482071 608.143677,140.141647 " style="fill:rgb(0,0,0);fill-opacity:1.000000"/><polygon points="631.315979,126.422699 631.315979,102.372635 631.905579,102.372635 632.495178,102.372635 632.495178,126.422699 631.905579,126.422699 " style="fill:rgb(0,0,0);fill-opacity:1.000000"/><polygon points="634.853577,126.422699 634.853577,102.372635 635.443176,102.372635 636.032776,102.372635 636.032776,126.422699 635.443176,126.422699 " style="fill:rgb(0,0,0);fill-opacity:1.000000"/><text xml:space="preserve" x="628.981079" y="101.035370" textLength="9.386666" lengthAdjust="spacingAndGlyphs"><tspan font-family="Times New Roman" font-weight="normal" baseline-shift="0" font-size="13" fill="#000000">O</tspan></text><polygon points="633.674377,124.720665 653.627319,136.240509 653.332520,136.751129 653.037720,137.261749 633.674377,126.082298 633.674377,125.401482 " style="fill:rgb(0,0,0);fill-opacity:1.000000"/><text xml:space="preserve" x="654.511719" y="145.255844" textLength="18.773333" lengthAdjust="spacingAndGlyphs"><tspan font-family="Times New Roman" font-weight="normal" baseline-shift="0" font-size="13" fill="#000000">O</tspan><tspan font-family="Times New Roman" font-weight="normal" baseline-shift="0" font-size="13" fill="#000000">H</tspan></text></svg>