<?xml version="1.0" standalone='no'?><!-- IBoard SVG File --><svg xmlns="http://www.w3.org/2000/svg" xmlns:xlink="http://www.w3.org/1999/xlink" viewBox="440.84 221.75 170.15 99.97" height="92.97" width="177.15" version="1.1"><!-- SVG File --><text xml:space="preserve" x="516.973145" y="307.438080" textLength="22.673334" lengthAdjust="spacingAndGlyphs"><tspan font-family="Times New Roman" font-weight="normal" baseline-shift="0" font-size="13" fill="#000000">H</tspan><tspan font-family="Times New Roman" font-weight="normal" baseline-shift="-2" font-size="8" fill="#000000">2</tspan><tspan font-family="Times New Roman" font-weight="normal" baseline-shift="0" font-size="13" fill="#000000">N</tspan></text><polygon points="550.033691,279.072296 539.188477,297.856750 538.677856,297.561951 538.167236,297.267151 549.012451,278.482697 549.693298,278.482697 " style="fill:rgb(0,0,0);fill-opacity:1.000000"/><polygon points="549.012451,278.482666 534.612732,253.541565 534.953125,252.951965 535.293518,252.362366 550.033691,277.893097 549.693298,278.482697 " style="fill:rgb(0,255,255);fill-opacity:1.000000"/><polygon points="534.612732,253.541565 505.813232,253.541565 505.472809,252.951965 505.813232,252.362366 535.293518,252.362366 534.953125,252.951965 " style="fill:rgb(0,255,255);fill-opacity:1.000000"/><polygon points="505.813232,253.541565 491.073059,279.072296 490.732635,278.482697 490.392212,277.893097 504.791992,252.951965 505.472809,252.951965 " style="fill:rgb(0,255,255);fill-opacity:1.000000"/><polygon points="501.898499,253.246765 489.200806,275.239838 488.690186,274.945038 488.179565,274.650238 500.877258,252.657166 501.387878,252.951965 " style="fill:rgb(0,255,255);fill-opacity:1.000000"/><polygon points="491.073059,279.072296 460.911926,279.072296 461.252350,278.482697 461.592773,277.893097 490.392212,277.893097 490.732635,278.482697 " style="fill:rgb(0,255,255);fill-opacity:1.000000"/><polygon points="460.911926,279.072296 445.831360,252.951965 446.512177,252.951965 447.192993,252.951965 461.592773,277.893097 461.252350,278.482697 " style="fill:rgb(0,255,255);fill-opacity:1.000000"/><polygon points="462.784180,275.239838 450.086487,253.246765 450.597107,252.951965 451.107727,252.657166 463.805420,274.650238 463.294800,274.945038 " style="fill:rgb(0,255,255);fill-opacity:1.000000"/><polygon points="445.831360,252.951965 460.911926,226.831665 461.252350,227.421265 461.592773,228.010864 447.192993,252.951965 446.512177,252.951965 " style="fill:rgb(0,255,255);fill-opacity:1.000000"/><polygon points="460.911926,226.831665 491.073059,226.831665 490.732635,227.421265 490.392212,228.010864 461.592773,228.010864 461.252350,227.421265 " style="fill:rgb(0,255,255);fill-opacity:1.000000"/><polygon points="463.294800,230.369308 488.690186,230.369308 488.690186,230.958908 488.690186,231.548508 463.294800,231.548508 463.294800,230.958908 " style="fill:rgb(0,255,255);fill-opacity:1.000000"/><polygon points="491.073059,226.831665 505.813232,252.362366 505.472809,252.951965 504.791992,252.951965 490.392212,228.010864 490.732635,227.421265 " style="fill:rgb(0,255,255);fill-opacity:1.000000"/><polygon points="550.033691,277.893097 579.513977,277.893097 579.173584,278.482697 578.833191,279.072296 550.033691,279.072296 549.693298,278.482697 " style="fill:rgb(0,0,0);fill-opacity:1.000000"/><polygon points="576.620483,278.187897 588.146545,258.224213 588.657166,258.519012 589.167786,258.813812 577.641724,278.777496 577.131104,278.482697 " style="fill:rgb(0,0,0);fill-opacity:1.000000"/><polygon points="579.684204,279.956726 591.210266,259.993011 591.720886,260.287811 592.231506,260.582611 580.705444,280.546326 580.194824,280.251526 " style="fill:rgb(0,0,0);fill-opacity:1.000000"/><text xml:space="preserve" x="589.220459" y="258.066162" textLength="9.386666" lengthAdjust="spacingAndGlyphs"><tspan font-family="Times New Roman" font-weight="normal" baseline-shift="0" font-size="13" fill="#000000">O</tspan></text><polygon points="579.513977,277.893097 590.699646,297.267120 590.189026,297.561920 589.678406,297.856720 578.833191,279.072296 579.173584,278.482697 " style="fill:rgb(0,0,0);fill-opacity:1.000000"/><text xml:space="preserve" x="589.220398" y="309.127563" textLength="18.773333" lengthAdjust="spacingAndGlyphs"><tspan font-family="Times New Roman" font-weight="normal" baseline-shift="0" font-size="13" fill="#000000">O</tspan><tspan font-family="Times New Roman" font-weight="normal" baseline-shift="0" font-size="13" fill="#000000">H</tspan></text></svg>