<?xml version="1.0" standalone='no'?><!-- IBoard SVG File --><svg xmlns="http://www.w3.org/2000/svg" xmlns:xlink="http://www.w3.org/1999/xlink" viewBox="560.78 170.11 113.10 79.33" height="72.33" width="120.10" version="1.1"><!-- SVG File --><polygon points="594.967285,232.949738 611.364746,209.475235 612.093384,209.461670 612.404663,210.045593 595.443359,234.327362 595.205322,233.638550 " style="fill:rgb(0,255,255);fill-opacity:1.000000"/><polygon points="611.364746,209.475250 598.721313,192.737457 599.191772,192.382080 599.662231,192.026703 612.382751,208.866592 612.093384,209.461670 " style="fill:rgb(0,0,0);fill-opacity:1.000000"/><text xml:space="preserve" x="589.625122" y="180.500320" textLength="9.386666" lengthAdjust="spacingAndGlyphs"><tspan font-family="Times New Roman" font-weight="normal" baseline-shift="0" font-size="13" fill="#000000">H</tspan></text><text xml:space="preserve"/><text xml:space="preserve" x="589.625122" y="192.202866" textLength="9.386666" lengthAdjust="spacingAndGlyphs"><tspan font-family="Times New Roman" font-weight="normal" baseline-shift="0" font-size="13" fill="#000000">N</tspan></text><polygon points="588.638489,188.517410 567.043579,195.980515 566.446167,195.563171 565.848755,195.145828 588.253357,187.402878 588.445923,187.960144 " style="fill:rgb(0,255,255);fill-opacity:1.000000"/><polygon points="567.043579,195.980499 567.575989,224.609192 566.994446,225.048462 566.412903,225.487732 565.848755,195.145844 566.446167,195.563171 " style="fill:rgb(0,255,255);fill-opacity:1.000000"/><polygon points="612.382751,208.866592 641.907654,208.318344 641.578247,208.914169 641.248840,209.509995 612.404663,210.045593 612.093384,209.461670 " style="fill:rgb(0,0,0);fill-opacity:1.000000"/><polygon points="641.907654,208.318344 653.414307,227.419724 652.909241,227.723969 652.404175,228.028214 641.248840,209.509995 641.578247,208.914169 " style="fill:rgb(0,0,0);fill-opacity:1.000000"/><text xml:space="preserve" x="652.102234" y="239.289627" textLength="18.773333" lengthAdjust="spacingAndGlyphs"><tspan font-family="Times New Roman" font-weight="normal" baseline-shift="0" font-size="13" fill="#000000">O</tspan><tspan font-family="Times New Roman" font-weight="normal" baseline-shift="0" font-size="13" fill="#000000">H</tspan></text><polygon points="639.020142,208.666809 650.215942,188.415878 650.731934,188.701157 651.247925,188.986435 640.052124,209.237366 639.536133,208.952087 " style="fill:rgb(0,0,0);fill-opacity:1.000000"/><polygon points="642.116150,210.378418 653.311890,190.127518 653.827881,190.412796 654.343872,190.698074 643.148132,210.948975 642.632141,210.663696 " style="fill:rgb(0,0,0);fill-opacity:1.000000"/><text xml:space="preserve" x="651.153320" y="188.219711" textLength="9.386666" lengthAdjust="spacingAndGlyphs"><tspan font-family="Times New Roman" font-weight="normal" baseline-shift="0" font-size="13" fill="#000000">O</tspan></text><polygon points="595.443359,234.327362 566.412903,225.487717 566.994446,225.048462 567.575989,224.609207 594.967285,232.949738 595.205322,233.638550 " style="fill:rgb(0,255,255);fill-opacity:1.000000"/></svg>