<?xml version="1.0" standalone='no'?><!-- IBoard SVG File --><svg xmlns="http://www.w3.org/2000/svg" xmlns:xlink="http://www.w3.org/1999/xlink" viewBox="375.76 301.99 299.35 114.16" height="107.16" width="306.35" version="1.1"><!-- SVG File --><polygon points="606.376221,337.459961 606.533386,314.772430 607.122986,314.776520 607.712585,314.780609 607.555420,337.468170 606.963440,337.804443 " style="fill:rgb(0,0,0);fill-opacity:1.000000"/><polygon points="504.838196,337.777466 485.374390,348.835938 485.083130,348.323303 484.791870,347.810669 504.847595,336.415894 504.842896,337.096680 " style="fill:rgb(0,255,255);fill-opacity:1.000000"/><text xml:space="preserve" x="474.517273" y="356.774017" textLength="9.386666" lengthAdjust="spacingAndGlyphs"><tspan font-family="Times New Roman" font-weight="normal" baseline-shift="0" font-size="13" fill="#00FFFF">N</tspan></text><text xml:space="preserve"/><text xml:space="preserve" x="474.517273" y="368.476563" textLength="9.386666" lengthAdjust="spacingAndGlyphs"><tspan font-family="Times New Roman" font-weight="normal" baseline-shift="0" font-size="13" fill="#00FFFF">H</tspan></text><text xml:space="preserve" x="449.293488" y="312.377411" textLength="9.386666" lengthAdjust="spacingAndGlyphs"><tspan font-family="Times New Roman" font-weight="normal" baseline-shift="0" font-size="13" fill="#00FFFF">O</tspan></text><polygon points="606.958740,338.485229 581.325989,353.048462 581.330688,352.367676 581.335388,351.686890 606.376221,337.459961 606.963440,337.804443 " style="fill:rgb(0,255,255);fill-opacity:1.000000"/><polygon points="581.325989,353.048462 555.898315,338.131378 555.903015,337.450592 555.907715,336.769806 581.335388,351.686890 581.330688,352.367676 " style="fill:rgb(0,255,255);fill-opacity:1.000000"/><polygon points="555.898315,338.131378 530.266174,352.694214 530.270874,352.013428 530.275574,351.332642 555.907715,336.769806 555.903015,337.450592 " style="fill:rgb(0,255,255);fill-opacity:1.000000"/><polygon points="530.266174,352.694214 504.838196,337.777466 504.842896,337.096680 504.847595,336.415894 530.275574,351.332642 530.270874,352.013428 " style="fill:rgb(0,255,255);fill-opacity:1.000000"/><polygon points="473.039734,348.723297 453.778076,337.423645 453.782806,336.742859 453.787537,336.062073 473.636414,347.706207 473.338074,348.214752 " style="fill:rgb(0,255,255);fill-opacity:1.000000"/><polygon points="607.555420,337.468170 632.395935,352.040741 632.391235,352.721527 632.386536,353.402313 606.958740,338.485229 606.963440,337.804443 " style="fill:rgb(0,0,0);fill-opacity:1.000000"/><polygon points="632.395935,352.040741 651.859863,340.982361 652.151123,341.494995 652.442383,342.007629 632.386536,353.402313 632.391235,352.721527 " style="fill:rgb(0,0,0);fill-opacity:1.000000"/><text xml:space="preserve" x="653.330322" y="343.272705" textLength="18.773333" lengthAdjust="spacingAndGlyphs"><tspan font-family="Times New Roman" font-weight="normal" baseline-shift="0" font-size="13" fill="#000000">O</tspan><tspan font-family="Times New Roman" font-weight="normal" baseline-shift="0" font-size="13" fill="#000000">H</tspan></text><polygon points="634.756714,351.716644 634.590027,375.765778 634.000427,375.761688 633.410828,375.757599 633.577515,351.708466 634.167114,351.712555 " style="fill:rgb(0,0,0);fill-opacity:1.000000"/><polygon points="631.219116,351.692108 631.052429,375.741241 630.462830,375.737152 629.873230,375.733063 630.039917,351.683929 630.629517,351.688019 " style="fill:rgb(0,0,0);fill-opacity:1.000000"/><text xml:space="preserve" x="627.493652" y="387.315063" textLength="9.386666" lengthAdjust="spacingAndGlyphs"><tspan font-family="Times New Roman" font-weight="normal" baseline-shift="0" font-size="13" fill="#000000">O</tspan></text><text xml:space="preserve" x="602.474304" y="311.749756" textLength="22.673334" lengthAdjust="spacingAndGlyphs"><tspan font-family="Times New Roman" font-weight="normal" baseline-shift="0" font-size="13" fill="#000000">N</tspan><tspan font-family="Times New Roman" font-weight="normal" baseline-shift="0" font-size="13" fill="#000000">H</tspan><tspan font-family="Times New Roman" font-weight="normal" baseline-shift="-2" font-size="8" fill="#000000">2</tspan></text><polygon points="451.417389,337.747681 451.583801,313.698334 452.173401,313.702423 452.763000,313.706512 452.596588,337.755859 452.006989,337.751770 " style="fill:rgb(0,255,255);fill-opacity:1.000000"/><polygon points="454.954926,337.772247 455.121338,313.722809 455.710938,313.726898 456.300537,313.730988 456.134125,337.780426 455.544525,337.776337 " style="fill:rgb(0,255,255);fill-opacity:1.000000"/><polygon points="453.778076,337.423645 428.702850,351.669891 428.150391,351.305664 428.120331,350.644623 453.787537,336.062073 453.782806,336.742859 " style="fill:rgb(0,255,255);fill-opacity:1.000000"/><polygon points="427.516724,351.665680 406.931549,342.329132 407.175079,341.792175 407.418610,341.255219 428.120331,350.644623 428.150391,351.305664 " style="fill:rgb(0,255,255);fill-opacity:1.000000"/><text xml:space="preserve" x="396.609222" y="344.242859" textLength="9.386666" lengthAdjust="spacingAndGlyphs"><tspan font-family="Times New Roman" font-weight="normal" baseline-shift="0" font-size="13" fill="#00FFFF">N</tspan></text><polygon points="396.288544,385.867981 424.327606,380.111023 424.865814,380.602417 424.690155,381.240387 395.686493,387.195374 395.987518,386.531677 " style="fill:rgb(0,255,255);fill-opacity:1.000000"/><polygon points="424.327606,380.111023 427.516724,351.665680 428.150391,351.305664 428.702850,351.669891 425.485229,380.369537 424.865814,380.602417 " style="fill:rgb(0,255,255);fill-opacity:1.000000"/><polygon points="398.477966,348.343445 386.205994,361.784363 385.770569,361.386810 385.335144,360.989258 397.607117,347.548340 398.042542,347.945892 " style="fill:rgb(0,255,255);fill-opacity:1.000000"/><polygon points="395.865448,345.958130 382.149292,360.980804 381.425049,360.899597 380.700806,360.818390 394.994598,345.163025 395.430023,345.560577 " style="fill:rgb(0,255,255);fill-opacity:1.000000"/><polygon points="382.149292,360.980804 396.288544,385.867981 395.987518,386.531677 395.686493,387.195374 380.700806,360.818390 381.425049,360.899597 " style="fill:rgb(0,255,255);fill-opacity:1.000000"/><polygon points="425.485229,380.369537 447.036530,400.041962 446.639038,400.477417 446.241547,400.912872 424.690186,381.240387 424.865814,380.602417 " style="fill:rgb(0,255,255);fill-opacity:1.000000"/></svg>