<?xml version="1.0" standalone='no'?><!-- IBoard SVG File --><svg xmlns="http://www.w3.org/2000/svg" xmlns:xlink="http://www.w3.org/1999/xlink" viewBox="797.50 308.96 135.09 95.17" height="88.17" width="142.09" version="1.1"><!-- SVG File --><text xml:space="preserve" x="859.753296" y="318.582764" textLength="22.673334" lengthAdjust="spacingAndGlyphs"><tspan font-family="Times New Roman" font-weight="normal" baseline-shift="0" font-size="13" fill="#000000">N</tspan><tspan font-family="Times New Roman" font-weight="normal" baseline-shift="0" font-size="13" fill="#000000">H</tspan><tspan font-family="Times New Roman" font-weight="normal" baseline-shift="-2" font-size="8" fill="#000000">2</tspan></text><polygon points="864.446655,345.319244 838.915955,360.059357 838.915955,359.378540 838.915955,358.697723 863.857056,344.298004 864.446655,344.638428 " style="fill:rgb(0,255,255);fill-opacity:1.000000"/><polygon points="838.915955,360.059357 820.769714,349.582642 821.064514,349.072021 821.359314,348.561401 838.915955,358.697723 838.915955,359.378540 " style="fill:rgb(0,255,255);fill-opacity:1.000000"/><text xml:space="preserve" x="797.498657" y="349.752625" textLength="22.386667" lengthAdjust="spacingAndGlyphs"><tspan font-family="Times New Roman" font-weight="normal" baseline-shift="0" font-size="13" fill="#00FFFF">H</tspan><tspan font-family="Times New Roman" font-weight="normal" baseline-shift="0" font-size="13" fill="#00FFFF">Se</tspan></text><polygon points="865.036255,344.298004 889.977356,358.697723 889.977356,359.378540 889.977356,360.059357 864.446655,345.319244 864.446655,344.638428 " style="fill:rgb(0,0,0);fill-opacity:1.000000"/><polygon points="889.977356,358.697723 909.340698,347.518311 909.635498,348.028931 909.930298,348.539551 889.977356,360.059357 889.977356,359.378540 " style="fill:rgb(0,0,0);fill-opacity:1.000000"/><text xml:space="preserve" x="910.814697" y="349.752625" textLength="18.773333" lengthAdjust="spacingAndGlyphs"><tspan font-family="Times New Roman" font-weight="normal" baseline-shift="0" font-size="13" fill="#000000">O</tspan><tspan font-family="Times New Roman" font-weight="normal" baseline-shift="0" font-size="13" fill="#000000">H</tspan></text><polygon points="892.335754,358.357330 892.335754,382.407410 891.746155,382.407410 891.156555,382.407410 891.156555,358.357330 891.746155,358.357330 " style="fill:rgb(0,0,0);fill-opacity:1.000000"/><polygon points="888.798157,358.357330 888.798157,382.407410 888.208557,382.407410 887.618958,382.407410 887.618958,358.357330 888.208557,358.357330 " style="fill:rgb(0,0,0);fill-opacity:1.000000"/><text xml:space="preserve" x="885.284058" y="393.973053" textLength="9.386666" lengthAdjust="spacingAndGlyphs"><tspan font-family="Times New Roman" font-weight="normal" baseline-shift="0" font-size="13" fill="#000000">O</tspan></text><polygon points="863.857056,344.298004 863.857056,321.609528 864.446655,321.609528 865.036255,321.609528 865.036255,344.298004 864.446655,344.638428 " style="fill:rgb(0,0,0);fill-opacity:1.000000"/></svg>