<?xml version="1.0" standalone='no'?><!-- IBoard SVG File --><svg xmlns="http://www.w3.org/2000/svg" xmlns:xlink="http://www.w3.org/1999/xlink" viewBox="484.26 285.76 133.28 95.17" height="88.17" width="140.28" version="1.1"><!-- SVG File --><text xml:space="preserve" x="544.706665" y="295.382782" textLength="22.673334" lengthAdjust="spacingAndGlyphs"><tspan font-family="Times New Roman" font-weight="normal" baseline-shift="0" font-size="13" fill="#000000">N</tspan><tspan font-family="Times New Roman" font-weight="normal" baseline-shift="0" font-size="13" fill="#000000">H</tspan><tspan font-family="Times New Roman" font-weight="normal" baseline-shift="-2" font-size="8" fill="#000000">2</tspan></text><polygon points="549.400024,322.119232 523.869324,336.859375 523.869324,336.178558 523.869324,335.497742 548.810425,321.097992 549.400024,321.438416 " style="fill:rgb(0,255,255);fill-opacity:1.000000"/><polygon points="523.869324,336.859375 503.916351,325.339539 504.211151,324.828918 504.505951,324.318298 523.869324,335.497742 523.869324,336.178558 " style="fill:rgb(0,255,255);fill-opacity:1.000000"/><text xml:space="preserve" x="484.258606" y="326.552612" textLength="18.773333" lengthAdjust="spacingAndGlyphs"><tspan font-family="Times New Roman" font-weight="normal" baseline-shift="0" font-size="13" fill="#00FFFF">H</tspan><tspan font-family="Times New Roman" font-weight="normal" baseline-shift="0" font-size="13" fill="#00FFFF">O</tspan></text><polygon points="549.989624,321.097992 574.930725,335.497742 574.930725,336.178558 574.930725,336.859375 549.400024,322.119232 549.400024,321.438416 " style="fill:rgb(0,0,0);fill-opacity:1.000000"/><polygon points="577.289124,335.157349 577.289124,359.207428 576.699524,359.207428 576.109924,359.207428 576.109924,335.157349 576.699524,335.157349 " style="fill:rgb(0,0,0);fill-opacity:1.000000"/><polygon points="573.751526,335.157349 573.751526,359.207428 573.161926,359.207428 572.572327,359.207428 572.572327,335.157349 573.161926,335.157349 " style="fill:rgb(0,0,0);fill-opacity:1.000000"/><text xml:space="preserve" x="570.237427" y="370.773071" textLength="9.386666" lengthAdjust="spacingAndGlyphs"><tspan font-family="Times New Roman" font-weight="normal" baseline-shift="0" font-size="13" fill="#000000">O</tspan></text><polygon points="574.930725,335.497742 594.294067,324.318329 594.588867,324.828949 594.883667,325.339569 574.930725,336.859375 574.930725,336.178558 " style="fill:rgb(0,0,0);fill-opacity:1.000000"/><text xml:space="preserve" x="595.768066" y="326.552612" textLength="18.773333" lengthAdjust="spacingAndGlyphs"><tspan font-family="Times New Roman" font-weight="normal" baseline-shift="0" font-size="13" fill="#000000">O</tspan><tspan font-family="Times New Roman" font-weight="normal" baseline-shift="0" font-size="13" fill="#000000">H</tspan></text><polygon points="548.810425,321.097992 548.810425,298.409546 549.400024,298.409546 549.989624,298.409546 549.989624,321.097992 549.400024,321.438416 " style="fill:rgb(0,0,0);fill-opacity:1.000000"/></svg>