<?xml version="1.0" standalone='no'?><!-- IBoard SVG File --><svg xmlns="http://www.w3.org/2000/svg" xmlns:xlink="http://www.w3.org/1999/xlink" viewBox="393.88 305.05 124.87 96.68" height="89.68" width="131.87" version="1.1"><!-- SVG File --><text xml:space="preserve" x="445.919647" y="387.446655" textLength="22.673334" lengthAdjust="spacingAndGlyphs"><tspan font-family="Times New Roman" font-weight="normal" baseline-shift="0" font-size="13" fill="#000000">N</tspan><tspan font-family="Times New Roman" font-weight="normal" baseline-shift="0" font-size="13" fill="#000000">H</tspan><tspan font-family="Times New Roman" font-weight="normal" baseline-shift="-2" font-size="8" fill="#000000">2</tspan></text><polygon points="451.202576,354.882080 451.202576,377.570526 450.612976,377.570526 450.023376,377.570526 450.023376,354.882080 450.612976,354.541656 " style="fill:rgb(0,0,0);fill-opacity:1.000000"/><polygon points="450.023376,354.882080 425.082275,340.482330 425.082275,339.801514 425.671875,339.461090 450.612976,353.860840 450.612976,354.541656 " style="fill:rgb(0,255,255);fill-opacity:1.000000"/><polygon points="424.492676,339.461090 424.492676,316.772644 425.082275,316.772644 425.671875,316.772644 425.671875,339.461090 425.082275,339.801514 " style="fill:rgb(0,255,255);fill-opacity:1.000000"/><text xml:space="preserve" x="420.388947" y="315.435394" textLength="18.773333" lengthAdjust="spacingAndGlyphs"><tspan font-family="Times New Roman" font-weight="normal" baseline-shift="0" font-size="13" fill="#00FFFF">O</tspan><tspan font-family="Times New Roman" font-weight="normal" baseline-shift="0" font-size="13" fill="#00FFFF">H</tspan></text><polygon points="425.082275,340.482330 399.846375,355.052277 399.551575,354.541656 399.256775,354.031036 424.492676,339.461090 425.082275,339.801514 " style="fill:rgb(0,255,255);fill-opacity:1.000000"/><polygon points="450.612976,353.860840 476.143677,339.120697 476.143677,339.801514 476.143677,340.482330 451.202576,354.882080 450.612976,354.541656 " style="fill:rgb(0,0,0);fill-opacity:1.000000"/><polygon points="473.785248,340.822754 473.785248,316.772644 474.374847,316.772644 474.964447,316.772644 474.964447,340.822754 474.374847,340.822754 " style="fill:rgb(0,0,0);fill-opacity:1.000000"/><polygon points="477.322906,340.822754 477.322906,316.772644 477.912506,316.772644 478.502106,316.772644 478.502106,340.822754 477.912506,340.822754 " style="fill:rgb(0,0,0);fill-opacity:1.000000"/><text xml:space="preserve" x="471.450348" y="315.435394" textLength="9.386666" lengthAdjust="spacingAndGlyphs"><tspan font-family="Times New Roman" font-weight="normal" baseline-shift="0" font-size="13" fill="#000000">O</tspan></text><polygon points="476.143677,339.120697 496.096649,350.640533 495.801849,351.151154 495.507050,351.661774 476.143677,340.482330 476.143677,339.801514 " style="fill:rgb(0,0,0);fill-opacity:1.000000"/><text xml:space="preserve" x="496.981049" y="359.655853" textLength="18.773333" lengthAdjust="spacingAndGlyphs"><tspan font-family="Times New Roman" font-weight="normal" baseline-shift="0" font-size="13" fill="#000000">O</tspan><tspan font-family="Times New Roman" font-weight="normal" baseline-shift="0" font-size="13" fill="#000000">H</tspan></text></svg>