<?xml version="1.0" standalone='no'?><!-- IBoard SVG File --><svg xmlns="http://www.w3.org/2000/svg" xmlns:xlink="http://www.w3.org/1999/xlink" viewBox="504.29 182.21 178.51 117.65" height="110.65" width="185.51" version="1.1"><!-- SVG File --><text xml:space="preserve" x="588.785767" y="212.845535" textLength="22.673334" lengthAdjust="spacingAndGlyphs"><tspan font-family="Times New Roman" font-weight="normal" baseline-shift="0" font-size="13" fill="#000000">H</tspan><tspan font-family="Times New Roman" font-weight="normal" baseline-shift="-2" font-size="8" fill="#000000">2</tspan><tspan font-family="Times New Roman" font-weight="normal" baseline-shift="0" font-size="13" fill="#000000">N</tspan></text><polygon points="620.747375,234.994080 609.952881,216.165558 610.464417,215.872314 610.975952,215.579071 621.770447,234.407562 621.428223,234.996124 " style="fill:rgb(0,0,0);fill-opacity:1.000000"/><polygon points="621.766846,235.586761 606.949341,261.072540 606.610718,260.481903 606.272095,259.891266 620.747375,234.994110 621.428223,234.996124 " style="fill:rgb(0,255,255);fill-opacity:1.000000"/><polygon points="606.949341,261.072540 577.429138,260.982941 577.130493,260.392426 577.432678,259.803741 606.272095,259.891266 606.610718,260.481903 " style="fill:rgb(0,255,255);fill-opacity:1.000000"/><polygon points="557.915588,279.678925 572.281799,260.031128 572.757751,260.379150 573.233704,260.727173 558.867493,280.374969 558.391541,280.026947 " style="fill:rgb(0,255,255);fill-opacity:1.000000"/><polygon points="559.507080,283.496002 576.401733,260.390198 577.130493,260.392426 577.429138,260.982941 559.953247,284.883575 559.730164,284.189789 " style="fill:rgb(0,255,255);fill-opacity:1.000000"/><polygon points="559.953247,284.883575 537.409119,277.482880 537.593018,276.922699 537.776917,276.362518 559.507080,283.496002 559.730164,284.189789 " style="fill:rgb(0,255,255);fill-opacity:1.000000"/><text xml:space="preserve" x="517.640503" y="280.109070" textLength="18.773333" lengthAdjust="spacingAndGlyphs"><tspan font-family="Times New Roman" font-weight="normal" baseline-shift="0" font-size="13" fill="#00FFFF">H</tspan><tspan font-family="Times New Roman" font-weight="normal" baseline-shift="0" font-size="13" fill="#00FFFF">N</tspan></text><polygon points="531.150391,268.541626 531.219360,245.775406 531.809753,245.514664 532.398071,245.944824 532.329590,268.545227 531.739990,268.543427 " style="fill:rgb(0,255,255);fill-opacity:1.000000"/><polygon points="560.506653,236.357742 577.432678,259.803741 577.130493,260.392426 576.401733,260.390228 559.647644,237.182388 559.874939,236.489975 " style="fill:rgb(0,255,255);fill-opacity:1.000000"/><polygon points="621.770447,234.407562 650.569702,234.494934 650.908325,235.085571 651.246948,235.676208 621.766846,235.586761 621.428223,234.996124 " style="fill:rgb(0,0,0);fill-opacity:1.000000"/><polygon points="652.446350,233.026642 663.918396,253.036362 663.406921,253.329620 662.895447,253.622879 651.423401,233.613159 651.934875,233.319901 " style="fill:rgb(0,0,0);fill-opacity:1.000000"/><polygon points="649.377380,234.786118 660.849426,254.795914 660.337952,255.089172 659.826477,255.382431 648.354431,235.372635 648.865906,235.079376 " style="fill:rgb(0,0,0);fill-opacity:1.000000"/><text xml:space="preserve" x="660.877930" y="265.775055" textLength="9.386666" lengthAdjust="spacingAndGlyphs"><tspan font-family="Times New Roman" font-weight="normal" baseline-shift="0" font-size="13" fill="#000000">O</tspan></text><polygon points="650.569702,234.494934 661.465332,215.754822 661.975037,216.051178 662.484741,216.347534 651.246948,235.676208 650.908325,235.085571 " style="fill:rgb(0,0,0);fill-opacity:1.000000"/><text xml:space="preserve" x="661.032593" y="214.713913" textLength="18.773333" lengthAdjust="spacingAndGlyphs"><tspan font-family="Times New Roman" font-weight="normal" baseline-shift="0" font-size="13" fill="#000000">O</tspan><tspan font-family="Times New Roman" font-weight="normal" baseline-shift="0" font-size="13" fill="#000000">H</tspan></text><polygon points="510.610016,225.513672 531.953369,244.849152 531.809753,245.514664 531.219360,245.775406 509.313751,225.930481 509.961884,225.722076 " style="fill:rgb(0,255,255);fill-opacity:1.000000"/><polygon points="559.370361,236.032898 565.443726,207.880951 566.091858,207.672516 566.739990,207.464081 560.506653,236.357742 559.874939,236.489975 " style="fill:rgb(0,255,255);fill-opacity:1.000000"/><polygon points="544.387207,187.214478 566.739990,207.464081 566.091858,207.672516 565.443726,207.880951 544.099976,188.545502 544.243591,187.879990 " style="fill:rgb(0,255,255);fill-opacity:1.000000"/><polygon points="543.778015,191.436096 562.598877,208.486069 562.203003,208.923035 561.807129,209.360001 542.986267,192.310028 543.382141,191.873062 " style="fill:rgb(0,255,255);fill-opacity:1.000000"/><polygon points="544.099976,188.545502 516.683044,197.361923 516.178467,196.904846 515.673889,196.447769 544.387207,187.214478 544.243591,187.879990 " style="fill:rgb(0,255,255);fill-opacity:1.000000"/><polygon points="509.313751,225.930481 515.673889,196.447769 516.178467,196.904846 516.683044,197.361923 510.610016,225.513672 509.961884,225.722076 " style="fill:rgb(0,255,255);fill-opacity:1.000000"/><polygon points="513.274292,224.347244 518.629456,199.523041 519.205811,199.647369 519.782166,199.771698 514.427002,224.595901 513.850647,224.471573 " style="fill:rgb(0,255,255);fill-opacity:1.000000"/><polygon points="559.647644,237.182388 532.398071,245.944809 531.809753,245.514664 531.953369,244.849152 559.370361,236.032898 559.874939,236.489975 " style="fill:rgb(0,255,255);fill-opacity:1.000000"/><polygon points="557.028076,234.308716 532.851685,242.082916 532.671204,241.521622 532.490723,240.960327 556.667114,233.186127 556.847595,233.747421 " style="fill:rgb(0,255,255);fill-opacity:1.000000"/></svg>