<?xml version="1.0" standalone='no'?><!-- IBoard SVG File --><svg xmlns="http://www.w3.org/2000/svg" xmlns:xlink="http://www.w3.org/1999/xlink" viewBox="478.42 295.35 178.56 99.97" height="92.97" width="185.56" version="1.1"><!-- SVG File --><text xml:space="preserve" x="562.960205" y="381.038086" textLength="22.673334" lengthAdjust="spacingAndGlyphs"><tspan font-family="Times New Roman" font-weight="normal" baseline-shift="0" font-size="13" fill="#000000">H</tspan><tspan font-family="Times New Roman" font-weight="normal" baseline-shift="-2" font-size="8" fill="#000000">2</tspan><tspan font-family="Times New Roman" font-weight="normal" baseline-shift="0" font-size="13" fill="#000000">N</tspan></text><polygon points="596.020752,352.672272 585.175537,371.456757 584.664917,371.161957 584.154297,370.867157 594.999512,352.082672 595.680359,352.082672 " style="fill:rgb(0,0,0);fill-opacity:1.000000"/><polygon points="594.999512,352.082642 580.599792,327.141541 580.940186,326.551941 581.280579,325.962341 596.020752,351.493073 595.680359,352.082672 " style="fill:rgb(0,255,255);fill-opacity:1.000000"/><polygon points="580.599792,327.141541 551.800232,327.141541 551.459839,326.551941 551.800232,325.962341 581.280579,325.962341 580.940186,326.551941 " style="fill:rgb(0,255,255);fill-opacity:1.000000"/><polygon points="551.800232,327.141541 537.060120,352.672272 536.719727,352.082672 536.379333,351.493073 550.778992,326.551941 551.459839,326.551941 " style="fill:rgb(0,255,255);fill-opacity:1.000000"/><polygon points="547.885559,326.846741 535.187927,348.839874 534.677307,348.545074 534.166687,348.250275 546.864319,326.257141 547.374939,326.551941 " style="fill:rgb(0,255,255);fill-opacity:1.000000"/><polygon points="537.060120,352.672272 507.579865,352.672272 507.239441,352.082672 507.579865,351.493073 536.379333,351.493073 536.719727,352.082672 " style="fill:rgb(0,255,255);fill-opacity:1.000000"/><polygon points="507.579865,352.672272 496.734589,371.456757 496.223969,371.161957 495.713348,370.867157 506.558624,352.082672 507.239441,352.082672 " style="fill:rgb(0,255,255);fill-opacity:1.000000"/><text xml:space="preserve" x="478.419189" y="382.727600" textLength="18.773333" lengthAdjust="spacingAndGlyphs"><tspan font-family="Times New Roman" font-weight="normal" baseline-shift="0" font-size="13" fill="#00FFFF">H</tspan><tspan font-family="Times New Roman" font-weight="normal" baseline-shift="0" font-size="13" fill="#00FFFF">O</tspan></text><polygon points="506.558624,352.082672 491.818390,326.551941 492.499207,326.551941 493.180023,326.551941 507.579865,351.493073 507.239441,352.082672 " style="fill:rgb(0,255,255);fill-opacity:1.000000"/><polygon points="508.771271,348.839844 496.073517,326.846741 496.584137,326.551941 497.094757,326.257141 509.792511,348.250244 509.281891,348.545044 " style="fill:rgb(0,255,255);fill-opacity:1.000000"/><polygon points="491.818390,326.551941 506.899017,300.431671 507.239441,301.021271 507.579865,301.610870 493.180023,326.551941 492.499207,326.551941 " style="fill:rgb(0,255,255);fill-opacity:1.000000"/><polygon points="506.899017,300.431671 537.060120,300.431671 536.719727,301.021271 536.379333,301.610870 507.579865,301.610870 507.239441,301.021271 " style="fill:rgb(0,255,255);fill-opacity:1.000000"/><polygon points="509.281891,303.969299 534.677246,303.969299 534.677246,304.558899 534.677246,305.148499 509.281891,305.148499 509.281891,304.558899 " style="fill:rgb(0,255,255);fill-opacity:1.000000"/><polygon points="537.060120,300.431671 551.800232,325.962341 551.459839,326.551941 550.778992,326.551910 536.379333,301.610870 536.719727,301.021271 " style="fill:rgb(0,255,255);fill-opacity:1.000000"/><polygon points="596.020752,351.493073 625.501038,351.493073 625.160645,352.082672 624.820251,352.672272 596.020752,352.672272 595.680359,352.082672 " style="fill:rgb(0,0,0);fill-opacity:1.000000"/><polygon points="625.501038,351.493073 636.686707,370.867096 636.176086,371.161896 635.665466,371.456696 624.820251,352.672272 625.160645,352.082672 " style="fill:rgb(0,0,0);fill-opacity:1.000000"/><text xml:space="preserve" x="635.207520" y="382.727539" textLength="18.773333" lengthAdjust="spacingAndGlyphs"><tspan font-family="Times New Roman" font-weight="normal" baseline-shift="0" font-size="13" fill="#000000">O</tspan><tspan font-family="Times New Roman" font-weight="normal" baseline-shift="0" font-size="13" fill="#000000">H</tspan></text><polygon points="622.607544,351.787872 634.133667,331.824188 634.644287,332.118988 635.154907,332.413788 623.628784,352.377472 623.118164,352.082672 " style="fill:rgb(0,0,0);fill-opacity:1.000000"/><polygon points="625.671265,353.556702 637.197388,333.592987 637.708008,333.887787 638.218628,334.182587 626.692505,354.146301 626.181885,353.851501 " style="fill:rgb(0,0,0);fill-opacity:1.000000"/><text xml:space="preserve" x="635.207581" y="331.666138" textLength="9.386666" lengthAdjust="spacingAndGlyphs"><tspan font-family="Times New Roman" font-weight="normal" baseline-shift="0" font-size="13" fill="#000000">O</tspan></text></svg>