<svg width="948" height="353" xmlns="http://www.w3.org/2000/svg" xmlns:xlink="http://www.w3.org/1999/xlink" overflow="hidden"><g transform="translate(-3 -225)"><path d="M525.5 265.833 684.847 265.833 684.847 267.167 525.5 267.167ZM677.183 261.258 686.17 266.5 677.183 271.743C676.865 271.928 676.456 271.821 676.271 271.503 676.085 271.185 676.193 270.776 676.511 270.591L684.511 265.924 684.511 267.076 676.511 262.409C676.193 262.224 676.085 261.816 676.271 261.498 676.456 261.18 676.865 261.072 677.183 261.258Z"/><text font-family="FZShuSong-Z01,FZShuSong-Z01_MSFontService,sans-serif" font-weight="400" font-size="21" transform="translate(223.1 357)">凹刻上部</text><text fill="#0000FF" font-family="FZShuSong-Z01,FZShuSong-Z01_MSFontService,sans-serif" font-weight="400" font-size="21" transform="translate(164.6 559)">胚根鞘</text><text fill="#0000FF" font-family="FZShuSong-Z01,FZShuSong-Z01_MSFontService,sans-serif" font-weight="400" font-size="21" transform="translate(167.933 513)">胚根原始体</text><text font-family="FZShuSong-Z01,FZShuSong-Z01_MSFontService,sans-serif" font-weight="400" font-size="21" transform="translate(16.9333 270)">合子</text><path d="M67.5041 261.833 176.017 262.492 176.009 263.825 67.496 263.167ZM168.381 257.87 177.337 263.167 168.318 268.355C167.999 268.538 167.591 268.428 167.407 268.109 167.224 267.79 167.334 267.382 167.653 267.199L175.681 262.581 175.674 263.733 167.703 259.017C167.386 258.83 167.281 258.421 167.468 258.104 167.656 257.787 168.064 257.682 168.381 257.87Z"/><text font-family="FZShuSong-Z01,FZShuSong-Z01_MSFontService,sans-serif" font-weight="400" font-size="21" transform="translate(74.1845 252)">斜向分裂</text><text font-family="Times New Roman,Times New Roman_MSFontService,sans-serif" font-weight="400" font-size="21" transform="translate(182.571 268)">2</text><text font-family="FZShuSong-Z01,FZShuSong-Z01_MSFontService,sans-serif" font-weight="400" font-size="21" transform="translate(193.237 268)">个细胞</text><path d="M265.5 262.833 377.013 262.833 377.013 264.167 265.5 264.167ZM369.349 258.258 378.336 263.5 369.349 268.743C369.031 268.928 368.623 268.821 368.437 268.503 368.252 268.185 368.359 267.776 368.677 267.591L376.677 262.924 376.677 264.076 368.677 259.409C368.359 259.224 368.252 258.816 368.438 258.498 368.623 258.18 369.031 258.072 369.349 258.258Z"/><text font-family="FZShuSong-Z01,FZShuSong-Z01_MSFontService,sans-serif" font-weight="400" font-size="21" transform="translate(285.011 251)">斜向分裂</text><text font-family="FZShuSong-Z01,FZShuSong-Z01_MSFontService,sans-serif" font-weight="400" font-size="21" transform="translate(375.389 269)">原胚（</text><text font-family="Times New Roman,Times New Roman_MSFontService,sans-serif" font-weight="400" font-size="21" transform="translate(439.389 269)">4</text><text font-family="FZShuSong-Z01,FZShuSong-Z01_MSFontService,sans-serif" font-weight="400" font-size="21" transform="translate(450.056 269)">个细胞）</text><text font-family="FZShuSong-Z01,FZShuSong-Z01_MSFontService,sans-serif" font-weight="400" font-size="21" transform="translate(544.934 255)">各个方向分裂</text><text font-family="FZShuSong-Z01,FZShuSong-Z01_MSFontService,sans-serif" font-weight="400" font-size="21" transform="translate(695.282 270)">棍棒状胚（</text><text font-family="Times New Roman,Times New Roman_MSFontService,sans-serif" font-weight="400" font-size="21" transform="translate(801.948 270)">16</text><text font-family="Times New Roman,Times New Roman_MSFontService,sans-serif" font-weight="400" font-size="21" transform="translate(823.282 270)">-</text><text font-family="Times New Roman,Times New Roman_MSFontService,sans-serif" font-weight="400" font-size="21" transform="translate(830.448 270)">32</text><text font-family="FZShuSong-Z01,FZShuSong-Z01_MSFontService,sans-serif" font-weight="400" font-size="21" transform="translate(851.782 270)">个细胞）</text><path d="M19.5001 401.833 172.348 401.833 172.348 403.167 19.5001 403.167ZM164.683 397.258 173.67 402.5 164.683 407.743C164.365 407.928 163.956 407.821 163.771 407.503 163.585 407.185 163.693 406.776 164.011 406.591L172.011 401.924 172.011 403.076 164.011 398.409C163.693 398.224 163.585 397.816 163.771 397.498 163.956 397.18 164.365 397.072 164.683 397.258Z"/><text font-family="FZShuSong-Z01,FZShuSong-Z01_MSFontService,sans-serif" font-weight="400" font-size="21" transform="translate(181.551 408)">小型凹刻</text><text font-family="FZShuSong-Z01,FZShuSong-Z01_MSFontService,sans-serif" font-weight="400" font-size="21" transform="translate(45.6439 393)">胚体一侧</text><path d="M0.530316-0.403991 53.5638 69.2127 52.5032 70.0206-0.530316 0.403991ZM52.5595 60.3431 53.8353 70.6691 44.2189 66.6969C43.8786 66.5564 43.7167 66.1665 43.8572 65.8262 43.9978 65.4859 44.3876 65.324 44.7279 65.4646L53.288 69.0005 52.3718 69.6984 51.2362 60.5066C51.1911 60.1412 51.4507 59.8084 51.8161 59.7633 52.1815 59.7181 52.5143 59.9777 52.5595 60.3431Z" transform="matrix(1 0 0 -1 295.5 401.167)"/><text fill="#0000FF" font-family="FZShuSong-Z01,FZShuSong-Z01_MSFontService,sans-serif" font-weight="400" font-size="21" transform="translate(358.061 340)">盾片（子叶）</text><path d="M295.519 400.834 348.033 402.297 347.995 403.63 295.482 402.166ZM340.499 397.509 349.337 403 340.207 407.99C339.884 408.167 339.479 408.048 339.302 407.725 339.125 407.402 339.244 406.997 339.567 406.82L347.694 402.378 347.662 403.53 339.795 398.642C339.482 398.448 339.386 398.037 339.581 397.724 339.775 397.411 340.186 397.315 340.499 397.509Z"/><text font-family="FZShuSong-Z01,FZShuSong-Z01_MSFontService,sans-serif" font-weight="400" font-size="21" transform="translate(358.061 408)">胚体主轴生长点</text><path d="M0.439892-0.500938 45.9482 39.4616 45.0684 40.4634-0.439892 0.500938ZM43.2084 30.966 46.5023 40.8353 36.29 38.8445C35.9286 38.7741 35.6928 38.424 35.7632 38.0626 35.8337 37.7012 36.1838 37.4654 36.5451 37.5358L45.6356 39.3079 44.8757 40.1733 41.9437 31.3881C41.8271 31.0388 42.0158 30.6612 42.365 30.5446 42.7143 30.4281 43.0919 30.6167 43.2084 30.966Z" transform="matrix(1 0 0 -1 520.5 398.333)"/><text fill="#0000FF" font-family="FZShuSong-Z01,FZShuSong-Z01_MSFontService,sans-serif" font-weight="400" font-size="21" transform="translate(568.038 357)">胚芽鞘原始体</text><path d="M520.5 401.833 565.68 401.833 565.68 403.167 520.5 403.167ZM558.016 397.258 567.003 402.5 558.016 407.743C557.698 407.928 557.29 407.821 557.104 407.503 556.919 407.185 557.026 406.776 557.344 406.591L565.344 401.924 565.344 403.076 557.344 398.409C557.026 398.224 556.919 397.816 557.104 397.498 557.29 397.18 557.698 397.072 558.016 397.258Z"/><text font-family="FZShuSong-Z01,FZShuSong-Z01_MSFontService,sans-serif" font-weight="400" font-size="21" transform="translate(568.038 404)">胚芽生长点</text><path d="M520.991 405.049 558.763 446.078 557.782 446.981 520.01 405.952ZM556.939 437.34 559.169 447.502 549.225 444.441C548.873 444.333 548.675 443.96 548.784 443.608 548.892 443.256 549.265 443.059 549.617 443.167L558.469 445.892 557.622 446.672 555.636 437.625C555.557 437.266 555.785 436.91 556.145 436.831 556.504 436.752 556.86 436.98 556.939 437.34Z"/><text font-family="FZShuSong-Z01,FZShuSong-Z01_MSFontService,sans-serif" font-weight="400" font-size="21" transform="translate(568.038 448)">第一片真叶原基</text><path d="M747.5 395.5C753.023 395.5 757.5 396.246 757.5 397.167L757.5 423.833C757.5 424.754 761.977 425.5 767.5 425.5 761.977 425.5 757.5 426.246 757.5 427.167L757.5 453.833C757.5 454.754 753.023 455.5 747.5 455.5" stroke="#000000" stroke-width="1.33333" stroke-miterlimit="8" fill="none" fill-rule="evenodd"/><text fill="#0000FF" font-family="FZShuSong-Z01,FZShuSong-Z01_MSFontService,sans-serif" font-weight="400" font-size="21" transform="translate(776.147 430)">胚芽</text><text fill="#0000FF" font-family="FZShuSong-Z01,FZShuSong-Z01_MSFontService,sans-serif" font-weight="400" font-size="21" transform="translate(361.629 472)">外胚叶</text><path d="M295.988 401.046 348.922 457.913 347.946 458.822 295.012 401.954ZM347.05 449.185 349.336 459.336 339.375 456.329C339.022 456.223 338.823 455.851 338.929 455.498 339.036 455.146 339.408 454.946 339.76 455.053L348.627 457.729 347.784 458.514 345.749 449.478C345.668 449.119 345.894 448.762 346.253 448.682 346.612 448.601 346.969 448.826 347.05 449.185Z"/><text font-family="FZShuSong-Z01,FZShuSong-Z01_MSFontService,sans-serif" font-weight="400" font-size="21" transform="translate(217.397 451)">凹刻下部</text><path d="M19.9677 402.025 146.36 526.432 145.424 527.382 19.0324 402.975ZM144.108 517.795 146.836 527.836 136.753 525.267C136.396 525.177 136.181 524.814 136.272 524.457 136.362 524.1 136.725 523.884 137.082 523.975L146.057 526.261 145.249 527.082 142.821 518.144C142.725 517.789 142.935 517.423 143.29 517.326 143.645 517.23 144.012 517.44 144.108 517.795Z"/><text font-family="FZShuSong-Z01,FZShuSong-Z01_MSFontService,sans-serif" font-weight="400" font-size="21" transform="translate(81.1496 460)">胚体下方</text><path d="M162.5 553.5C159.186 553.5 156.5 553.052 156.5 552.5L156.5 528.5C156.5 527.948 153.814 527.5 150.5 527.5 153.814 527.5 156.5 527.052 156.5 526.5L156.5 502.5C156.5 501.948 159.186 501.5 162.5 501.5" stroke="#000000" stroke-width="1.33333" stroke-miterlimit="8" fill="none" fill-rule="evenodd"/></g></svg>