<svg width="906" height="429" xmlns="http://www.w3.org/2000/svg" xmlns:xlink="http://www.w3.org/1999/xlink" overflow="hidden"><g transform="translate(-21 -204)"><path d="M0.0115627-0.666566 162.024 2.1438 162.001 3.47693-0.0115627 0.666566ZM154.442-2.56427 163.336 2.83333 154.26 7.91919C153.938 8.09917 153.532 7.98468 153.352 7.66348 153.172 7.34227 153.287 6.93598 153.608 6.75601L161.688 2.22879 161.668 3.38033 153.75-1.42439C153.435-1.6154 153.335-2.02541 153.526-2.34018 153.717-2.65495 154.127-2.75528 154.442-2.56427Z" transform="matrix(1 0 0 -1 407.5 237.333)"/><path d="M461.5 321.833 592.348 321.833 592.348 323.167 461.5 323.167ZM584.683 317.258 593.67 322.5 584.683 327.743C584.365 327.928 583.956 327.821 583.771 327.503 583.585 327.185 583.693 326.776 584.011 326.591L592.011 321.924 592.011 323.076 584.011 318.409C583.693 318.224 583.585 317.816 583.771 317.498 583.956 317.18 584.365 317.072 584.683 317.258Z"/><path d="M0.00446668-0.666652 98.1842-0.00883064 98.1753 1.32447-0.00446668 0.666652ZM90.5512-4.63593 99.503 0.666687 90.4809 5.84887C90.1617 6.03226 89.7542 5.9221 89.5708 5.60283 89.3874 5.28356 89.4976 4.87608 89.8168 4.69269L97.8479 0.0797323 97.8402 1.23141 89.8717-3.48875C89.5549-3.6764 89.4502-4.08532 89.6378-4.4021 89.8255-4.71889 90.2344-4.82358 90.5512-4.63593Z" transform="matrix(1 0 0 -1 714.5 315.167)"/><path d="M324.5 379.833 474.347 379.833 474.347 381.167 324.5 381.167ZM466.683 375.258 475.67 380.5 466.683 385.743C466.365 385.928 465.956 385.821 465.771 385.503 465.585 385.185 465.693 384.776 466.011 384.591L474.011 379.924 474.011 381.076 466.011 376.409C465.693 376.224 465.585 375.816 465.771 375.498 465.956 375.18 466.365 375.072 466.683 375.258Z"/><path d="M25.5001 381.833 217.596 381.833 217.596 383.167 25.5001 383.167ZM209.932 377.258 218.919 382.5 209.932 387.743C209.614 387.928 209.206 387.821 209.02 387.503 208.835 387.185 208.942 386.776 209.26 386.591L217.26 381.924 217.26 383.076 209.26 378.409C208.942 378.224 208.835 377.816 209.02 377.498 209.206 377.18 209.614 377.072 209.932 377.258Z"/><text font-family="FZShuSong-Z01,FZShuSong-Z01_MSFontService,sans-serif" font-weight="400" font-size="21" transform="translate(40.018 292)">合子</text><path d="M99.5095 285.833 204.19 287.315 204.171 288.648 99.4906 287.167ZM196.591 282.631 205.503 288 196.443 293.115C196.122 293.296 195.715 293.183 195.534 292.862 195.353 292.541 195.467 292.135 195.787 291.954L203.852 287.401 203.836 288.552 195.903 283.773C195.588 283.583 195.486 283.173 195.676 282.858 195.866 282.543 196.276 282.441 196.591 282.631Z"/><text font-family="FZShuSong-Z01,FZShuSong-Z01_MSFontService,sans-serif" font-weight="400" font-size="21" transform="translate(108.191 279)">横向分裂</text><path d="M227.5 307.5C221.425 307.5 216.5 306.679 216.5 305.667L216.5 277.833C216.5 276.821 211.575 276 205.5 276 211.575 276 216.5 275.179 216.5 274.167L216.5 246.333C216.5 245.321 221.425 244.5 227.5 244.5" stroke="#000000" stroke-width="1.33333" stroke-miterlimit="8" fill="none" fill-rule="evenodd"/><text font-family="FZShuSong-Z01,FZShuSong-Z01_MSFontService,sans-serif" font-weight="400" font-size="21" transform="translate(229.035 246)">基细胞（珠孔端）</text><text font-family="FZShuSong-Z01,FZShuSong-Z01_MSFontService,sans-serif" font-weight="400" font-size="21" transform="translate(232.564 322)">顶端细胞（远离珠孔端）</text><text font-family="FZShuSong-Z01,FZShuSong-Z01_MSFontService,sans-serif" font-weight="400" font-size="21" transform="translate(419.386 231)">连续横向分裂</text><text font-family="FZShuSong-Z01,FZShuSong-Z01_MSFontService,sans-serif" font-weight="400" font-size="21" transform="translate(579.901 244)">胚柄（</text><text font-family="Times New Roman,Times New Roman_MSFontService,sans-serif" font-weight="400" font-size="21" transform="translate(643.901 244)">6</text><text font-family="Times New Roman,Times New Roman_MSFontService,sans-serif" font-weight="400" font-size="21" transform="translate(654.567 244)">-</text><text font-family="Times New Roman,Times New Roman_MSFontService,sans-serif" font-weight="400" font-size="21" transform="translate(661.734 244)">10</text><text font-family="FZShuSong-Z01,FZShuSong-Z01_MSFontService,sans-serif" font-weight="400" font-size="21" transform="translate(683.067 244)">个细胞）</text><text font-family="Times New Roman,Times New Roman_MSFontService,sans-serif" font-weight="400" font-size="21" transform="translate(484.392 313)">2</text><text font-family="FZShuSong-Z01,FZShuSong-Z01_MSFontService,sans-serif" font-weight="400" font-size="21" transform="translate(495.059 313)">次纵分裂</text><text font-family="FZShuSong-Z01,FZShuSong-Z01_MSFontService,sans-serif" font-weight="400" font-size="21" transform="translate(599.569 322)">四分体时期</text><text font-family="FZShuSong-Z01,FZShuSong-Z01_MSFontService,sans-serif" font-weight="400" font-size="21" transform="translate(718.747 308)">横向分裂</text><text font-family="FZShuSong-Z01,FZShuSong-Z01_MSFontService,sans-serif" font-weight="400" font-size="21" transform="translate(822.59 323)">八分体</text><text font-family="FZShuSong-Z01,FZShuSong-Z01_MSFontService,sans-serif" font-weight="400" font-size="21" transform="translate(34.3508 373)">平周及各方向分裂</text><text font-family="FZShuSong-Z01,FZShuSong-Z01_MSFontService,sans-serif" font-weight="400" font-size="21" transform="translate(236.703 385)">一团组织</text><text font-family="FZShuSong-Z01,FZShuSong-Z01_MSFontService,sans-serif" font-weight="400" font-size="21" transform="translate(339.212 370)">顶端两侧分裂</text><text font-family="FZShuSong-Z01,FZShuSong-Z01_MSFontService,sans-serif" font-weight="400" font-size="21" transform="translate(483.225 384)">子叶</text><path d="M533.5 375.833 717.349 375.833 717.349 377.167 533.5 377.167ZM709.683 371.258 718.67 376.5 709.683 381.743C709.365 381.928 708.956 381.821 708.771 381.503 708.585 381.185 708.693 380.776 709.011 380.591L717.011 375.924 717.011 377.076 709.011 372.409C708.693 372.224 708.585 371.816 708.771 371.498 708.956 371.18 709.365 371.072 709.683 371.258Z"/><text font-family="FZShuSong-Z01,FZShuSong-Z01_MSFontService,sans-serif" font-weight="400" font-size="21" transform="translate(730.915 383)">胚芽</text><text font-family="FZShuSong-Z01,FZShuSong-Z01_MSFontService,sans-serif" font-weight="400" font-size="21" transform="translate(536.563 366)">中间凹陷部分分化</text><text font-family="FZShuSong-Z01,FZShuSong-Z01_MSFontService,sans-serif" font-weight="400" font-size="27" transform="translate(262.891 467)">胚柄顶端</text><text font-family="Times New Roman,Times New Roman_MSFontService,sans-serif" font-weight="400" font-size="27" transform="translate(369.557 467)">1</text><text font-family="FZShuSong-Z01,FZShuSong-Z01_MSFontService,sans-serif" font-weight="400" font-size="27" transform="translate(382.891 467)">个细胞</text><text font-family="FZShuSong-Z01,FZShuSong-Z01_MSFontService,sans-serif" font-weight="400" font-size="27" transform="translate(251.267 523)">球形胚体的基部细胞</text><path d="M480.64 462.848 570.016 482.071 569.736 483.374 480.36 464.152ZM563.486 475.986 571.17 483.001 561.281 486.236C560.931 486.351 560.555 486.16 560.44 485.81 560.326 485.46 560.517 485.084 560.867 484.969L569.669 482.089 569.427 483.215 562.587 476.97C562.315 476.722 562.296 476.3 562.544 476.029 562.792 475.757 563.214 475.737 563.486 475.986Z"/><path d="M0.268628-0.61015 74.3939 32.0247 73.8566 33.245-0.268628 0.61015ZM69.2233 24.7485 75.3362 33.168 64.9984 34.3447C64.6326 34.3863 64.3023 34.1235 64.2606 33.7577 64.219 33.3919 64.4818 33.0616 64.8476 33.0199L74.0498 31.9724 73.5858 33.0265 68.1444 25.5319C67.9281 25.234 67.9942 24.8171 68.2922 24.6008 68.5901 24.3844 69.007 24.4506 69.2233 24.7485Z" transform="matrix(1 0 0 -1 495.5 515.667)"/><text font-family="FZShuSong-Z01,FZShuSong-Z01_MSFontService,sans-serif" font-weight="400" font-size="27" transform="translate(576.6 491)">胚根</text><text font-family="FZShuSong-Z01,FZShuSong-Z01_MSFontService,sans-serif" font-weight="400" font-size="27" transform="translate(243.6 605)">胚根与子叶间部分</text><path d="M461.5 598.833 558.347 598.833 558.347 600.167 461.5 600.167ZM550.683 594.258 559.67 599.5 550.683 604.743C550.365 604.928 549.956 604.821 549.771 604.503 549.585 604.185 549.693 603.776 550.011 603.591L558.011 598.924 558.011 600.076 550.011 595.409C549.693 595.224 549.585 594.816 549.771 594.498 549.956 594.18 550.365 594.072 550.683 594.258Z"/><text font-family="FZShuSong-Z01,FZShuSong-Z01_MSFontService,sans-serif" font-weight="400" font-size="27" transform="translate(565.267 608)">胚轴</text></g></svg>