<?xml version="1.0" standalone='no'?><!-- IBoard SVG File --><svg xmlns="http://www.w3.org/2000/svg" xmlns:xlink="http://www.w3.org/1999/xlink" viewBox="5.21 -45.62 125.09 104.77" height="97.77" width="132.09" version="1.1"><!-- SVG File --><text xml:space="preserve" x="39.867748" y="34.037827" textLength="9.386666" lengthAdjust="spacingAndGlyphs"><tspan font-family="Times New Roman" font-weight="normal" baseline-shift="0" font-size="13" fill="#000000">N</tspan></text><text xml:space="preserve" x="14.270090" y="-10.597748" textLength="9.386666" lengthAdjust="spacingAndGlyphs"><tspan font-family="Times New Roman" font-weight="normal" baseline-shift="0" font-size="13" fill="#000000">N</tspan></text><polygon points="44.745106,-30.709394 70.095970,-15.510175 70.017929,-14.869507 69.422791,-14.538866 44.722637,-29.347948 44.733871,-30.028671 " style="fill:rgb(0,0,0);fill-opacity:1.000000"/><polygon points="69.592926,15.251350 50.726891,26.068127 50.433624,25.556627 50.140358,25.045128 68.947548,14.262092 69.531540,14.606903 " style="fill:rgb(0,0,0);fill-opacity:1.000000"/><polygon points="38.392277,26.020472 17.881805,14.100469 18.477036,13.764450 19.072266,13.428432 38.984798,25.000933 38.688538,25.510702 " style="fill:rgb(0,0,0);fill-opacity:1.000000"/><polygon points="40.169842,22.961855 21.752161,12.258111 22.048422,11.748342 22.344683,11.238572 40.762363,21.942316 40.466103,22.452085 " style="fill:rgb(0,0,0);fill-opacity:1.000000"/><polygon points="17.881805,14.100469 18.267443,-9.270212 18.856968,-9.260485 19.446493,-9.250757 19.072266,13.428432 18.477036,13.764450 " style="fill:rgb(0,0,0);fill-opacity:1.000000"/><polygon points="24.549635,-19.489838 44.745106,-30.709394 44.733871,-30.028671 44.722637,-29.347948 25.122305,-18.459019 24.835970,-18.974428 " style="fill:rgb(0,0,0);fill-opacity:1.000000"/><polygon points="26.267647,-16.397377 44.380142,-26.459742 44.666477,-25.944332 44.952812,-25.428923 26.840317,-15.366556 26.553982,-15.881967 " style="fill:rgb(0,0,0);fill-opacity:1.000000"/><polygon points="70.095970,-15.510174 92.156464,-22.277634 92.329384,-21.713955 92.502304,-21.150276 70.600388,-14.431459 70.017929,-14.869507 " style="fill:rgb(0,0,0);fill-opacity:1.000000"/><text xml:space="preserve" x="93.508598" y="-18.401272" textLength="9.386666" lengthAdjust="spacingAndGlyphs"><tspan font-family="Times New Roman" font-weight="normal" baseline-shift="0" font-size="13" fill="#000000">N</tspan></text><text xml:space="preserve" x="92.721458" y="29.292381" textLength="9.386666" lengthAdjust="spacingAndGlyphs"><tspan font-family="Times New Roman" font-weight="normal" baseline-shift="0" font-size="13" fill="#000000">N</tspan></text><text xml:space="preserve"/><text xml:space="preserve" x="92.721458" y="40.994926" textLength="9.386666" lengthAdjust="spacingAndGlyphs"><tspan font-family="Times New Roman" font-weight="normal" baseline-shift="0" font-size="13" fill="#000000">H</tspan></text><polygon points="91.350815,22.720024 69.592926,15.251350 69.531540,14.606903 70.128128,14.188314 91.733673,21.604691 91.542244,22.162357 " style="fill:rgb(0,0,0);fill-opacity:1.000000"/><polygon points="68.947548,14.262093 69.422791,-14.538867 70.017929,-14.869507 70.600388,-14.431458 70.128128,14.188315 69.531540,14.606903 " style="fill:rgb(0,0,0);fill-opacity:1.000000"/><polygon points="72.521576,12.085652 72.923157,-12.250959 73.512680,-12.241232 74.102203,-12.231504 73.700623,12.105107 73.111099,12.095380 " style="fill:rgb(0,0,0);fill-opacity:1.000000"/><polygon points="115.862793,0.629328 102.737923,18.081110 102.266708,17.726725 101.795494,17.372339 114.405411,0.605284 115.134102,0.617306 " style="fill:rgb(0,0,0);fill-opacity:1.000000"/><polygon points="103.211098,-17.402653 115.862793,0.629326 115.134102,0.617306 114.405411,0.605286 102.245781,-16.725365 102.728439,-17.064009 " style="fill:rgb(0,0,0);fill-opacity:1.000000"/><polygon points="100.315163,-15.370791 111.244591,0.206504 110.761932,0.545147 110.279274,0.883791 99.349846,-14.693505 99.832504,-15.032148 " style="fill:rgb(0,0,0);fill-opacity:1.000000"/><text xml:space="preserve" x="40.632462" y="46.145878" textLength="6.500000" lengthAdjust="spacingAndGlyphs"><tspan font-family="Times New Roman" font-weight="normal" baseline-shift="0" font-size="13" fill="#000000">3</tspan></text><text xml:space="preserve" x="5.577789" y="19.597462" textLength="6.500000" lengthAdjust="spacingAndGlyphs"><tspan font-family="Times New Roman" font-weight="normal" baseline-shift="0" font-size="13" fill="#000000">2</tspan></text><text xml:space="preserve" x="5.212769" y="-14.452558" textLength="6.500000" lengthAdjust="spacingAndGlyphs"><tspan font-family="Times New Roman" font-weight="normal" baseline-shift="0" font-size="13" fill="#000000">1</tspan></text><text xml:space="preserve" x="40.632492" y="-33.669201" textLength="6.500000" lengthAdjust="spacingAndGlyphs"><tspan font-family="Times New Roman" font-weight="normal" baseline-shift="0" font-size="13" fill="#000000">6</tspan></text><text xml:space="preserve" x="66.555565" y="-19.953495" textLength="6.500000" lengthAdjust="spacingAndGlyphs"><tspan font-family="Times New Roman" font-weight="normal" baseline-shift="0" font-size="13" fill="#000000">5</tspan></text><text xml:space="preserve" x="66.555565" y="30.195881" textLength="6.500000" lengthAdjust="spacingAndGlyphs"><tspan font-family="Times New Roman" font-weight="normal" baseline-shift="0" font-size="13" fill="#000000">4</tspan></text><text xml:space="preserve" x="111.132828" y="-19.953495" textLength="6.500000" lengthAdjust="spacingAndGlyphs"><tspan font-family="Times New Roman" font-weight="normal" baseline-shift="0" font-size="13" fill="#000000">7</tspan></text><text xml:space="preserve" x="120.803383" y="4.647460" textLength="6.500000" lengthAdjust="spacingAndGlyphs"><tspan font-family="Times New Roman" font-weight="normal" baseline-shift="0" font-size="13" fill="#000000">8</tspan></text><text xml:space="preserve" x="107.932823" y="36.579834" textLength="6.500000" lengthAdjust="spacingAndGlyphs"><tspan font-family="Times New Roman" font-weight="normal" baseline-shift="0" font-size="13" fill="#000000">9</tspan></text></svg>