<?xml version="1.0" standalone='no'?><!-- IBoard SVG File --><svg xmlns="http://www.w3.org/2000/svg" xmlns:xlink="http://www.w3.org/1999/xlink" viewBox="249.57 175.10 76.97 104.77" height="97.77" width="83.97" version="1.1"><!-- SVG File --><polygon points="289.097626,190.006454 314.965607,205.515717 314.370453,205.846344 313.775299,206.176971 289.075165,191.367905 289.086395,190.687180 " style="fill:rgb(0,0,0);fill-opacity:1.000000"/><polygon points="314.965607,205.515717 314.468079,235.667572 313.884064,235.322754 313.300049,234.977936 313.775299,206.176971 314.370453,205.846344 " style="fill:rgb(0,0,0);fill-opacity:1.000000"/><polygon points="311.389130,207.839920 310.969604,233.263626 310.380066,233.253891 309.790527,233.244156 310.210052,207.820450 310.799591,207.830185 " style="fill:rgb(0,0,0);fill-opacity:1.000000"/><polygon points="314.468079,235.667557 295.079407,246.783997 294.786133,246.272491 294.492859,245.760986 313.300049,234.977951 313.884064,235.322754 " style="fill:rgb(0,0,0);fill-opacity:1.000000"/><text xml:space="preserve" x="284.220276" y="254.753677" textLength="9.386666" lengthAdjust="spacingAndGlyphs"><tspan font-family="Times New Roman" font-weight="normal" baseline-shift="0" font-size="13" fill="#000000">N</tspan></text><polygon points="282.744812,246.736328 262.234314,234.816315 262.829559,234.480301 263.424805,234.144287 283.337341,245.716797 283.041077,246.226563 " style="fill:rgb(0,0,0);fill-opacity:1.000000"/><polygon points="284.522369,243.677719 266.104675,232.973953 266.400940,232.464188 266.697205,231.954422 285.114899,242.658188 284.818634,243.167953 " style="fill:rgb(0,0,0);fill-opacity:1.000000"/><polygon points="262.234314,234.816315 262.619965,211.445633 263.209503,211.455368 263.799042,211.465103 263.424805,234.144287 262.829559,234.480301 " style="fill:rgb(0,0,0);fill-opacity:1.000000"/><text xml:space="preserve" x="258.622620" y="210.118103" textLength="9.386666" lengthAdjust="spacingAndGlyphs"><tspan font-family="Times New Roman" font-weight="normal" baseline-shift="0" font-size="13" fill="#000000">N</tspan></text><polygon points="268.902130,201.226028 289.097626,190.006454 289.086395,190.687180 289.075165,191.367905 269.474823,202.256851 269.188477,201.741440 " style="fill:rgb(0,0,0);fill-opacity:1.000000"/><polygon points="270.620148,204.318497 288.732666,194.256119 289.019012,194.771530 289.305359,195.286942 271.192841,205.349319 270.906494,204.833908 " style="fill:rgb(0,0,0);fill-opacity:1.000000"/><text xml:space="preserve" x="284.984985" y="266.861725" textLength="6.500000" lengthAdjust="spacingAndGlyphs"><tspan font-family="Times New Roman" font-weight="normal" baseline-shift="0" font-size="13" fill="#000000">1</tspan></text><text xml:space="preserve" x="249.930313" y="240.313309" textLength="6.500000" lengthAdjust="spacingAndGlyphs"><tspan font-family="Times New Roman" font-weight="normal" baseline-shift="0" font-size="13" fill="#000000">2</tspan></text><text xml:space="preserve" x="249.565292" y="206.263290" textLength="6.500000" lengthAdjust="spacingAndGlyphs"><tspan font-family="Times New Roman" font-weight="normal" baseline-shift="0" font-size="13" fill="#000000">3</tspan></text><text xml:space="preserve" x="284.985016" y="187.046646" textLength="6.500000" lengthAdjust="spacingAndGlyphs"><tspan font-family="Times New Roman" font-weight="normal" baseline-shift="0" font-size="13" fill="#000000">4</tspan></text><text xml:space="preserve" x="317.039734" y="206.263321" textLength="6.500000" lengthAdjust="spacingAndGlyphs"><tspan font-family="Times New Roman" font-weight="normal" baseline-shift="0" font-size="13" fill="#000000">5</tspan></text><text xml:space="preserve" x="317.039734" y="240.313309" textLength="6.500000" lengthAdjust="spacingAndGlyphs"><tspan font-family="Times New Roman" font-weight="normal" baseline-shift="0" font-size="13" fill="#000000">6</tspan></text></svg>