<?xml version="1.0" standalone='no'?><!-- IBoard SVG File --><svg xmlns="http://www.w3.org/2000/svg" xmlns:xlink="http://www.w3.org/1999/xlink" viewBox="264.60 -51.79 148.61 113.90" height="106.90" width="155.61" version="1.1"><!-- SVG File --><text xml:space="preserve" x="328.944580" y="-41.400085" textLength="9.386666" lengthAdjust="spacingAndGlyphs"><tspan font-family="Times New Roman" font-weight="normal" baseline-shift="0" font-size="13" fill="#000000">O</tspan></text><text xml:space="preserve" x="264.596527" y="45.351322" textLength="22.673334" lengthAdjust="spacingAndGlyphs"><tspan font-family="Times New Roman" font-weight="normal" baseline-shift="0" font-size="13" fill="#000000">H</tspan><tspan font-family="Times New Roman" font-weight="normal" baseline-shift="-2" font-size="8" fill="#000000">2</tspan><tspan font-family="Times New Roman" font-weight="normal" baseline-shift="0" font-size="13" fill="#000000">N</tspan></text><text xml:space="preserve" x="382.512726" y="-6.289520" textLength="9.386666" lengthAdjust="spacingAndGlyphs"><tspan font-family="Times New Roman" font-weight="normal" baseline-shift="0" font-size="13" fill="#000000">N</tspan></text><text xml:space="preserve" x="382.512726" y="41.410614" textLength="9.386666" lengthAdjust="spacingAndGlyphs"><tspan font-family="Times New Roman" font-weight="normal" baseline-shift="0" font-size="13" fill="#000000">N</tspan></text><text xml:space="preserve"/><text xml:space="preserve" x="382.512726" y="53.113159" textLength="9.386666" lengthAdjust="spacingAndGlyphs"><tspan font-family="Times New Roman" font-weight="normal" baseline-shift="0" font-size="13" fill="#000000">H</tspan></text><text xml:space="preserve" x="328.944580" y="47.040833" textLength="9.386666" lengthAdjust="spacingAndGlyphs"><tspan font-family="Times New Roman" font-weight="normal" baseline-shift="0" font-size="13" fill="#000000">N</tspan></text><text xml:space="preserve" x="294.027191" y="2.820404" textLength="18.773333" lengthAdjust="spacingAndGlyphs"><tspan font-family="Times New Roman" font-weight="normal" baseline-shift="0" font-size="13" fill="#000000">H</tspan><tspan font-family="Times New Roman" font-weight="normal" baseline-shift="0" font-size="13" fill="#000000">N</tspan></text><polygon points="333.637909,-17.714783 359.236115,-2.935657 359.168640,-2.293793 358.579041,-1.953381 333.637909,-16.353149 333.637909,-17.033966 " style="fill:rgb(0,0,0);fill-opacity:1.000000"/><polygon points="359.236115,27.828358 339.805237,39.046749 339.510437,38.536137 339.215637,38.025524 358.579041,26.846081 359.168640,27.186493 " style="fill:rgb(0,0,0);fill-opacity:1.000000"/><polygon points="311.939667,24.633419 329.829010,34.961834 329.534210,35.472446 329.239410,35.983059 311.350067,25.654648 311.644867,25.144033 " style="fill:rgb(0,0,0);fill-opacity:1.000000"/><polygon points="308.696808,26.846081 328.060181,38.025520 327.765381,38.536133 327.470581,39.046745 308.107208,27.867310 308.107208,27.186493 " style="fill:rgb(0,0,0);fill-opacity:1.000000"/><polygon points="307.517609,26.846081 307.517609,4.157667 308.107208,4.157667 308.696808,4.157667 308.696808,26.846081 308.107208,27.186493 " style="fill:rgb(0,0,0);fill-opacity:1.000000"/><polygon points="359.236115,-2.935658 381.151337,-10.056363 381.333527,-9.495614 381.515717,-8.934865 359.758240,-1.865420 359.168640,-2.293793 " style="fill:rgb(0,0,0);fill-opacity:1.000000"/><polygon points="381.151337,34.949062 359.236115,27.828360 359.168640,27.186493 359.758240,26.758120 381.515717,33.827564 381.333527,34.388313 " style="fill:rgb(0,0,0);fill-opacity:1.000000"/><polygon points="359.758240,-1.865420 359.758240,26.758120 359.168640,27.186493 358.579041,26.846081 358.579041,-1.953381 359.168640,-2.293793 " style="fill:rgb(0,0,0);fill-opacity:1.000000"/><polygon points="356.220612,-0.251342 356.220612,25.144041 355.631012,25.144041 355.041412,25.144041 355.041412,-0.251342 355.631012,-0.251342 " style="fill:rgb(0,0,0);fill-opacity:1.000000"/><polygon points="405.262939,12.446350 392.370300,30.191519 391.893311,29.844957 391.416321,29.498396 403.805359,12.446350 404.534149,12.446350 " style="fill:rgb(0,0,0);fill-opacity:1.000000"/><polygon points="399.684418,12.792912 388.554321,-2.526324 389.031311,-2.872886 389.508301,-3.219448 400.638397,12.099788 400.161407,12.446350 " style="fill:rgb(0,0,0);fill-opacity:1.000000"/><polygon points="403.805359,12.446344 391.416321,-4.605695 391.893311,-4.952257 392.370300,-5.298819 405.262939,12.446356 404.534149,12.446350 " style="fill:rgb(0,0,0);fill-opacity:1.000000"/><polygon points="335.996338,-40.062820 335.996338,-16.012732 335.406738,-16.012732 334.817139,-16.012732 334.817139,-40.062820 335.406738,-40.062820 " style="fill:rgb(0,0,0);fill-opacity:1.000000"/><polygon points="332.458679,-40.062820 332.458679,-16.012732 331.869080,-16.012732 331.279480,-16.012732 331.279480,-40.062820 331.869080,-40.062820 " style="fill:rgb(0,0,0);fill-opacity:1.000000"/><polygon points="313.684937,-6.194916 333.637909,-17.714783 333.637909,-17.033966 333.637909,-16.353149 314.274536,-5.173688 313.979736,-5.684302 " style="fill:rgb(0,0,0);fill-opacity:1.000000"/><polygon points="308.107208,27.867310 288.743866,39.046741 288.449066,38.536129 288.154266,38.025517 307.517609,26.846081 308.107208,27.186493 " style="fill:rgb(0,0,0);fill-opacity:1.000000"/></svg>