<?xml version="1.0" standalone='no'?><!-- IBoard SVG File --><svg xmlns="http://www.w3.org/2000/svg" xmlns:xlink="http://www.w3.org/1999/xlink" viewBox="427.39 206.87 392.17 94.25" height="87.25" width="399.17" version="1.1"><!-- SVG File --><polygon points="466.999969,255.682465 491.940948,241.282776 492.530670,241.623123 492.530670,242.303940 466.999969,257.044098 466.999969,256.363281 " style="fill:rgb(0,0,0);fill-opacity:1.000000"/><polygon points="466.999969,257.044098 447.046997,245.524246 447.341797,245.013626 447.636597,244.503006 466.999969,255.682465 466.999969,256.363281 " style="fill:rgb(0,255,255);fill-opacity:1.000000"/><text xml:space="preserve" x="427.389252" y="246.737320" textLength="18.773333" lengthAdjust="spacingAndGlyphs"><tspan font-family="Times New Roman" font-weight="normal" baseline-shift="0" font-size="13" fill="#00FFFF">H</tspan><tspan font-family="Times New Roman" font-weight="normal" baseline-shift="0" font-size="13" fill="#00FFFF">O</tspan></text><polygon points="493.120148,241.282623 518.061401,255.682465 518.061401,256.363281 518.061401,257.044098 492.530670,242.303940 492.530670,241.623123 " style="fill:rgb(0,0,0);fill-opacity:1.000000"/><polygon points="518.061401,255.682465 537.424744,244.503036 537.719543,245.013657 538.014343,245.524277 518.061401,257.044098 518.061401,256.363281 " style="fill:rgb(0,255,255);fill-opacity:1.000000"/><text xml:space="preserve" x="538.898743" y="246.737335" textLength="18.773333" lengthAdjust="spacingAndGlyphs"><tspan font-family="Times New Roman" font-weight="normal" baseline-shift="0" font-size="13" fill="#00FFFF">O</tspan><tspan font-family="Times New Roman" font-weight="normal" baseline-shift="0" font-size="13" fill="#00FFFF">H</tspan></text><polygon points="491.940948,241.282776 491.931976,218.594498 492.521576,218.594269 493.111176,218.594040 493.120148,241.282623 492.530670,241.623123 " style="fill:rgb(0,0,0);fill-opacity:1.000000"/><text xml:space="preserve" x="487.825714" y="217.257004" textLength="18.773333" lengthAdjust="spacingAndGlyphs"><tspan font-family="Times New Roman" font-weight="normal" baseline-shift="0" font-size="13" fill="#000000">O</tspan><tspan font-family="Times New Roman" font-weight="normal" baseline-shift="0" font-size="13" fill="#000000">H</tspan></text><line x1="563.34137" y1="234.45155" x2="628.90863" y2="234.45155" style="stroke:rgb(0,0,0);stroke-width:1.179213;stroke-opacity:1.000000" stroke-linecap="butt"/><polygon points="638.931946,234.451553 627.139832,231.503525 628.908630,234.451553 627.139832,237.399582 " style="fill:rgb(0,0,0);fill-opacity:1.000000"/><text xml:space="preserve" x="644.601257" y="246.737244" textLength="18.773333" lengthAdjust="spacingAndGlyphs"><tspan font-family="Times New Roman" font-weight="normal" baseline-shift="0" font-size="13" fill="#00FFFF">H</tspan><tspan font-family="Times New Roman" font-weight="normal" baseline-shift="0" font-size="13" fill="#00FFFF">O</tspan></text><text xml:space="preserve" x="756.110718" y="246.737305" textLength="9.386666" lengthAdjust="spacingAndGlyphs"><tspan font-family="Times New Roman" font-weight="normal" baseline-shift="0" font-size="13" fill="#00FFFF">O</tspan></text><text xml:space="preserve" x="705.037659" y="217.256882" textLength="18.773333" lengthAdjust="spacingAndGlyphs"><tspan font-family="Times New Roman" font-weight="normal" baseline-shift="0" font-size="13" fill="#000000">O</tspan><tspan font-family="Times New Roman" font-weight="normal" baseline-shift="0" font-size="13" fill="#000000">H</tspan></text><polygon points="684.211975,255.682617 709.152954,241.282715 709.742676,241.623047 709.742676,242.303909 684.211975,257.044250 684.211975,256.363403 " style="fill:rgb(0,0,0);fill-opacity:1.000000"/><polygon points="684.211975,257.044250 664.258972,245.524292 664.553772,245.013672 664.848572,244.503052 684.211975,255.682617 684.211975,256.363403 " style="fill:rgb(0,255,255);fill-opacity:1.000000"/><polygon points="710.332153,241.282578 735.273376,255.682587 735.273376,256.363403 735.273376,257.044220 709.742737,242.303879 709.742676,241.623047 " style="fill:rgb(0,0,0);fill-opacity:1.000000"/><polygon points="735.273376,255.682587 754.636719,244.503036 754.931519,245.013657 755.226318,245.524277 735.273376,257.044220 735.273376,256.363403 " style="fill:rgb(0,255,255);fill-opacity:1.000000"/><polygon points="709.152954,241.282715 709.143982,218.594391 709.733582,218.594147 710.323181,218.593903 710.332153,241.282593 709.742676,241.623047 " style="fill:rgb(0,0,0);fill-opacity:1.000000"/><polygon points="766.971375,244.502945 781.835449,253.084671 781.540649,253.595291 781.245850,254.105911 766.381775,245.524185 766.676575,245.013565 " style="fill:rgb(255,0,0);fill-opacity:1.000000"/><text xml:space="preserve" x="782.719849" y="261.477386" textLength="16.616667" lengthAdjust="spacingAndGlyphs"><tspan font-family="Times New Roman" font-weight="normal" baseline-shift="0" font-size="13" fill="#FF0000">P</tspan><tspan font-family="Times New Roman" font-weight="normal" baseline-shift="0" font-size="13" fill="#FF0000">H</tspan></text><polygon points="796.329773,247.869263 804.813782,242.970993 805.108582,243.481613 805.403381,243.992233 796.919373,248.890503 796.624573,248.379883 " style="fill:rgb(255,0,0);fill-opacity:1.000000"/><polygon points="798.098572,250.932953 806.582581,246.034683 806.877380,246.545303 807.172180,247.055923 798.688171,251.954193 798.393372,251.443573 " style="fill:rgb(255,0,0);fill-opacity:1.000000"/><text xml:space="preserve" x="807.172180" y="246.737137" textLength="9.386666" lengthAdjust="spacingAndGlyphs"><tspan font-family="Times New Roman" font-weight="normal" baseline-shift="0" font-size="13" fill="#FF0000">O</tspan></text><polygon points="786.927002,262.814392 786.933594,279.391815 786.343994,279.392059 785.754395,279.392303 785.747803,262.814880 786.337402,262.814636 " style="fill:rgb(255,0,0);fill-opacity:1.000000"/><text xml:space="preserve" x="781.653198" y="290.957703" textLength="18.773333" lengthAdjust="spacingAndGlyphs"><tspan font-family="Times New Roman" font-weight="normal" baseline-shift="0" font-size="13" fill="#FF0000">O</tspan><tspan font-family="Times New Roman" font-weight="normal" baseline-shift="0" font-size="13" fill="#FF0000">H</tspan></text></svg>