<svg width="440" height="64" xmlns="http://www.w3.org/2000/svg" xmlns:xlink="http://www.w3.org/1999/xlink" overflow="hidden"><g transform="translate(-39 -82)"><text font-family="FZShuSong-Z01,FZShuSong-Z01_MSFontService,sans-serif" font-weight="400" font-size="16" transform="translate(49.6838 116)">精原干细胞</text><text font-family="FZShuSong-Z01,FZShuSong-Z01_MSFontService,sans-serif" font-weight="400" font-size="16" transform="translate(206.01 116)">精原细胞</text><text font-family="FZShuSong-Z01,FZShuSong-Z01_MSFontService,sans-serif" font-weight="400" font-size="16" transform="translate(435.666 130)">精子</text><text font-family="FZShuSong-Z01,FZShuSong-Z01_MSFontService,sans-serif" font-weight="400" font-size="16" transform="translate(329.398 101)">精原细胞</text><text font-family="FZShuSong-Z01,FZShuSong-Z01_MSFontService,sans-serif" font-weight="400" font-size="16" transform="translate(329.32 130)">精细胞</text><path d="M140.5 111.833 195.416 111.833 195.416 113.167 140.5 113.167ZM187.751 107.258 196.739 112.5 187.751 117.743C187.433 117.928 187.025 117.821 186.84 117.503 186.654 117.185 186.762 116.776 187.08 116.591L195.08 111.924 195.08 113.076 187.08 108.409C186.762 108.224 186.654 107.816 186.84 107.498 187.025 107.18 187.433 107.072 187.751 107.258Z"/><path d="M0.230946-0.625386 38.3681 13.4581 37.9062 14.7089-0.230946 0.625386ZM32.7638 6.51062 39.3783 14.5419 29.1315 16.3464C28.7689 16.4103 28.4232 16.1681 28.3593 15.8055 28.2955 15.4429 28.5377 15.0971 28.9003 15.0333L38.0215 13.4269 37.6226 14.5073 31.7346 7.35827C31.5005 7.07407 31.5411 6.65392 31.8253 6.41985 32.1095 6.18577 32.5297 6.22641 32.7638 6.51062Z" transform="matrix(1 0 0 -1 280.5 112.041)"/><path d="M280.731 111.875 318.868 125.958 318.406 127.209 280.269 113.125ZM313.264 119.01 319.878 127.042 309.632 128.846C309.269 128.91 308.923 128.668 308.859 128.305 308.796 127.943 309.038 127.597 309.4 127.533L318.522 125.927 318.123 127.007 312.235 119.858C312.001 119.574 312.041 119.154 312.325 118.92 312.61 118.686 313.03 118.726 313.264 119.01Z"/><path d="M0.00269733-0.666661 37.501-0.514942 37.4956 0.818381-0.00269733 0.666661ZM29.8556-5.12177 38.8215 0.157073 29.8131 5.36319C29.4944 5.54742 29.0866 5.43834 28.9024 5.11956 28.7181 4.80078 28.8272 4.393 29.146 4.20877L37.1648-0.425487 37.1601 0.726208 29.1791-3.97279C28.8618-4.15959 28.756-4.56824 28.9428-4.88552 29.1296-5.2028 29.5383-5.30857 29.8556-5.12177Z" transform="matrix(1 0 0 -1 387.5 126.657)"/><text font-family="FZShuSong-Z01,FZShuSong-Z01_MSFontService,sans-serif" font-weight="400" font-size="9" transform="translate(145.898 107)">有丝分裂</text><text font-family="FZShuSong-Z01,FZShuSong-Z01_MSFontService,sans-serif" font-weight="400" font-size="9" transform="translate(393.343 121)">变形</text><text font-family="FZShuSong-Z01,FZShuSong-Z01_MSFontService,sans-serif" font-weight="400" font-size="9" transform="translate(266.205 97)">有丝分裂</text><text font-family="FZShuSong-Z01,FZShuSong-Z01_MSFontService,sans-serif" font-weight="400" font-size="9" transform="translate(266.736 130)">减数分裂</text></g></svg>