<?xml version="1.0" standalone='no'?><!-- IBoard SVG File --><svg xmlns="http://www.w3.org/2000/svg" xmlns:xlink="http://www.w3.org/1999/xlink" viewBox="228.74 204.74 329.12 168.84" height="161.84" width="336.12" version="1.1"><!-- SVG File --><polygon points="447.038910,209.811920 472.581146,224.531998 472.581665,225.212814 472.582184,225.893631 447.039948,211.173553 447.039429,210.492737 " style="fill:rgb(0,0,0);fill-opacity:1.000000"/><polygon points="267.757782,342.833618 267.757813,313.353180 268.347412,313.693604 268.937012,314.034027 268.936981,342.833466 268.347382,343.173889 " style="fill:rgb(0,0,0);fill-opacity:1.000000"/><polygon points="344.939453,358.594940 319.408813,343.854767 319.408813,343.173950 319.998413,342.833527 344.939453,357.233307 344.939453,357.914124 " style="fill:rgb(0,0,0);fill-opacity:1.000000"/><polygon points="344.644653,354.339813 322.651672,341.642120 322.946472,341.131500 323.241272,340.620880 345.234253,353.318573 344.939453,353.829193 " style="fill:rgb(0,0,0);fill-opacity:1.000000"/><polygon points="396.158905,299.543243 371.059875,314.034149 370.470276,313.693726 370.470276,313.012909 395.411316,298.613220 396.000916,298.953644 " style="fill:rgb(0,0,0);fill-opacity:1.000000"/><polygon points="293.878113,298.272675 319.998413,313.353210 319.408813,313.693634 318.819214,314.034058 293.878113,299.634308 293.878113,298.953491 " style="fill:rgb(0,0,0);fill-opacity:1.000000"/><polygon points="319.408813,343.854767 293.878082,358.594910 293.878082,357.914093 293.878082,357.233276 318.819214,342.833527 319.408813,343.173950 " style="fill:rgb(0,0,0);fill-opacity:1.000000"/><polygon points="318.819214,342.833527 318.819214,314.034058 319.408813,313.693634 319.998413,313.353210 319.998413,342.833527 319.408813,343.173950 " style="fill:rgb(0,0,0);fill-opacity:1.000000"/><polygon points="344.349976,299.293945 344.350037,269.132782 344.939636,269.473206 345.529236,269.813629 345.529175,298.613098 344.939575,298.953522 " style="fill:rgb(0,0,0);fill-opacity:1.000000"/><polygon points="344.350037,269.132782 370.470337,254.052277 370.470337,254.733093 370.470337,255.413910 345.529236,269.813629 344.939636,269.473206 " style="fill:rgb(0,0,0);fill-opacity:1.000000"/><polygon points="370.470337,254.052277 395.411194,268.451996 396.000977,269.473328 395.411377,269.813751 370.470337,255.413910 370.470337,254.733093 " style="fill:rgb(0,0,0);fill-opacity:1.000000"/><polygon points="371.059814,343.514465 344.939453,358.594940 344.939453,357.914124 344.939453,357.233307 369.880615,342.833618 370.470215,343.174042 " style="fill:rgb(0,0,0);fill-opacity:1.000000"/><text xml:space="preserve" x="228.742477" y="363.038330" textLength="18.773333" lengthAdjust="spacingAndGlyphs"><tspan font-family="Times New Roman" font-weight="normal" baseline-shift="0" font-size="13" fill="#000000">H</tspan><tspan font-family="Times New Roman" font-weight="normal" baseline-shift="0" font-size="13" fill="#000000">O</tspan></text><polygon points="369.880676,314.034149 344.349976,299.293945 344.939575,298.953522 345.529175,298.613098 370.470276,313.012909 370.470276,313.693726 " style="fill:rgb(0,0,0);fill-opacity:1.000000"/><polygon points="396.590393,268.452209 420.942078,254.392899 421.531799,254.733246 421.531799,255.414063 396.590576,269.813751 396.000977,269.473328 " style="fill:rgb(0,0,0);fill-opacity:1.000000"/><polygon points="447.652039,269.133118 447.651917,299.543457 447.062317,298.953857 446.472717,298.364258 446.472839,269.813965 447.062439,269.473541 " style="fill:rgb(0,0,0);fill-opacity:1.000000"/><polygon points="395.411316,298.613220 395.411377,269.813751 396.000977,269.473328 396.590576,269.813751 396.590515,298.364044 396.000916,298.953644 " style="fill:rgb(0,0,0);fill-opacity:1.000000"/><polygon points="268.347504,343.854797 248.990021,355.041016 248.695023,354.530518 248.400024,354.020020 267.757782,342.833618 268.347382,343.173889 " style="fill:rgb(0,0,0);fill-opacity:1.000000"/><polygon points="267.757813,313.353180 293.878113,298.272675 293.878113,298.953491 293.878113,299.634308 268.937012,314.034027 268.347412,313.693604 " style="fill:rgb(0,0,0);fill-opacity:1.000000"/><polygon points="293.878082,358.594910 268.347504,343.854797 268.347382,343.173889 268.936981,342.833466 293.878082,357.233276 293.878082,357.914093 " style="fill:rgb(0,0,0);fill-opacity:1.000000"/><polygon points="420.942078,254.392899 420.930847,225.593613 421.520325,225.252960 422.110046,225.592972 422.121277,254.392761 421.531799,254.733246 " style="fill:rgb(0,0,0);fill-opacity:1.000000"/><polygon points="395.411194,268.451996 395.405701,239.993118 395.995300,239.993011 396.584900,239.992905 396.590393,268.452209 396.000977,269.473328 " style="fill:rgb(0,0,0);fill-opacity:1.000000"/><polygon points="420.930847,225.593613 395.689209,211.033508 395.983826,210.522781 396.278442,210.012054 421.519928,224.572067 421.520325,225.252960 " style="fill:rgb(0,0,0);fill-opacity:1.000000"/><polygon points="421.519928,224.572067 447.038910,209.811920 447.039429,210.492737 447.039948,211.173553 422.110046,225.592987 421.520325,225.252960 " style="fill:rgb(0,0,0);fill-opacity:1.000000"/><polygon points="472.581146,224.531998 498.100250,209.771790 498.100769,210.452606 498.101288,211.133423 472.582184,225.893631 472.581665,225.212814 " style="fill:rgb(0,0,0);fill-opacity:1.000000"/><polygon points="498.100250,209.771790 523.642517,224.491898 523.643066,225.172714 523.643616,225.853531 498.101288,211.133423 498.100769,210.452606 " style="fill:rgb(0,0,0);fill-opacity:1.000000"/><polygon points="523.642517,224.491898 548.866882,209.902145 549.162109,210.412521 549.457336,210.922897 524.822510,225.171661 523.643066,225.172714 " style="fill:rgb(0,0,0);fill-opacity:1.000000"/><polygon points="524.822510,225.171661 549.482544,239.376846 549.188232,239.887756 548.893921,240.398666 522.463623,225.173767 523.643066,225.172714 " style="fill:rgb(0,0,0);fill-opacity:1.000000"/><polygon points="396.590515,298.364044 446.472717,298.364258 447.062317,298.953857 447.651917,299.543457 396.158905,299.543243 396.000916,298.953644 " style="fill:rgb(0,0,0);fill-opacity:1.000000"/><polygon points="317.050171,312.672394 317.044617,284.213745 317.634216,284.213623 318.223816,284.213501 318.229370,312.672150 317.639771,312.672272 " style="fill:rgb(0,0,0);fill-opacity:1.000000"/><polygon points="320.588043,313.693420 320.582275,284.213074 321.171875,284.212952 321.761475,284.212830 321.767242,313.693176 321.177643,313.693298 " style="fill:rgb(0,0,0);fill-opacity:1.000000"/><polygon points="371.059875,314.034149 371.059814,343.514465 370.470215,343.174042 369.880615,342.833618 369.880676,314.034149 370.470276,313.693726 " style="fill:rgb(0,0,0);fill-opacity:1.000000"/><polygon points="367.522247,315.736176 367.522186,341.131592 366.932587,341.131592 366.342987,341.131592 366.343048,315.736176 366.932648,315.736176 " style="fill:rgb(0,0,0);fill-opacity:1.000000"/><polygon points="422.121277,254.392761 447.652039,269.133118 447.062439,269.473541 446.472839,269.813965 421.531799,255.414063 421.531799,254.733246 " style="fill:rgb(0,0,0);fill-opacity:1.000000"/></svg>