<?xml version="1.0" standalone='no'?><!-- IBoard SVG File --><svg xmlns="http://www.w3.org/2000/svg" xmlns:xlink="http://www.w3.org/1999/xlink" viewBox="182.93 234.27 329.12 168.84" height="161.84" width="336.12" version="1.1"><!-- SVG File --><polygon points="221.944595,342.881805 248.064911,327.801270 248.064911,328.482086 248.064911,329.162903 223.123795,343.562653 222.534195,343.222229 " style="fill:rgb(0,0,0);fill-opacity:1.000000"/><polygon points="248.064911,327.801270 273.005798,342.200928 273.595612,343.222260 273.006012,343.562683 248.064911,329.162903 248.064911,328.482086 " style="fill:rgb(0,0,0);fill-opacity:1.000000"/><polygon points="273.595581,373.383392 248.064865,388.123535 248.064865,387.442719 248.064865,386.761902 273.005981,372.362152 273.595581,372.702576 " style="fill:rgb(0,0,0);fill-opacity:1.000000"/><polygon points="248.064865,388.123535 222.534302,373.383423 222.534164,372.702515 223.123764,372.362091 248.064865,386.761902 248.064865,387.442719 " style="fill:rgb(0,0,0);fill-opacity:1.000000"/><polygon points="221.944565,372.362274 221.944595,342.881805 222.534195,343.222229 223.123795,343.562653 223.123764,372.362091 222.534164,372.702515 " style="fill:rgb(0,0,0);fill-opacity:1.000000"/><polygon points="274.184998,342.201141 298.536743,328.141724 299.126343,328.482147 299.126343,329.162964 274.185211,343.562683 273.595612,343.222260 " style="fill:rgb(0,0,0);fill-opacity:1.000000"/><polygon points="325.246643,343.562775 325.246582,373.043091 324.656982,372.702667 324.067383,372.362244 324.067444,343.562775 324.657043,343.222351 " style="fill:rgb(0,0,0);fill-opacity:1.000000"/><polygon points="325.246582,373.043091 299.126251,388.123596 299.126251,387.442780 299.126251,386.761963 324.067383,372.362244 324.656982,372.702667 " style="fill:rgb(0,0,0);fill-opacity:1.000000"/><polygon points="299.126251,388.123596 273.595581,373.383392 273.595581,372.702576 274.185181,372.362152 299.126251,386.761963 299.126251,387.442780 " style="fill:rgb(0,0,0);fill-opacity:1.000000"/><polygon points="298.831451,383.868469 276.838440,371.170746 277.133240,370.660126 277.428040,370.149506 299.421051,382.847229 299.126251,383.357849 " style="fill:rgb(0,0,0);fill-opacity:1.000000"/><polygon points="273.005981,372.362152 273.006012,343.562683 273.595612,343.222260 274.185211,343.562683 274.185181,372.362152 273.595581,372.702576 " style="fill:rgb(0,0,0);fill-opacity:1.000000"/><polygon points="273.005798,342.200928 273.000214,313.742065 273.589813,313.741943 274.179413,313.741821 274.184998,342.201141 273.595612,343.222260 " style="fill:rgb(0,0,0);fill-opacity:1.000000"/><polygon points="222.534286,373.383423 203.176804,384.569641 202.881805,384.059143 202.586807,383.548645 221.944565,372.362274 222.534164,372.702515 " style="fill:rgb(0,0,0);fill-opacity:1.000000"/><text xml:space="preserve" x="182.929260" y="392.566925" textLength="18.773333" lengthAdjust="spacingAndGlyphs"><tspan font-family="Times New Roman" font-weight="normal" baseline-shift="0" font-size="13" fill="#000000">H</tspan><tspan font-family="Times New Roman" font-weight="normal" baseline-shift="0" font-size="13" fill="#000000">O</tspan></text><polygon points="298.536743,328.141724 298.536804,298.661407 299.126404,299.001831 299.716003,299.342255 299.715942,328.141724 299.126343,328.482147 " style="fill:rgb(0,0,0);fill-opacity:1.000000"/><polygon points="298.536804,298.661407 324.657135,283.580902 324.657135,284.261719 324.657135,284.942535 299.716003,299.342255 299.126404,299.001831 " style="fill:rgb(0,0,0);fill-opacity:1.000000"/><polygon points="324.657135,283.580902 349.597992,297.980621 350.187805,299.001953 349.598206,299.342377 324.657135,284.942535 324.657135,284.261719 " style="fill:rgb(0,0,0);fill-opacity:1.000000"/><polygon points="350.345703,329.071869 325.246643,343.562775 324.657043,343.222351 324.657043,342.541534 349.598114,328.141846 350.187714,328.482269 " style="fill:rgb(0,0,0);fill-opacity:1.000000"/><polygon points="324.067444,343.562775 299.126343,329.162964 299.126343,328.482147 299.715942,328.141724 324.657043,342.541534 324.657043,343.222351 " style="fill:rgb(0,0,0);fill-opacity:1.000000"/><polygon points="350.777191,297.980865 375.128876,283.921570 375.718597,284.261902 375.718597,284.942719 350.777405,299.342377 350.187805,299.001953 " style="fill:rgb(0,0,0);fill-opacity:1.000000"/><polygon points="376.308075,283.921417 401.838837,298.661743 401.249237,299.002167 400.659637,299.342590 375.718597,284.942719 375.718597,284.261902 " style="fill:rgb(0,0,0);fill-opacity:1.000000"/><polygon points="376.013367,287.836212 398.006378,300.533997 397.711578,301.044617 397.416779,301.555237 375.423767,288.857452 375.718567,288.346832 " style="fill:rgb(0,0,0);fill-opacity:1.000000"/><polygon points="401.838837,298.661743 401.838715,329.072083 401.249115,328.482483 400.659515,327.892883 400.659637,299.342590 401.249237,299.002167 " style="fill:rgb(0,0,0);fill-opacity:1.000000"/><polygon points="349.598114,328.141846 349.598206,299.342377 350.187805,299.001953 350.777405,299.342377 350.777313,327.892670 350.187714,328.482269 " style="fill:rgb(0,0,0);fill-opacity:1.000000"/><polygon points="350.777313,327.892670 400.659515,327.892883 401.249115,328.482483 401.838715,329.072083 350.345703,329.071869 350.187714,328.482269 " style="fill:rgb(0,0,0);fill-opacity:1.000000"/><polygon points="375.128876,283.921570 375.117615,255.122238 375.707092,254.781586 376.296814,255.121597 376.308075,283.921417 375.718597,284.261902 " style="fill:rgb(0,0,0);fill-opacity:1.000000"/><polygon points="349.597992,297.980621 349.592468,269.521759 350.182068,269.521637 350.771667,269.521515 350.777191,297.980835 350.187805,299.001953 " style="fill:rgb(0,0,0);fill-opacity:1.000000"/><polygon points="375.117615,255.122223 349.876007,240.562134 350.170624,240.051407 350.465240,239.540680 375.706696,254.100693 375.707092,254.781586 " style="fill:rgb(0,0,0);fill-opacity:1.000000"/><polygon points="375.706696,254.100693 401.225677,239.340546 401.226196,240.021362 401.226715,240.702179 376.296814,255.121613 375.707092,254.781586 " style="fill:rgb(0,0,0);fill-opacity:1.000000"/><polygon points="401.225677,239.340546 426.767944,254.060623 426.768463,254.741440 426.768982,255.422256 401.226715,240.702179 401.226196,240.021362 " style="fill:rgb(0,0,0);fill-opacity:1.000000"/><polygon points="426.767944,254.060623 452.287048,239.300415 452.287567,239.981232 452.288086,240.662048 426.768982,255.422256 426.768463,254.741440 " style="fill:rgb(0,0,0);fill-opacity:1.000000"/><polygon points="452.287048,239.300415 477.829315,254.020508 477.829834,254.701324 477.830353,255.382141 452.288086,240.662048 452.287567,239.981232 " style="fill:rgb(0,0,0);fill-opacity:1.000000"/><polygon points="477.829315,254.020508 503.053741,239.430756 503.348938,239.941132 503.644135,240.451508 479.009247,254.700272 477.829834,254.701324 " style="fill:rgb(0,0,0);fill-opacity:1.000000"/><polygon points="479.009247,254.700272 503.669312,268.905487 503.375000,269.416382 503.080688,269.927277 476.650421,254.702377 477.829834,254.701324 " style="fill:rgb(0,0,0);fill-opacity:1.000000"/></svg>