<?xml version="1.0" standalone='no'?><!-- IBoard SVG File --><svg xmlns="http://www.w3.org/2000/svg" xmlns:xlink="http://www.w3.org/1999/xlink" viewBox="199.26 -62.09 110.77 114.83" height="107.83" width="117.77" version="1.1"><!-- SVG File --><text xml:space="preserve" x="279.339539" y="-15.666054" textLength="9.386666" lengthAdjust="spacingAndGlyphs"><tspan font-family="Times New Roman" font-weight="normal" baseline-shift="0" font-size="13" fill="#000000">N</tspan></text><text xml:space="preserve" x="279.339539" y="32.034077" textLength="9.386666" lengthAdjust="spacingAndGlyphs"><tspan font-family="Times New Roman" font-weight="normal" baseline-shift="0" font-size="13" fill="#000000">N</tspan></text><text xml:space="preserve"/><text xml:space="preserve" x="279.339539" y="43.736622" textLength="9.386666" lengthAdjust="spacingAndGlyphs"><tspan font-family="Times New Roman" font-weight="normal" baseline-shift="0" font-size="13" fill="#000000">H</tspan></text><text xml:space="preserve" x="225.771378" y="37.664330" textLength="9.386666" lengthAdjust="spacingAndGlyphs"><tspan font-family="Times New Roman" font-weight="normal" baseline-shift="0" font-size="13" fill="#000000">N</tspan></text><text xml:space="preserve" x="200.240646" y="-6.556152" textLength="9.386666" lengthAdjust="spacingAndGlyphs"><tspan font-family="Times New Roman" font-weight="normal" baseline-shift="0" font-size="13" fill="#000000">N</tspan></text><polygon points="231.054321,-26.750917 256.062866,-12.312213 255.995422,-11.670341 255.405823,-11.329929 230.464722,-25.729689 230.464722,-26.410505 " style="fill:rgb(0,0,0);fill-opacity:1.000000"/><polygon points="256.062866,18.451843 236.632065,29.670225 236.337265,29.159611 236.042465,28.648996 255.405823,17.469559 255.995422,17.809971 " style="fill:rgb(0,0,0);fill-opacity:1.000000"/><polygon points="208.766418,15.256898 226.655777,25.585320 226.360977,26.095934 226.066177,26.606548 208.176819,16.278126 208.471619,15.767512 " style="fill:rgb(0,0,0);fill-opacity:1.000000"/><polygon points="205.523590,17.469555 224.886963,28.649004 224.592163,29.159618 224.297363,29.670233 204.344391,18.150379 204.933990,17.809967 " style="fill:rgb(0,0,0);fill-opacity:1.000000"/><polygon points="204.344391,18.150379 204.344391,-5.218890 204.933990,-5.218890 205.523590,-5.218890 205.523590,17.469555 204.933990,17.809967 " style="fill:rgb(0,0,0);fill-opacity:1.000000"/><polygon points="230.759521,-21.814980 212.870148,-11.486560 212.575348,-11.997174 212.280548,-12.507789 230.169922,-22.836208 230.464722,-22.325594 " style="fill:rgb(0,0,0);fill-opacity:1.000000"/><polygon points="230.464722,-25.729689 211.101334,-14.550245 210.806534,-15.060860 210.511734,-15.571474 229.875122,-26.750917 230.464722,-26.410505 " style="fill:rgb(0,0,0);fill-opacity:1.000000"/><polygon points="256.062866,-12.312211 277.978149,-19.432901 278.160339,-18.872152 278.342529,-18.311403 256.585022,-11.241967 255.995422,-11.670341 " style="fill:rgb(0,0,0);fill-opacity:1.000000"/><polygon points="277.978149,25.572531 256.062866,18.451841 255.995422,17.809971 256.585022,17.381598 278.342529,24.451033 278.160339,25.011782 " style="fill:rgb(0,0,0);fill-opacity:1.000000"/><polygon points="256.585022,-11.241967 256.585022,17.381598 255.995422,17.809971 255.405823,17.469559 255.405823,-11.329929 255.995422,-11.670341 " style="fill:rgb(0,0,0);fill-opacity:1.000000"/><polygon points="253.047379,-9.627882 253.047379,15.767511 252.457779,15.767511 251.868179,15.767511 251.868179,-9.627882 252.457779,-9.627882 " style="fill:rgb(0,0,0);fill-opacity:1.000000"/><polygon points="302.089783,3.069809 289.197113,20.814983 288.720123,20.468420 288.243134,20.121857 300.632202,3.069809 301.360992,3.069809 " style="fill:rgb(0,0,0);fill-opacity:1.000000"/><polygon points="296.511261,3.416372 285.381165,-11.902855 285.858154,-12.249417 286.335144,-12.595980 297.465240,2.723247 296.988251,3.069810 " style="fill:rgb(0,0,0);fill-opacity:1.000000"/><polygon points="300.632202,3.069803 288.243164,-13.982228 288.720154,-14.328791 289.197144,-14.675353 302.089783,3.069814 301.360992,3.069809 " style="fill:rgb(0,0,0);fill-opacity:1.000000"/><polygon points="229.875122,-26.750917 229.875137,-49.439354 230.464737,-49.439354 231.054337,-49.439354 231.054321,-26.750917 230.464722,-26.410505 " style="fill:rgb(0,0,0);fill-opacity:1.000000"/><text xml:space="preserve" x="225.771408" y="-52.466125" textLength="22.673334" lengthAdjust="spacingAndGlyphs"><tspan font-family="Times New Roman" font-weight="normal" baseline-shift="0" font-size="13" fill="#000000">N</tspan><tspan font-family="Times New Roman" font-weight="normal" baseline-shift="0" font-size="13" fill="#000000">H</tspan><tspan font-family="Times New Roman" font-weight="normal" baseline-shift="-2" font-size="8" fill="#000000">2</tspan></text></svg>