<svg width="388" height="351" xmlns="http://www.w3.org/2000/svg" xmlns:xlink="http://www.w3.org/1999/xlink" overflow="hidden"><g transform="translate(-140 -204)"><text font-family="FZShuSong-Z01,FZShuSong-Z01_MSFontService,sans-serif" font-weight="400" font-size="16" transform="translate(150.942 251)">苯丙氨酸</text><text font-family="FZShuSong-Z01,FZShuSong-Z01_MSFontService,sans-serif" font-weight="400" font-size="16" transform="translate(279.163 251)">酪氨酸</text><text font-family="FZShuSong-Z01,FZShuSong-Z01_MSFontService,sans-serif" font-weight="400" font-size="16" transform="translate(391.856 251)">3,4</text><text font-family="FZShuSong-Z01,FZShuSong-Z01_MSFontService,sans-serif" font-weight="400" font-size="16" transform="translate(411.856 251)">-</text><text font-family="FZShuSong-Z01,FZShuSong-Z01_MSFontService,sans-serif" font-weight="400" font-size="16" transform="translate(420.689 251)">二羟苯丙氨酸</text><text font-family="FZShuSong-Z01,FZShuSong-Z01_MSFontService,sans-serif" font-weight="400" font-size="16" transform="translate(255.163 323)">对羟苯丙氨酸</text><text font-family="FZShuSong-Z01,FZShuSong-Z01_MSFontService,sans-serif" font-weight="400" font-size="16" transform="translate(279.163 395)">尿黑酸</text><text font-family="FZShuSong-Z01,FZShuSong-Z01_MSFontService,sans-serif" font-weight="400" font-size="16" transform="translate(271.163 467)">乙酰乙酸</text><text font-family="FZShuSong-Z01,FZShuSong-Z01_MSFontService,sans-serif" font-weight="400" font-size="16" transform="translate(255.163 539)">二氧化碳、水</text><text font-family="FZShuSong-Z01,FZShuSong-Z01_MSFontService,sans-serif" font-weight="400" font-size="16" transform="translate(150.942 323)">苯丙酮酸</text><text font-family="FZShuSong-Z01,FZShuSong-Z01_MSFontService,sans-serif" font-weight="400" font-size="16" transform="translate(430.273 395)">黑色素</text><path d="M184.167 261.5 184.167 303.171 182.833 303.171 182.833 261.5ZM188.743 295.507 183.5 304.494 178.258 295.507C178.072 295.189 178.18 294.781 178.498 294.596 178.816 294.41 179.224 294.517 179.409 294.835L184.076 302.835 182.924 302.835 187.591 294.835C187.776 294.517 188.185 294.41 188.503 294.595 188.821 294.781 188.928 295.189 188.743 295.507Z"/><path d="M0.666667-1.62804e-06 0.666768 41.6713-0.666565 41.6713-0.666667 1.62804e-06ZM5.2426 34.0071 0.000105141 42.9943-5.24244 34.0071C-5.42796 33.6891-5.32053 33.2809-5.0025 33.0953-4.68447 32.9098-4.27625 33.0172-4.09073 33.3353L0.575954 41.3353-0.575752 41.3353 4.0909 33.3353C4.27641 33.0172 4.68463 32.9098 5.00266 33.0953 5.3207 33.2808 5.42812 33.689 5.2426 34.0071Z" transform="matrix(-1 0 0 1 303.5 261.5)"/><path d="M304.167 333.5 304.167 375.271 302.833 375.271 302.833 333.5ZM308.743 367.607 303.5 376.594 298.258 367.607C298.072 367.289 298.18 366.88 298.498 366.695 298.816 366.509 299.224 366.617 299.409 366.935L304.076 374.935 302.924 374.935 307.591 366.935C307.776 366.617 308.185 366.509 308.503 366.695 308.821 366.88 308.928 367.289 308.743 367.607Z"/><path d="M304.167 405.5 304.167 447.271 302.833 447.271 302.833 405.5ZM308.743 439.607 303.5 448.594 298.258 439.607C298.072 439.289 298.18 438.88 298.498 438.695 298.816 438.509 299.224 438.617 299.409 438.935L304.076 446.935 302.924 446.935 307.591 438.935C307.776 438.617 308.185 438.509 308.503 438.695 308.821 438.88 308.928 439.289 308.743 439.607Z"/><path d="M0.666667-1.62428e-06 0.666768 41.7708-0.666565 41.7708-0.666667 1.62428e-06ZM5.2426 34.1065 0.000105149 43.0937-5.24244 34.1065C-5.42796 33.7885-5.32053 33.3803-5.0025 33.1948-4.68447 33.0092-4.27625 33.1167-4.09073 33.4347L0.575954 41.4347-0.575752 41.4347 4.0909 33.4347C4.27641 33.1166 4.68463 33.0092 5.00266 33.1947 5.3207 33.3803 5.42812 33.7885 5.2426 34.1065Z" transform="matrix(-1 0 0 1 303.5 477.5)"/><path d="M455.167 261.5 455.167 374.857 453.833 374.857 453.833 261.5ZM459.743 367.193 454.5 376.18 449.258 367.193C449.072 366.875 449.18 366.467 449.498 366.281 449.816 366.096 450.224 366.203 450.409 366.521L455.076 374.521 453.924 374.521 458.591 366.521C458.776 366.203 459.185 366.096 459.503 366.281 459.821 366.467 459.928 366.875 459.743 367.193Z"/><path d="M1.58043e-06-0.666667 42.9665-0.666565 42.9665 0.666768-1.58043e-06 0.666667ZM35.3022-5.24244 44.2894 0.000104871 35.3022 5.2426C34.9842 5.42812 34.576 5.3207 34.3904 5.00266 34.2049 4.68463 34.3123 4.27642 34.6304 4.0909L42.6304-0.575751 42.6304 0.575954 34.6304-4.09073C34.3124-4.27625 34.2049-4.68446 34.3905-5.0025 34.576-5.32053 34.9842-5.42796 35.3022-5.24244Z" transform="matrix(1 0 0 -1 225.5 246.5)"/><path d="M337.507 245.833 380.649 246.305 380.634 247.638 337.493 247.167ZM373.035 241.645 381.965 246.986 372.921 252.13C372.601 252.312 372.194 252.2 372.012 251.88 371.83 251.56 371.941 251.153 372.261 250.971L380.312 246.392 380.299 247.543 372.351 242.79C372.035 242.601 371.932 242.191 372.121 241.875 372.31 241.559 372.719 241.456 373.035 241.645Z"/><text fill="#FF0000" font-family="FZShuSong-Z01,FZShuSong-Z01_MSFontService,sans-serif" font-weight="400" font-size="13" transform="translate(220.425 221)">苯丙氨酸</text><text fill="#FF0000" font-family="FZShuSong-Z01,FZShuSong-Z01_MSFontService,sans-serif" font-weight="400" font-size="13" transform="translate(227.092 237)">羟化酶</text><text fill="#FF0000" font-family="FZShuSong-Z01,FZShuSong-Z01_MSFontService,sans-serif" font-weight="400" font-size="13" transform="translate(332.568 237)">酪氨酸酶</text><text font-family="FZShuSong-Z01,FZShuSong-Z01_MSFontService,sans-serif" font-weight="400" font-size="13" transform="translate(464.227 322)">多步反应</text><text font-family="FZShuSong-Z01,FZShuSong-Z01_MSFontService,sans-serif" font-weight="400" font-size="13" transform="translate(313.117 503)">多步反应</text><text fill="#FF0000" font-family="FZShuSong-Z01,FZShuSong-Z01_MSFontService,sans-serif" font-weight="400" font-size="13" transform="translate(312.786 431)">尿黑酸氧化酶</text></g></svg>