<svg width="549" height="169" xmlns="http://www.w3.org/2000/svg" xmlns:xlink="http://www.w3.org/1999/xlink" overflow="hidden"><g transform="translate(-225 -302)"><rect x="252" y="307" width="81" height="79" fill="#ED7D31"/><text fill="#FFFFFF" font-family="FZShuSong-Z01,FZShuSong-Z01_MSFontService,sans-serif" font-weight="400" font-size="16" transform="translate(268.267 322)">与已知</text><text fill="#FFFFFF" font-family="FZShuSong-Z01,FZShuSong-Z01_MSFontService,sans-serif" font-weight="400" font-size="16" transform="translate(268.267 342)">序列一</text><text fill="#FFFFFF" font-family="FZShuSong-Z01,FZShuSong-Z01_MSFontService,sans-serif" font-weight="400" font-size="16" transform="translate(276.267 361)">致度</text><text fill="#FFFFFF" font-family="Times New Roman,Times New Roman_MSFontService,sans-serif" font-weight="400" font-size="16" transform="translate(265.1 380)">&gt;30%</text><text fill="#FFFFFF" font-family="FZShuSong-Z01,FZShuSong-Z01_MSFontService,sans-serif" font-weight="400" font-size="16" transform="translate(303.433 380)">？</text><path d="M293.167 386.5 293.167 424.167 291.833 424.167 291.833 386.5ZM297.743 416.503 292.5 425.49 287.258 416.503C287.072 416.185 287.18 415.777 287.498 415.592 287.816 415.406 288.224 415.513 288.409 415.831L293.076 423.831 291.924 423.831 296.591 415.831C296.776 415.513 297.185 415.406 297.503 415.591 297.821 415.777 297.928 416.185 297.743 416.503Z" fill="#7F7F7F"/><rect x="225" y="425" width="134" height="45" fill="#70AD47"/><text fill="#FFFFFF" font-family="Times New Roman,Times New Roman_MSFontService,sans-serif" font-weight="400" font-size="16" transform="translate(237.683 453)">SWISS</text><text fill="#FFFFFF" font-family="Times New Roman,Times New Roman_MSFontService,sans-serif" font-weight="400" font-size="16" transform="translate(284.683 453)">-</text><text fill="#FFFFFF" font-family="Times New Roman,Times New Roman_MSFontService,sans-serif" font-weight="400" font-size="16" transform="translate(290.017 453)">MODEL</text><rect x="527" y="307" width="80" height="79" fill="#ED7D31"/><text fill="#FFFFFF" font-family="Times New Roman,Times New Roman_MSFontService,sans-serif" font-weight="400" font-size="16" transform="translate(541.282 342)">&lt;200</text><text fill="#FFFFFF" font-family="FZShuSong-Z01,FZShuSong-Z01_MSFontService,sans-serif" font-weight="400" font-size="16" transform="translate(574.282 342)">个</text><text fill="#FFFFFF" font-family="FZShuSong-Z01,FZShuSong-Z01_MSFontService,sans-serif" font-weight="400" font-size="16" transform="translate(535.035 361)">氨基酸？</text><rect x="500" y="425" width="134" height="45" fill="#70AD47"/><text fill="#FFFFFF" font-family="Times New Roman,Times New Roman_MSFontService,sans-serif" font-weight="400" font-size="16" transform="translate(538.702 453)">QUARK</text><rect x="640" y="324" width="133" height="45" fill="#70AD47"/><text fill="#FFFFFF" font-family="Times New Roman,Times New Roman_MSFontService,sans-serif" font-weight="400" font-size="16" transform="translate(670.432 352)">ROBETTA</text><path d="M568.167 386.5 568.167 424.167 566.833 424.167 566.833 386.5ZM572.743 416.503 567.5 425.491 562.258 416.503C562.072 416.185 562.18 415.777 562.498 415.592 562.816 415.406 563.224 415.514 563.409 415.832L568.076 423.832 566.924 423.832 571.591 415.832C571.776 415.513 572.185 415.406 572.503 415.592 572.821 415.777 572.928 416.185 572.743 416.503Z" fill="#7F7F7F"/><text font-family="FZShuSong-Z01,FZShuSong-Z01_MSFontService,sans-serif" font-weight="400" font-size="13" transform="translate(294.335 410)">是</text><rect x="363" y="425" width="133" height="45" fill="#70AD47"/><text fill="#FFFFFF" font-family="Times New Roman,Times New Roman_MSFontService,sans-serif" font-weight="400" font-size="16" transform="translate(395.326 453)">I</text><text fill="#FFFFFF" font-family="Times New Roman,Times New Roman_MSFontService,sans-serif" font-weight="400" font-size="16" transform="translate(400.659 453)">-</text><text fill="#FFFFFF" font-family="Times New Roman,Times New Roman_MSFontService,sans-serif" font-weight="400" font-size="16" transform="translate(405.992 453)">TASSER</text><rect x="389" y="307" width="81" height="79" fill="#ED7D31"/><text fill="#FFFFFF" font-family="FZShuSong-Z01,FZShuSong-Z01_MSFontService,sans-serif" font-weight="400" font-size="16" transform="translate(404.358 341)">现有结</text><text fill="#FFFFFF" font-family="FZShuSong-Z01,FZShuSong-Z01_MSFontService,sans-serif" font-weight="400" font-size="16" transform="translate(397.612 361)">构穿线？</text><path d="M431.167 386.497 431.319 424.165 429.986 424.17 429.833 386.503ZM435.864 416.482 430.658 425.491 425.379 416.525C425.192 416.207 425.298 415.799 425.615 415.612 425.932 415.425 426.341 415.531 426.528 415.848L431.227 423.829 430.075 423.834 434.709 415.815C434.894 415.496 435.301 415.387 435.62 415.572 435.939 415.756 436.048 416.164 435.864 416.482Z" fill="#7F7F7F"/><text font-family="FZShuSong-Z01,FZShuSong-Z01_MSFontService,sans-serif" font-weight="400" font-size="13" transform="translate(431.758 409)">是</text><text font-family="FZShuSong-Z01,FZShuSong-Z01_MSFontService,sans-serif" font-weight="400" font-size="13" transform="translate(569.025 409)">是</text><path d="M2.46746e-06-0.666667 55.4115-0.666462 55.4115 0.666872-2.46746e-06 0.666667ZM47.7474-5.24234 56.7345 0.000209927 47.7473 5.2427C47.4293 5.42822 47.0211 5.32079 46.8356 5.00275 46.6501 4.68472 46.7575 4.27651 47.0755 4.09099L55.0755-0.575649 55.0755 0.576056 47.0755-4.09064C46.7575-4.27616 46.6501-4.68437 46.8356-5.00241 47.0211-5.32044 47.4293-5.42786 47.7474-5.24234Z" fill="#7F7F7F" transform="matrix(1 0 0 -1 333.5 346.5)"/><path d="M1.23458e-06-0.666667 55.3723-0.666564 55.3723 0.666769-1.23458e-06 0.666667ZM47.7082-5.24243 56.6954 0.000105099 47.7082 5.24261C47.3901 5.42813 46.9819 5.3207 46.7964 5.00267 46.6109 4.68463 46.7183 4.27642 47.0364 4.0909L55.0364-0.575751 55.0364 0.575954 47.0364-4.09073C46.7183-4.27625 46.6109-4.68446 46.7964-5.00249 46.982-5.32053 47.3902-5.42795 47.7082-5.24243Z" fill="#7F7F7F" transform="matrix(1 0 0 -1 470.5 346.5)"/><path d="M4.29411e-06-0.666667 31.2787-0.666465 31.2787 0.666868-4.29411e-06 0.666667ZM23.6147-5.24237 32.6018 0.000209871 23.6146 5.24267C23.2966 5.42819 22.8884 5.32076 22.7029 5.00273 22.5173 4.68469 22.6248 4.27648 22.9428 4.09096L30.9428-0.575653 30.9428 0.576052 22.9429-4.09067C22.6248-4.27619 22.5174-4.6844 22.7029-5.00243 22.8884-5.32047 23.2967-5.42789 23.6147-5.24237Z" fill="#7F7F7F" transform="matrix(1 0 0 -1 607.5 346.5)"/><text font-family="FZShuSong-Z01,FZShuSong-Z01_MSFontService,sans-serif" font-weight="400" font-size="13" transform="translate(352.387 338)">否</text><text font-family="FZShuSong-Z01,FZShuSong-Z01_MSFontService,sans-serif" font-weight="400" font-size="13" transform="translate(489.811 337)">否</text><text font-family="FZShuSong-Z01,FZShuSong-Z01_MSFontService,sans-serif" font-weight="400" font-size="13" transform="translate(614.501 337)">否</text></g></svg>