<svg width="380" height="213" xmlns="http://www.w3.org/2000/svg" xmlns:xlink="http://www.w3.org/1999/xlink" overflow="hidden"><g transform="translate(-64 -244)"><rect x="65.5001" y="308.5" width="68" height="29" stroke="#000000" stroke-linejoin="round" stroke-miterlimit="10" fill="none"/><text font-family="FZShuSong-Z01,FZShuSong-Z01_MSFontService,sans-serif" font-weight="400" font-size="16" transform="translate(74.6628 326)">前质体</text><rect x="220" y="308" width="68" height="29" fill="#A9D18E"/><text font-family="FZShuSong-Z01,FZShuSong-Z01_MSFontService,sans-serif" font-weight="400" font-size="16" transform="translate(230.117 326)">叶绿体</text><rect x="220.5" y="245.5" width="68" height="29" stroke="#000000" stroke-linejoin="round" stroke-miterlimit="10" fill="none"/><text font-family="FZShuSong-Z01,FZShuSong-Z01_MSFontService,sans-serif" font-weight="400" font-size="16" transform="translate(230.117 264)">白色体</text><rect x="212" y="371" width="84" height="29" fill="#FFE699"/><text font-family="FZShuSong-Z01,FZShuSong-Z01_MSFontService,sans-serif" font-weight="400" font-size="16" transform="translate(222.117 389)">黄化质体</text><rect x="376" y="308" width="67" height="29" fill="#F4B183"/><text font-family="FZShuSong-Z01,FZShuSong-Z01_MSFontService,sans-serif" font-weight="400" font-size="16" transform="translate(385.57 326)">有色体</text><path d="M98.8334 306.963 98.8334 259.833 219.706 259.833 219.706 260.633 99.6334 260.633 99.6334 306.963ZM99.9001 306.963 99.9001 260.9 219.706 260.9 219.706 261.167 100.167 261.167 100.167 306.963ZM104.743 299.299 99.5001 308.286 94.2575 299.299C94.072 298.981 94.1794 298.573 94.4975 298.387 94.8155 298.202 95.2237 298.309 95.4092 298.627L100.076 306.627 98.9242 306.627 103.591 298.627C103.776 298.309 104.185 298.202 104.503 298.387 104.821 298.573 104.928 298.981 104.743 299.299ZM212.042 255.258 221.029 260.5 212.042 265.743C211.723 265.928 211.315 265.821 211.13 265.503 210.944 265.185 211.052 264.776 211.37 264.591L219.37 259.924 219.37 261.076 211.37 256.409C211.052 256.224 210.944 255.816 211.13 255.497 211.315 255.179 211.723 255.072 212.042 255.258Z"/><path d="M288.5 259.833 410.693 259.833 410.693 306.963 409.359 306.963 409.359 260.5 410.026 261.167 288.5 261.167ZM415.268 299.299 410.026 308.286 404.783 299.299C404.598 298.981 404.705 298.573 405.023 298.387 405.341 298.202 405.75 298.309 405.935 298.627L410.602 306.627 409.45 306.627 414.117 298.627C414.302 298.309 414.71 298.202 415.028 298.387 415.346 298.573 415.454 298.981 415.268 299.299Z"/><path d="M410.614 337.5 410.614 386.617 297.82 386.617 297.82 385.283 409.948 385.283 409.281 385.95 409.281 337.5ZM305.484 391.192 296.497 385.95 305.484 380.707C305.802 380.522 306.21 380.629 306.396 380.947 306.581 381.265 306.474 381.674 306.156 381.859L298.156 386.526 298.156 385.374 306.156 390.041C306.474 390.226 306.581 390.634 306.396 390.953 306.21 391.271 305.802 391.378 305.484 391.192Z"/><path d="M0-0.666667 49.1165-0.666667 49.1165 112.127 47.7832 112.127 47.7832 0 48.4499 0.666667 0 0.666667ZM53.6924 104.463 48.4499 113.451 43.2073 104.463C43.0218 104.145 43.1292 103.737 43.4473 103.552 43.7653 103.366 44.1735 103.474 44.3591 103.792L49.0257 111.792 47.874 111.792 52.5407 103.792C52.7262 103.474 53.1344 103.366 53.4524 103.552 53.7705 103.737 53.8779 104.145 53.6924 104.463Z" transform="matrix(1.83697e-16 1 1 -1.83697e-16 99.5001 337.5)"/><path d="M0-0.666667 120.133-0.666667 120.133 311.574 2.65331 311.574 2.65331 310.241 119.467 310.241 118.8 310.908 118.8 0 119.467 0.666667 0 0.666667ZM10.3174 316.15 1.33024 310.908 10.3174 305.665C10.6355 305.48 11.0437 305.587 11.2292 305.905 11.4147 306.223 11.3073 306.631 10.9892 306.817L2.98925 311.483 2.98925 310.332 10.9892 314.998C11.3073 315.184 11.4147 315.592 11.2292 315.91 11.0437 316.228 10.6355 316.336 10.3174 316.15Z" transform="matrix(1.83697e-16 1 1 -1.83697e-16 113.5 336.5)"/><path d="M0.666667-2.06408e-06 0.666768 32.5893-0.666566 32.5893-0.666667 2.06408e-06ZM5.2426 24.9251 0.000105008 33.9123-5.24244 24.9251C-5.42796 24.6071-5.32054 24.1989-5.00251 24.0133-4.68447 23.8278-4.27626 23.9352-4.09074 24.2533L0.575952 32.2533-0.575753 32.2533 4.09089 24.2533C4.27641 23.9352 4.68462 23.8278 5.00266 24.0133 5.32069 24.1988 5.42812 24.607 5.2426 24.9251Z" transform="matrix(1 0 0 -1 254.5 371.409)"/><path d="M133.5 321.833 219.778 321.833 219.778 323.167 133.5 323.167ZM212.113 317.258 221.101 322.5 212.113 327.743C211.795 327.928 211.387 327.821 211.202 327.503 211.016 327.185 211.124 326.776 211.442 326.591L219.442 321.924 219.442 323.076 211.442 318.409C211.124 318.224 211.016 317.816 211.202 317.498 211.387 317.18 211.795 317.072 212.113 317.258Z"/><path d="M288.5 321.833 374.778 321.833 374.778 323.167 288.5 323.167ZM367.114 317.258 376.101 322.5 367.114 327.743C366.796 327.928 366.387 327.821 366.202 327.503 366.016 327.185 366.124 326.776 366.442 326.591L374.442 321.924 374.442 323.076 366.442 318.409C366.124 318.224 366.016 317.816 366.202 317.498 366.387 317.18 366.796 317.072 367.114 317.258Z"/></g></svg>