<?xml version="1.0" standalone='no'?><!-- IBoard SVG File --><svg xmlns="http://www.w3.org/2000/svg" xmlns:xlink="http://www.w3.org/1999/xlink" viewBox="416.71 281.20 148.61 113.90" height="106.90" width="155.61" version="1.1"><!-- SVG File --><text xml:space="preserve" x="481.054657" y="291.583557" textLength="9.386666" lengthAdjust="spacingAndGlyphs"><tspan font-family="Times New Roman" font-weight="normal" baseline-shift="0" font-size="13" fill="#000000">O</tspan></text><text xml:space="preserve" x="534.622742" y="326.694122" textLength="9.386666" lengthAdjust="spacingAndGlyphs"><tspan font-family="Times New Roman" font-weight="normal" baseline-shift="0" font-size="13" fill="#000000">N</tspan></text><text xml:space="preserve" x="534.622742" y="374.394257" textLength="9.386666" lengthAdjust="spacingAndGlyphs"><tspan font-family="Times New Roman" font-weight="normal" baseline-shift="0" font-size="13" fill="#000000">N</tspan></text><text xml:space="preserve"/><text xml:space="preserve" x="534.622742" y="386.096802" textLength="9.386666" lengthAdjust="spacingAndGlyphs"><tspan font-family="Times New Roman" font-weight="normal" baseline-shift="0" font-size="13" fill="#000000">H</tspan></text><text xml:space="preserve" x="481.054657" y="380.024475" textLength="9.386666" lengthAdjust="spacingAndGlyphs"><tspan font-family="Times New Roman" font-weight="normal" baseline-shift="0" font-size="13" fill="#000000">N</tspan></text><text xml:space="preserve" x="446.137268" y="335.804047" textLength="18.773333" lengthAdjust="spacingAndGlyphs"><tspan font-family="Times New Roman" font-weight="normal" baseline-shift="0" font-size="13" fill="#000000">H</tspan><tspan font-family="Times New Roman" font-weight="normal" baseline-shift="0" font-size="13" fill="#000000">N</tspan></text><polygon points="485.747986,315.268860 511.346161,330.047974 511.278717,330.689850 510.689117,331.030273 485.747986,316.630493 485.747986,315.949677 " style="fill:rgb(0,0,0);fill-opacity:1.000000"/><polygon points="511.346161,360.812012 491.915314,372.030396 491.620514,371.519775 491.325714,371.009155 510.689117,359.829712 511.278717,360.170135 " style="fill:rgb(0,0,0);fill-opacity:1.000000"/><polygon points="464.049744,357.617065 481.939087,367.945465 481.644287,368.456085 481.349487,368.966705 463.460144,358.638306 463.754944,358.127686 " style="fill:rgb(0,0,0);fill-opacity:1.000000"/><polygon points="460.806885,359.829712 480.170258,371.009155 479.875458,371.519775 479.580658,372.030396 460.217285,360.850952 460.217285,360.170135 " style="fill:rgb(0,0,0);fill-opacity:1.000000"/><polygon points="459.627686,359.829712 459.627686,337.141296 460.217285,337.141296 460.806885,337.141296 460.806885,359.829712 460.217285,360.170135 " style="fill:rgb(0,0,0);fill-opacity:1.000000"/><polygon points="511.346161,330.047974 533.261353,322.927277 533.443542,323.488037 533.625732,324.048798 511.868317,331.118225 511.278717,330.689850 " style="fill:rgb(0,0,0);fill-opacity:1.000000"/><polygon points="533.261353,367.932709 511.346161,360.812012 511.278717,360.170135 511.868317,359.741760 533.625732,366.811188 533.443542,367.371948 " style="fill:rgb(0,0,0);fill-opacity:1.000000"/><polygon points="511.868317,331.118225 511.868317,359.741760 511.278717,360.170135 510.689117,359.829712 510.689117,331.030273 511.278717,330.689850 " style="fill:rgb(0,0,0);fill-opacity:1.000000"/><polygon points="508.330688,332.732300 508.330688,358.127686 507.741089,358.127686 507.151489,358.127686 507.151489,332.732300 507.741089,332.732300 " style="fill:rgb(0,0,0);fill-opacity:1.000000"/><polygon points="557.372986,345.429993 544.480347,363.175171 544.003357,362.828613 543.526367,362.482056 555.915466,345.429993 556.644226,345.429993 " style="fill:rgb(0,0,0);fill-opacity:1.000000"/><polygon points="551.794495,345.776550 540.664368,330.457306 541.141357,330.110748 541.618347,329.764191 552.748474,345.083435 552.271484,345.429993 " style="fill:rgb(0,0,0);fill-opacity:1.000000"/><polygon points="555.915466,345.429993 543.526367,328.377930 544.003357,328.031372 544.480347,327.684814 557.372986,345.429993 556.644226,345.429993 " style="fill:rgb(0,0,0);fill-opacity:1.000000"/><polygon points="488.106415,292.920807 488.106415,316.970917 487.516815,316.970917 486.927216,316.970917 486.927216,292.920807 487.516815,292.920807 " style="fill:rgb(0,0,0);fill-opacity:1.000000"/><polygon points="484.568756,292.920807 484.568756,316.970917 483.979156,316.970917 483.389557,316.970917 483.389557,292.920807 483.979156,292.920807 " style="fill:rgb(0,0,0);fill-opacity:1.000000"/><polygon points="465.795013,326.788727 485.747986,315.268860 485.747986,315.949677 485.747986,316.630493 466.384613,327.809967 466.089813,327.299347 " style="fill:rgb(0,0,0);fill-opacity:1.000000"/><polygon points="460.217285,360.850952 440.853943,372.030396 440.559143,371.519775 440.264343,371.009155 459.627686,359.829712 460.217285,360.170135 " style="fill:rgb(0,0,0);fill-opacity:1.000000"/><text xml:space="preserve" x="416.706604" y="378.334961" textLength="22.673334" lengthAdjust="spacingAndGlyphs"><tspan font-family="Times New Roman" font-weight="normal" baseline-shift="0" font-size="13" fill="#000000">H</tspan><tspan font-family="Times New Roman" font-weight="normal" baseline-shift="-2" font-size="8" fill="#000000">2</tspan><tspan font-family="Times New Roman" font-weight="normal" baseline-shift="0" font-size="13" fill="#000000">N</tspan></text></svg>