<?xml version="1.0" standalone='no'?><!-- IBoard SVG File --><svg xmlns="http://www.w3.org/2000/svg" xmlns:xlink="http://www.w3.org/1999/xlink" viewBox="76.28 286.61 135.32 119.53" height="112.53" width="142.32" version="1.1"><!-- SVG File --><text xml:space="preserve" x="127.344620" y="296.999939" textLength="9.386666" lengthAdjust="spacingAndGlyphs"><tspan font-family="Times New Roman" font-weight="normal" baseline-shift="0" font-size="13" fill="#000000">O</tspan></text><text xml:space="preserve" x="76.283249" y="385.440826" textLength="9.386666" lengthAdjust="spacingAndGlyphs"><tspan font-family="Times New Roman" font-weight="normal" baseline-shift="0" font-size="13" fill="#000000">O</tspan></text><text xml:space="preserve" x="180.912750" y="332.110504" textLength="9.386666" lengthAdjust="spacingAndGlyphs"><tspan font-family="Times New Roman" font-weight="normal" baseline-shift="0" font-size="13" fill="#000000">N</tspan></text><text xml:space="preserve" x="180.912750" y="379.810638" textLength="9.386666" lengthAdjust="spacingAndGlyphs"><tspan font-family="Times New Roman" font-weight="normal" baseline-shift="0" font-size="13" fill="#000000">N</tspan></text><text xml:space="preserve"/><text xml:space="preserve" x="180.912750" y="391.513184" textLength="9.386666" lengthAdjust="spacingAndGlyphs"><tspan font-family="Times New Roman" font-weight="normal" baseline-shift="0" font-size="13" fill="#000000">H</tspan></text><text xml:space="preserve" x="127.344612" y="385.440826" textLength="9.386666" lengthAdjust="spacingAndGlyphs"><tspan font-family="Times New Roman" font-weight="normal" baseline-shift="0" font-size="13" fill="#000000">N</tspan></text><text xml:space="preserve"/><text xml:space="preserve" x="127.344612" y="397.143372" textLength="9.386666" lengthAdjust="spacingAndGlyphs"><tspan font-family="Times New Roman" font-weight="normal" baseline-shift="0" font-size="13" fill="#000000">H</tspan></text><text xml:space="preserve" x="92.427254" y="341.220428" textLength="18.773333" lengthAdjust="spacingAndGlyphs"><tspan font-family="Times New Roman" font-weight="normal" baseline-shift="0" font-size="13" fill="#000000">H</tspan><tspan font-family="Times New Roman" font-weight="normal" baseline-shift="0" font-size="13" fill="#000000">N</tspan></text><polygon points="132.037949,320.685242 157.636139,335.464355 157.568680,336.106232 156.979080,336.446655 132.037949,322.046875 132.037949,321.366058 " style="fill:rgb(0,0,0);fill-opacity:1.000000"/><polygon points="157.636139,366.228394 138.205292,377.446747 137.910492,376.936127 137.615692,376.425507 156.979080,365.246094 157.568680,365.586517 " style="fill:rgb(0,0,0);fill-opacity:1.000000"/><polygon points="105.917641,365.926941 105.917641,342.557678 106.507248,342.557678 107.096855,342.557678 107.096855,365.246094 106.507248,365.586517 " style="fill:rgb(0,0,0);fill-opacity:1.000000"/><polygon points="157.636139,335.464355 179.551331,328.343658 179.733536,328.904419 179.915741,329.465179 158.158279,336.534607 157.568680,336.106232 " style="fill:rgb(0,0,0);fill-opacity:1.000000"/><polygon points="179.551331,373.349091 157.636139,366.228394 157.568680,365.586517 158.158279,365.158142 179.915741,372.227570 179.733536,372.788330 " style="fill:rgb(0,0,0);fill-opacity:1.000000"/><polygon points="158.158279,336.534607 158.158279,365.158142 157.568680,365.586517 156.979080,365.246094 156.979080,336.446655 157.568680,336.106232 " style="fill:rgb(0,0,0);fill-opacity:1.000000"/><polygon points="154.620636,338.148682 154.620636,363.544067 154.031036,363.544067 153.441437,363.544067 153.441437,338.148682 154.031036,338.148682 " style="fill:rgb(0,0,0);fill-opacity:1.000000"/><polygon points="203.662979,350.846375 190.770340,368.591553 190.293335,368.244995 189.816330,367.898438 202.205399,350.846375 202.934189,350.846375 " style="fill:rgb(0,0,0);fill-opacity:1.000000"/><polygon points="198.084427,351.192932 186.954330,335.873688 187.431335,335.527130 187.908340,335.180573 199.038437,350.499817 198.561432,350.846375 " style="fill:rgb(0,0,0);fill-opacity:1.000000"/><polygon points="202.205399,350.846375 189.816330,333.794312 190.293335,333.447754 190.770340,333.101196 203.662979,350.846375 202.934189,350.846375 " style="fill:rgb(0,0,0);fill-opacity:1.000000"/><polygon points="134.396362,298.337189 134.396362,322.387299 133.806763,322.387299 133.217163,322.387299 133.217163,298.337189 133.806763,298.337189 " style="fill:rgb(0,0,0);fill-opacity:1.000000"/><polygon points="130.858734,298.337189 130.858734,322.387299 130.269135,322.387299 129.679535,322.387299 129.679535,298.337189 130.269135,298.337189 " style="fill:rgb(0,0,0);fill-opacity:1.000000"/><polygon points="112.084999,332.205078 132.037949,320.685242 132.037949,321.366058 132.037949,322.046875 112.674599,333.226318 112.379799,332.715698 " style="fill:rgb(0,0,0);fill-opacity:1.000000"/><polygon points="107.096855,365.246094 126.460197,376.425507 126.165398,376.936127 125.870598,377.446747 105.917641,365.926941 106.507248,365.586517 " style="fill:rgb(0,0,0);fill-opacity:1.000000"/><polygon points="108.570862,367.118347 88.028336,378.978577 87.733536,378.467957 87.438736,377.957336 107.981262,366.097107 108.276062,366.607727 " style="fill:rgb(0,0,0);fill-opacity:1.000000"/><polygon points="106.802048,364.054718 86.259521,375.914917 85.964722,375.404297 85.669922,374.893677 106.212448,363.033478 106.507248,363.544098 " style="fill:rgb(0,0,0);fill-opacity:1.000000"/></svg>